<svg width="89" height="88" viewBox="0 0 89 88" fill="none" xmlns="http://www.w3.org/2000/svg">
<g clip-path="url(#clip0_347_706)">
<path d="M-0.213989 20.3965C-0.313295 9.35128 8.56014 0.316835 19.6054 0.217529L67.6035 -0.214014C78.6487 -0.313321 87.6831 8.56012 87.7825 19.6054L88.214 67.6034C88.3133 78.6487 79.4399 87.6831 68.3946 87.7824L20.3966 88.214C9.35131 88.3133 0.316861 79.4398 0.217554 68.3946L-0.213989 20.3965Z" fill="url(#paint0_linear_347_706)"/>
<g filter="url(#filter0_d_347_706)">
<path d="M60.6589 17.8567C63.3897 17.9179 65.9785 18.7273 67.9177 20.6412C69.8603 22.5447 70.7141 25.1146 70.8243 27.84C70.9338 30.5507 70.321 33.5564 69.1875 36.6353C68.2807 39.0983 67.0123 41.6798 65.4251 44.2944C67.0594 46.8804 68.3735 49.4391 69.3246 51.8857C70.5134 54.9438 71.18 57.9378 71.1193 60.6501C71.0582 63.3769 70.2493 65.9609 68.3416 67.899L68.3426 67.9C66.4381 69.8485 63.8644 70.7053 61.1351 70.8155C58.4242 70.925 55.4187 70.3123 52.3397 69.1787C49.8764 68.2718 47.2945 67.0039 44.6796 65.4164C42.094 67.0503 39.5356 68.3649 37.0894 69.3158C34.0314 70.5045 31.0371 71.1713 28.3249 71.1105C25.598 71.0494 23.0131 70.2409 21.075 68.3328C19.1266 66.4284 18.2707 63.8555 18.1605 61.1263C18.051 58.4155 18.6628 55.4099 19.7963 52.331C20.7031 49.8679 21.9704 47.2856 23.5577 44.6709C21.9239 42.0854 20.6101 39.5267 19.6592 37.0806C18.4706 34.0226 17.8048 31.0283 17.8655 28.3161C17.9267 25.5856 18.7364 22.9973 20.65 21.0583C22.5535 19.1158 25.1235 18.2619 27.8487 18.1517C30.5594 18.0422 33.5652 18.6541 36.6441 19.7875C39.1069 20.6943 41.6888 21.9619 44.3032 23.5489C46.889 21.9148 49.448 20.6014 51.8944 19.6504C54.9525 18.4617 57.9466 17.796 60.6589 17.8567ZM23.5577 44.6709C22.6428 46.3522 25.0604 52.5057 24.4888 54.0584C23.5009 56.7418 23.0811 59.0707 23.1559 60.9241C23.2254 62.6448 23.7085 63.8256 24.4245 64.6072L24.5703 64.7583L24.5792 64.766L24.7329 64.9101C25.5272 65.6116 26.716 66.0727 28.4372 66.1113C30.2916 66.1528 32.6126 65.6912 35.2779 64.6552C36.8202 64.0556 38.4399 63.2766 40.1048 62.3314C37.6881 60.5381 35.2856 58.493 32.9666 56.2254L32.9587 56.2177C30.6495 53.9395 25.3943 47.0553 23.5577 44.6709ZM62.3411 48.8702C60.5477 51.2871 58.502 53.6892 56.2342 56.0084L56.2264 56.0163C53.9484 58.3254 47.0639 63.5798 44.6796 65.4164C46.3612 66.3314 52.5143 63.9145 54.0671 64.4862C56.7506 65.4742 59.0795 65.8939 60.9329 65.8191C62.768 65.745 63.9893 65.2004 64.767 64.4047L64.7748 64.3968L64.9189 64.2431C65.6205 63.4488 66.0815 62.2593 66.12 60.5379C66.1615 58.6834 65.7 56.3624 64.6639 53.6972C64.0644 52.1548 63.2863 50.535 62.3411 48.8702ZM44.3571 29.5448C41.6712 31.476 38.9478 33.7937 36.3164 36.4611C33.7001 39.1376 31.4343 41.8994 29.5535 44.6169C31.483 47.3004 33.7977 50.0216 36.462 52.6509L37.0186 53.1879C39.5229 55.5815 42.0933 57.6688 44.6257 59.4215C47.3119 57.4901 50.0357 55.1727 52.6674 52.5052C55.2839 49.8285 57.5494 47.0661 59.4303 44.3483C57.5009 41.6651 55.1859 38.9444 52.5218 36.3154L51.9662 35.7784C49.4615 33.3844 46.8899 31.2976 44.3571 29.5448ZM44.6584 44.4821C44.6576 44.3902 44.5828 44.316 44.4909 44.3166C44.3988 44.3175 44.3246 44.3931 44.3254 44.4851C44.3264 44.577 44.4019 44.6504 44.4939 44.6496C44.5857 44.6486 44.6591 44.5739 44.6584 44.4821ZM28.0509 23.1472C26.2159 23.2213 24.9954 23.7659 24.2177 24.5616L24.209 24.5704C23.4275 25.3623 22.9049 26.5924 22.8638 28.4284C22.8222 30.2828 23.2839 32.6039 24.3199 35.2691C24.9194 36.8113 25.6976 38.4314 26.6427 40.0961C28.4361 37.6791 30.4818 35.277 32.7496 32.9579L32.7574 32.95L33.3391 32.3666C35.4368 30.2879 42.1213 25.2296 44.3032 23.5489C42.6218 22.634 36.4694 25.0517 34.9167 24.48C32.2332 23.4921 29.9043 23.0723 28.0509 23.1472ZM60.5466 22.855C58.6922 22.8135 56.3712 23.2751 53.7059 24.3111C52.1638 24.9106 50.5436 25.6879 48.879 26.6329C51.0909 28.2742 53.2902 30.1272 55.4251 32.168L56.0172 32.7408L56.025 32.7486L56.6084 33.3303C58.687 35.4278 63.7445 42.1127 65.4251 44.2944C66.3402 42.6128 63.9233 36.4608 64.495 34.9079C65.4829 32.2244 65.9027 29.8955 65.8279 28.0421C65.7537 26.2071 65.2091 24.9866 64.4135 24.209L64.4056 24.2002C63.6137 23.4187 62.3827 22.8961 60.5466 22.855ZM49.6582 44.4372C49.6837 47.2903 47.392 49.6236 44.5388 49.6494C41.6856 49.6751 39.3514 47.3833 39.3256 44.5301C39.3 41.6767 41.5926 39.3425 44.4459 39.3168C47.2992 39.2913 49.6325 41.5839 49.6582 44.4372Z" fill="url(#paint1_linear_347_706)"/>
</g>
</g>
<defs>
<filter id="filter0_d_347_706" x="-2.13834" y="1.85291" width="93.2614" height="93.2614" filterUnits="userSpaceOnUse" color-interpolation-filters="sRGB">
<feFlood flood-opacity="0" result="BackgroundImageFix"/>
<feColorMatrix in="SourceAlpha" type="matrix" values="0 0 0 0 0 0 0 0 0 0 0 0 0 0 0 0 0 0 127 0" result="hardAlpha"/>
<feOffset dy="4"/>
<feGaussianBlur stdDeviation="10"/>
<feComposite in2="hardAlpha" operator="out"/>
<feColorMatrix type="matrix" values="0 0 0 0 0.207843 0 0 0 0 0.192157 0 0 0 0 0.635294 0 0 0 1 0"/>
<feBlend mode="normal" in2="BackgroundImageFix" result="effect1_dropShadow_347_706"/>
<feBlend mode="normal" in="SourceGraphic" in2="effect1_dropShadow_347_706" result="shape"/>
</filter>
<linearGradient id="paint0_linear_347_706" x1="43.6044" y1="0.00175739" x2="44.3956" y2="87.9982" gradientUnits="userSpaceOnUse">
<stop stop-color="#6B66FF"/>
<stop offset="1" stop-color="#3A33FF"/>
</linearGradient>
<linearGradient id="paint1_linear_347_706" x1="44.3475" y1="71.2168" x2="43.8712" y2="18.2443" gradientUnits="userSpaceOnUse">
<stop stop-color="#9ACDFF"/>
<stop offset="1" stop-color="#BADAFF"/>
</linearGradient>
<clipPath id="clip0_347_706">
<rect width="88" height="88" fill="white" transform="translate(-0.393799 0.397339) rotate(-0.515124)"/>
</clipPath>
</defs>
</svg>
