<svg width="334" height="88" viewBox="0 0 334 88" fill="none" xmlns="http://www.w3.org/2000/svg">
<g clip-path="url(#clip0_117_800)">
<path d="M114 68.2649V18.73H123.342V68.2649H114Z" fill="url(#paint0_linear_117_800)"/>
<path d="M134.685 68.2649V31.0091H143.02L143.379 41.4742L142.302 41.0556C142.685 38.4509 143.475 36.3579 144.673 34.7765C145.871 33.1951 147.332 32.0323 149.056 31.2881C150.781 30.544 152.673 30.1719 154.733 30.1719C157.559 30.1719 159.931 30.7765 161.847 31.9858C163.811 33.1951 165.296 34.8695 166.302 37.0091C167.308 39.1021 167.811 41.544 167.811 44.3347V68.2649H158.613V47.1951C158.613 45.1021 158.398 43.3347 157.967 41.8928C157.536 40.4509 156.817 39.3579 155.811 38.6137C154.853 37.823 153.559 37.4277 151.931 37.4277C149.487 37.4277 147.523 38.2649 146.038 39.9393C144.601 41.6137 143.882 44.0323 143.882 47.1951V68.2649H134.685Z" fill="url(#paint1_linear_117_800)"/>
<path d="M192.523 69.1021C188.738 69.1021 185.552 68.5672 182.966 67.4974C180.427 66.4277 178.462 64.9393 177.073 63.0323C175.684 61.1253 174.893 58.9626 174.702 56.544L184.115 56.1254C184.451 58.0788 185.289 59.5905 186.63 60.6602C187.972 61.73 189.96 62.2649 192.595 62.2649C194.75 62.2649 196.427 61.9393 197.625 61.2881C198.87 60.5905 199.493 59.5207 199.493 58.0788C199.493 57.2416 199.277 56.544 198.846 55.9858C198.415 55.4277 197.601 54.9393 196.403 54.5207C195.205 54.1021 193.433 53.6835 191.086 53.2649C187.157 52.6137 184.067 51.823 181.816 50.8928C179.564 49.916 177.959 48.7067 177.001 47.2649C176.091 45.823 175.636 44.0323 175.636 41.8928C175.636 38.4044 177.001 35.5905 179.732 33.4509C182.51 31.2649 186.558 30.1719 191.876 30.1719C195.325 30.1719 198.223 30.73 200.571 31.8463C202.918 32.916 204.739 34.4044 206.032 36.3114C207.373 38.1719 208.212 40.3114 208.547 42.73L199.277 43.1486C199.038 41.8928 198.607 40.7998 197.984 39.8695C197.361 38.9393 196.523 38.2416 195.469 37.7765C194.415 37.2649 193.169 37.0091 191.732 37.0091C189.576 37.0091 187.948 37.4277 186.846 38.2649C185.744 39.1021 185.193 40.2184 185.193 41.6137C185.193 42.5905 185.433 43.4044 185.912 44.0556C186.439 44.7067 187.277 45.2416 188.427 45.6602C189.577 46.0323 191.109 46.3812 193.026 46.7067C197.05 47.3114 200.212 48.1021 202.511 49.0788C204.858 50.0091 206.511 51.2184 207.469 52.7067C208.475 54.1486 208.978 55.8928 208.978 57.9393C208.978 60.3114 208.284 62.3346 206.894 64.0091C205.553 65.6835 203.637 66.9626 201.146 67.8463C198.703 68.6835 195.828 69.1021 192.523 69.1021Z" fill="url(#paint2_linear_117_800)"/>
<path d="M217.554 78.73L219.55 71.823H222.44C223.686 71.823 224.596 71.637 225.171 71.2649C225.794 70.8928 226.273 70.2649 226.608 69.3812L227.686 66.7998H225.027L211.302 31.0091H220.86L230.489 58.4277L239.687 31.0091H249.244L234.225 72.1719C233.363 74.4974 232.141 76.1719 230.56 77.1951C229.028 78.2184 226.872 78.73 224.093 78.73H217.554Z" fill="url(#paint3_linear_117_800)"/>
<path d="M254.191 68.2649V31.0091H262.527L262.886 41.4742L261.808 41.0556C262.191 38.4509 262.982 36.3579 264.18 34.7765C265.377 33.1951 266.838 32.0323 268.563 31.2881C270.288 30.544 272.18 30.1719 274.24 30.1719C277.066 30.1719 279.437 30.7765 281.354 31.9858C283.318 33.1951 284.803 34.8695 285.809 37.0091C286.815 39.1021 287.318 41.544 287.318 44.3347V68.2649H278.12V47.1951C278.12 45.1021 277.905 43.3347 277.473 41.8928C277.042 40.4509 276.324 39.3579 275.318 38.6137C274.359 37.823 273.066 37.4277 271.437 37.4277C268.994 37.4277 267.03 38.2649 265.545 39.9393C264.108 41.6137 263.389 44.0323 263.389 47.1951V68.2649H254.191Z" fill="url(#paint4_linear_117_800)"/>
<path d="M313.107 69.1021C309.275 69.1021 305.945 68.3114 303.119 66.73C300.293 65.1021 298.089 62.823 296.508 59.8928C294.975 56.9626 294.208 53.544 294.208 49.637C294.208 45.73 294.975 42.3347 296.508 39.4509C298.089 36.5207 300.293 34.2416 303.119 32.6137C305.945 30.9858 309.275 30.1719 313.107 30.1719C316.365 30.1719 319.263 30.73 321.802 31.8463C324.341 32.9626 326.401 34.5672 327.982 36.6602C329.611 38.7067 330.617 41.2184 331 44.1951L321.515 44.6835C321.131 42.3114 320.173 40.5207 318.64 39.3114C317.155 38.0556 315.311 37.4277 313.107 37.4277C310.137 37.4277 307.838 38.5207 306.209 40.7067C304.58 42.8463 303.766 45.823 303.766 49.637C303.766 53.4974 304.58 56.4974 306.209 58.637C307.838 60.7765 310.137 61.8463 313.107 61.8463C315.359 61.8463 317.227 61.2184 318.712 59.9626C320.245 58.7067 321.179 56.7533 321.515 54.1021L331 54.5207C330.617 57.4974 329.635 60.0788 328.054 62.2649C326.473 64.4509 324.413 66.1486 321.874 67.3579C319.335 68.5207 316.413 69.1021 313.107 69.1021Z" fill="url(#paint5_linear_117_800)"/>
<g clip-path="url(#clip1_117_800)">
<path d="M0 20C0 8.95429 8.95431 -2.08616e-05 20 -2.08616e-05L68 -2.08616e-05C79.0457 -2.08616e-05 88 8.95428 88 20V68C88 79.0457 79.0457 88 68 88H20C8.95431 88 0 79.0457 0 68L0 20Z" fill="url(#paint6_linear_117_800)"/>
<g filter="url(#filter0_d_117_800)">
<path d="M60.8933 18.0075C63.6234 18.0932 66.2049 18.9259 68.1267 20.8571C70.0522 22.7781 70.8828 25.3555 70.9685 28.0817C71.0536 30.7934 70.4138 33.7934 69.2527 36.862C68.3238 39.3167 67.0323 41.8868 65.4216 44.487C67.0326 47.0876 68.3237 49.658 69.2527 52.113C70.4139 55.1817 71.0536 58.1816 70.9685 60.8933C70.8829 63.6193 70.0508 66.196 68.1257 68.1169L68.1267 68.1179C66.2048 70.0492 63.6235 70.8828 60.8933 70.9685C58.1816 71.0536 55.1817 70.4139 52.113 69.2526C49.658 68.3236 47.0876 67.0325 44.487 65.4216C41.8868 67.0322 39.3168 68.3238 36.862 69.2526C33.7935 70.4138 30.7934 71.0536 28.0818 70.9685C25.3555 70.8828 22.7781 70.0512 20.8572 68.1257C18.926 66.2039 18.0933 63.6234 18.0075 60.8933C17.9224 58.1816 18.5612 55.1817 19.7224 52.113C20.6513 49.6581 21.9417 47.0874 23.5525 44.487C21.942 41.887 20.6512 39.3166 19.7224 36.862C18.5613 33.7935 17.9224 30.7933 18.0075 28.0817C18.0933 25.3519 18.9263 22.771 20.8572 20.8493C22.778 18.924 25.3556 18.0932 28.0818 18.0075C30.7933 17.9224 33.7935 18.5613 36.862 19.7224C39.3166 20.6512 41.887 21.942 44.487 23.5525C47.0874 21.9417 49.6582 20.6513 52.113 19.7224C55.1817 18.5612 58.1816 17.9224 60.8933 18.0075ZM23.5525 44.487C22.6225 46.1601 24.9847 52.335 24.3992 53.8825C23.3871 56.557 22.9465 58.882 23.0046 60.736C23.0587 62.4573 23.5311 63.6424 24.24 64.4304L24.3845 64.5827L24.3933 64.5905L24.5456 64.736C25.3336 65.4446 26.5183 65.9164 28.239 65.9704C30.093 66.0286 32.418 65.5879 35.0925 64.5759C36.6402 63.9902 38.2668 63.2258 39.9402 62.2956C37.5397 60.4807 35.1556 58.414 32.8572 56.1257L32.8493 56.1179C30.5606 53.819 25.3676 46.8879 23.5525 44.487ZM62.2966 49.0349C60.4815 51.4356 58.4143 53.8192 56.1257 56.1179L56.1179 56.1257C53.8192 58.4143 46.8878 63.6065 44.487 65.4216C46.1603 66.3517 52.3349 63.9902 53.8825 64.5759C56.557 65.5879 58.882 66.0286 60.7361 65.9704C62.5717 65.9128 63.7979 65.3792 64.5827 64.5905L64.5906 64.5827L64.7361 64.4304C65.4448 63.6424 65.9164 62.4571 65.9704 60.736C66.0286 58.882 65.5879 56.557 64.5759 53.8825C63.9903 52.3349 63.2267 50.7081 62.2966 49.0349ZM44.487 29.5485C41.7839 31.4556 39.0398 33.7487 36.3845 36.3923C33.7442 39.0451 31.4537 41.7865 29.5486 44.487C31.4538 47.1878 33.744 49.9296 36.3845 52.5827L36.9363 53.1247C39.4189 55.5407 41.9705 57.6511 44.487 59.4265C47.1904 57.5193 49.935 55.2265 52.5906 52.5827C55.2311 49.9296 57.5212 47.1878 59.4265 44.487C57.5213 41.7865 55.2309 39.0451 52.5906 36.3923L52.0398 35.8503C49.5567 33.4339 47.004 31.3241 44.487 29.5485ZM44.654 44.488C44.654 44.396 44.5799 44.3212 44.488 44.321C44.396 44.321 44.321 44.3959 44.321 44.488C44.3212 44.5799 44.3961 44.654 44.488 44.654C44.5798 44.6539 44.6539 44.5798 44.654 44.488ZM28.239 23.0046C26.4034 23.0622 25.1781 23.5958 24.3933 24.3845L24.3845 24.3933C23.5959 25.1781 23.0623 26.4034 23.0046 28.239C22.9464 30.093 23.3872 32.4181 24.3992 35.0925C24.9848 36.64 25.7484 38.267 26.6784 39.9401C28.4935 37.5394 30.5608 35.1558 32.8493 32.8571L32.8572 32.8493L33.4441 32.2712C35.5604 30.2114 42.2901 25.2135 44.487 23.5525C42.8139 22.6224 36.64 24.9847 35.0925 24.3991C32.4181 23.3871 30.093 22.9464 28.239 23.0046ZM60.7361 23.0046C58.882 22.9465 56.557 23.3871 53.8825 24.3991C52.3351 24.9847 50.708 25.7475 49.0349 26.6775C51.232 28.3385 53.4145 30.2113 55.531 32.2712L56.1179 32.8493L56.1257 32.8571L56.7038 33.4441C58.7635 35.5602 63.7607 42.2902 65.4216 44.487C66.3518 42.8137 63.9902 36.6402 64.5759 35.0925C65.5879 32.418 66.0286 30.093 65.9704 28.239C65.9128 26.4034 65.3792 25.1781 64.5906 24.3933L64.5827 24.3845C63.7979 23.5958 62.5717 23.0622 60.7361 23.0046ZM49.654 44.488C49.6539 47.3412 47.3413 49.6539 44.488 49.654C41.6346 49.654 39.3212 47.3413 39.321 44.488C39.321 41.6345 41.6345 39.321 44.488 39.321C47.3414 39.3212 49.654 41.6346 49.654 44.488Z" fill="url(#paint7_linear_117_800)"/>
</g>
</g>
</g>
<defs>
<filter id="filter0_d_117_800" x="-2" y="1.99998" width="92.976" height="92.976" filterUnits="userSpaceOnUse" color-interpolation-filters="sRGB">
<feFlood flood-opacity="0" result="BackgroundImageFix"/>
<feColorMatrix in="SourceAlpha" type="matrix" values="0 0 0 0 0 0 0 0 0 0 0 0 0 0 0 0 0 0 127 0" result="hardAlpha"/>
<feOffset dy="4"/>
<feGaussianBlur stdDeviation="10"/>
<feComposite in2="hardAlpha" operator="out"/>
<feColorMatrix type="matrix" values="0 0 0 0 0.207843 0 0 0 0 0.192157 0 0 0 0 0.635294 0 0 0 1 0"/>
<feBlend mode="normal" in2="BackgroundImageFix" result="effect1_dropShadow_117_800"/>
<feBlend mode="normal" in="SourceGraphic" in2="effect1_dropShadow_117_800" result="shape"/>
</filter>
<linearGradient id="paint0_linear_117_800" x1="166.128" y1="18.9883" x2="166.128" y2="78.9204" gradientUnits="userSpaceOnUse">
<stop stop-color="#0A0A0A"/>
<stop offset="1" stop-color="#16136C"/>
</linearGradient>
<linearGradient id="paint1_linear_117_800" x1="166.128" y1="18.9883" x2="166.128" y2="78.9204" gradientUnits="userSpaceOnUse">
<stop stop-color="#0A0A0A"/>
<stop offset="1" stop-color="#16136C"/>
</linearGradient>
<linearGradient id="paint2_linear_117_800" x1="166.128" y1="18.9883" x2="166.128" y2="78.9204" gradientUnits="userSpaceOnUse">
<stop stop-color="#0A0A0A"/>
<stop offset="1" stop-color="#16136C"/>
</linearGradient>
<linearGradient id="paint3_linear_117_800" x1="166.128" y1="18.9883" x2="166.128" y2="78.9204" gradientUnits="userSpaceOnUse">
<stop stop-color="#0A0A0A"/>
<stop offset="1" stop-color="#16136C"/>
</linearGradient>
<linearGradient id="paint4_linear_117_800" x1="166.128" y1="18.9883" x2="166.128" y2="78.9204" gradientUnits="userSpaceOnUse">
<stop stop-color="#0A0A0A"/>
<stop offset="1" stop-color="#16136C"/>
</linearGradient>
<linearGradient id="paint5_linear_117_800" x1="166.128" y1="18.9883" x2="166.128" y2="78.9204" gradientUnits="userSpaceOnUse">
<stop stop-color="#0A0A0A"/>
<stop offset="1" stop-color="#16136C"/>
</linearGradient>
<linearGradient id="paint6_linear_117_800" x1="44" y1="-2.08616e-05" x2="44" y2="88" gradientUnits="userSpaceOnUse">
<stop stop-color="#6B66FF"/>
<stop offset="1" stop-color="#3A33FF"/>
</linearGradient>
<linearGradient id="paint7_linear_117_800" x1="44.1028" y1="71.2188" x2="44.1028" y2="18.2442" gradientUnits="userSpaceOnUse">
<stop stop-color="#9ACDFF"/>
<stop offset="1" stop-color="#BADAFF"/>
</linearGradient>
<clipPath id="clip0_117_800">
<rect width="334" height="88" fill="white"/>
</clipPath>
<clipPath id="clip1_117_800">
<rect width="88" height="88" fill="white"/>
</clipPath>
</defs>
</svg>
