<svg width="334" height="88" viewBox="0 0 334 88" fill="none" xmlns="http://www.w3.org/2000/svg">
<g clip-path="url(#clip0_117_800)">
<path d="M114 68.2649V18.73H123.342V68.2649H114Z" fill="url(#paint0_linear_117_800)"/>
<path d="M134.685 68.2649V31.0091H143.02L143.379 41.4742L142.302 41.0556C142.685 38.4509 143.475 36.3579 144.673 34.7765C145.871 33.1951 147.332 32.0323 149.056 31.2881C150.781 30.544 152.673 30.1719 154.733 30.1719C157.559 30.1719 159.931 30.7765 161.847 31.9858C163.811 33.1951 165.296 34.8695 166.302 37.0091C167.308 39.1021 167.811 41.544 167.811 44.3347V68.2649H158.613V47.1951C158.613 45.1021 158.398 43.3347 157.967 41.8928C157.536 40.4509 156.817 39.3579 155.811 38.6137C154.853 37.823 153.559 37.4277 151.931 37.4277C149.487 37.4277 147.523 38.2649 146.038 39.9393C144.601 41.6137 143.882 44.0323 143.882 47.1951V68.2649H134.685Z" fill="url(#paint1_linear_117_800)"/>
<path d="M192.523 69.1021C188.738 69.1021 185.552 68.5672 182.966 67.4974C180.427 66.4277 178.462 64.9393 177.073 63.0323C175.684 61.1253 174.893 58.9626 174.702 56.544L184.115 56.1254C184.451 58.0788 185.289 59.5905 186.63 60.6602C187.972 61.73 189.96 62.2649 192.595 62.2649C194.75 62.2649 196.427 61.9393 197.625 61.2881C198.87 60.5905 199.493 59.5207 199.493 58.0788C199.493 57.2416 199.277 56.544 198.846 55.9858C198.415 55.4277 197.601 54.9393 196.403 54.5207C195.205 54.1021 193.433 53.6835 191.086 53.2649C187.157 52.6137 184.067 51.823 181.816 50.8928C179.564 49.916 177.959 48.7067 177.001 47.2649C176.091 45.823 175.636 44.0323 175.636 41.8928C175.636 38.4044 177.001 35.5905 179.732 33.4509C182.51 31.2649 186.558 30.1719 191.876 30.1719C195.325 30.1719 198.223 30.73 200.571 31.8463C202.918 32.916 204.739 34.4044 206.032 36.3114C207.373 38.1719 208.212 40.3114 208.547 42.73L199.277 43.1486C199.038 41.8928 198.607 40.7998 197.984 39.8695C197.361 38.9393 196.523 38.2416 195.469 37.7765C194.415 37.2649 193.169 37.0091 191.732 37.0091C189.577 37.0091 187.948 37.4277 186.846 38.2649C185.744 39.1021 185.193 40.2184 185.193 41.6137C185.193 42.5905 185.433 43.4044 185.912 44.0556C186.439 44.7067 187.277 45.2416 188.427 45.6602C189.577 46.0323 191.109 46.3812 193.026 46.7067C197.05 47.3114 200.212 48.1021 202.511 49.0788C204.858 50.0091 206.511 51.2184 207.469 52.7067C208.475 54.1486 208.978 55.8928 208.978 57.9393C208.978 60.3114 208.284 62.3346 206.894 64.0091C205.553 65.6835 203.637 66.9626 201.146 67.8463C198.703 68.6835 195.828 69.1021 192.523 69.1021Z" fill="url(#paint2_linear_117_800)"/>
<path d="M217.554 78.73L219.55 71.823H222.44C223.686 71.823 224.596 71.637 225.171 71.2649C225.794 70.8928 226.273 70.2649 226.608 69.3812L227.686 66.7998H225.027L211.302 31.0091H220.86L230.489 58.4277L239.687 31.0091H249.244L234.225 72.1719C233.363 74.4974 232.141 76.1719 230.56 77.1951C229.028 78.2184 226.872 78.73 224.093 78.73H217.554Z" fill="url(#paint3_linear_117_800)"/>
<path d="M254.191 68.2649V31.0091H262.527L262.886 41.4742L261.808 41.0556C262.191 38.4509 262.982 36.3579 264.18 34.7765C265.377 33.1951 266.838 32.0323 268.563 31.2881C270.288 30.544 272.18 30.1719 274.24 30.1719C277.066 30.1719 279.437 30.7765 281.354 31.9858C283.318 33.1951 284.803 34.8695 285.809 37.0091C286.815 39.1021 287.318 41.544 287.318 44.3347V68.2649H278.12V47.1951C278.12 45.1021 277.905 43.3347 277.473 41.8928C277.042 40.4509 276.324 39.3579 275.318 38.6137C274.359 37.823 273.066 37.4277 271.437 37.4277C268.994 37.4277 267.03 38.2649 265.545 39.9393C264.108 41.6137 263.389 44.0323 263.389 47.1951V68.2649H254.191Z" fill="url(#paint4_linear_117_800)"/>
<path d="M313.107 69.1021C309.275 69.1021 305.945 68.3114 303.119 66.73C300.293 65.1021 298.089 62.823 296.508 59.8928C294.975 56.9626 294.208 53.544 294.208 49.637C294.208 45.73 294.975 42.3347 296.508 39.4509C298.089 36.5207 300.293 34.2416 303.119 32.6137C305.945 30.9858 309.275 30.1719 313.107 30.1719C316.365 30.1719 319.263 30.73 321.802 31.8463C324.341 32.9626 326.401 34.5672 327.982 36.6602C329.611 38.7067 330.617 41.2184 331 44.1951L321.515 44.6835C321.131 42.3114 320.173 40.5207 318.64 39.3114C317.155 38.0556 315.311 37.4277 313.107 37.4277C310.137 37.4277 307.838 38.5207 306.209 40.7067C304.58 42.8463 303.766 45.823 303.766 49.637C303.766 53.4974 304.58 56.4974 306.209 58.637C307.838 60.7765 310.137 61.8463 313.107 61.8463C315.359 61.8463 317.227 61.2184 318.712 59.9626C320.245 58.7067 321.179 56.7533 321.515 54.1021L331 54.5207C330.617 57.4974 329.635 60.0788 328.054 62.2649C326.473 64.4509 324.413 66.1486 321.874 67.3579C319.335 68.5207 316.413 69.1021 313.107 69.1021Z" fill="url(#paint5_linear_117_800)"/>
<g clip-path="url(#clip1_117_800)">
<path d="M-0.213989 20.3965C-0.313295 9.35128 8.56014 0.316835 19.6054 0.217529L67.6035 -0.214014C78.6487 -0.313321 87.6831 8.56012 87.7825 19.6054L88.214 67.6034C88.3133 78.6487 79.4399 87.6831 68.3946 87.7824L20.3966 88.214C9.35131 88.3133 0.316861 79.4398 0.217554 68.3946L-0.213989 20.3965Z" fill="url(#paint6_linear_117_800)"/>
<g filter="url(#filter0_d_117_800)">
<path d="M60.6589 17.8567C63.3897 17.9179 65.9785 18.7273 67.9177 20.6412C69.8603 22.5447 70.7141 25.1146 70.8243 27.8399C70.9338 30.5507 70.321 33.5564 69.1875 36.6353C68.2807 39.0983 67.0123 41.6798 65.4251 44.2944C67.0594 46.8804 68.3735 49.439 69.3246 51.8856C70.5134 54.9438 71.18 57.9378 71.1193 60.6501C71.0582 63.3768 70.2493 65.9609 68.3416 67.899L68.3426 67.9C66.4381 69.8485 63.8644 70.7052 61.1351 70.8155C58.4242 70.925 55.4187 70.3123 52.3397 69.1787C49.8764 68.2718 47.2945 67.0038 44.6796 65.4163C42.094 67.0503 39.5356 68.3649 37.0894 69.3158C34.0314 70.5045 31.0371 71.1712 28.3249 71.1105C25.598 71.0493 23.0131 70.2409 21.075 68.3328C19.1266 66.4284 18.2707 63.8555 18.1605 61.1263C18.051 58.4155 18.6628 55.4099 19.7963 52.3309C20.7031 49.8678 21.9704 47.2856 23.5577 44.6708C21.9239 42.0854 20.6101 39.5267 19.6592 37.0806C18.4706 34.0226 17.8048 31.0283 17.8655 28.3161C17.9267 25.5856 18.7364 22.9973 20.65 21.0583C22.5535 19.1158 25.1235 18.2619 27.8487 18.1517C30.5594 18.0422 33.5652 18.6541 36.6441 19.7875C39.1069 20.6942 41.6888 21.9619 44.3032 23.5489C46.889 21.9148 49.448 20.6014 51.8944 19.6504C54.9525 18.4617 57.9466 17.796 60.6589 17.8567ZM23.5577 44.6708C22.6428 46.3522 25.0604 52.5057 24.4888 54.0584C23.5009 56.7418 23.0811 59.0707 23.1559 60.9241C23.2254 62.6448 23.7085 63.8256 24.4245 64.6072L24.5703 64.7582L24.5792 64.766L24.7329 64.9101C25.5272 65.6115 26.716 66.0727 28.4372 66.1112C30.2916 66.1528 32.6126 65.6912 35.2779 64.6551C36.8202 64.0556 38.4399 63.2765 40.1048 62.3314C37.6881 60.5381 35.2856 58.493 32.9666 56.2254L32.9587 56.2176C30.6495 53.9395 25.3943 47.0553 23.5577 44.6708ZM62.3411 48.8702C60.5477 51.2871 58.502 53.6892 56.2342 56.0084L56.2264 56.0163C53.9484 58.3254 47.0639 63.5798 44.6796 65.4163C46.3612 66.3314 52.5143 63.9145 54.0671 64.4862C56.7506 65.4742 59.0795 65.8939 60.9329 65.8191C62.768 65.7449 63.9893 65.2004 64.767 64.4047L64.7748 64.3968L64.9189 64.2431C65.6205 63.4488 66.0815 62.2593 66.12 60.5378C66.1615 58.6834 65.7 56.3624 64.6639 53.6971C64.0644 52.1548 63.2863 50.535 62.3411 48.8702ZM44.3571 29.5447C41.6712 31.476 38.9478 33.7937 36.3164 36.4611C33.7001 39.1375 31.4343 41.8994 29.5535 44.6169C31.483 47.3004 33.7977 50.0216 36.462 52.6508L37.0186 53.1879C39.5229 55.5814 42.0933 57.6688 44.6257 59.4215C47.3119 57.4901 50.0357 55.1727 52.6674 52.5051C55.2839 49.8284 57.5494 47.0661 59.4303 44.3483C57.5009 41.665 55.1859 38.9444 52.5218 36.3154L51.9662 35.7784C49.4615 33.3844 46.8899 31.2976 44.3571 29.5447ZM44.6584 44.4821C44.6576 44.3902 44.5828 44.3159 44.4909 44.3166C44.3988 44.3174 44.3246 44.393 44.3254 44.4851C44.3264 44.577 44.4019 44.6504 44.4939 44.6496C44.5857 44.6486 44.6591 44.5739 44.6584 44.4821ZM28.0509 23.1471C26.2159 23.2213 24.9954 23.7659 24.2177 24.5615L24.209 24.5704C23.4275 25.3623 22.9049 26.5924 22.8638 28.4284C22.8222 30.2828 23.2839 32.6038 24.3199 35.2691C24.9194 36.8113 25.6976 38.4314 26.6427 40.096C28.4361 37.6791 30.4818 35.277 32.7496 32.9578L32.7574 32.95L33.3391 32.3666C35.4368 30.2879 42.1213 25.2296 44.3032 23.5489C42.6218 22.634 36.4694 25.0517 34.9167 24.48C32.2332 23.4921 29.9043 23.0723 28.0509 23.1471ZM60.5466 22.855C58.6922 22.8135 56.3712 23.275 53.7059 24.3111C52.1638 24.9105 50.5436 25.6879 48.879 26.6329C51.0909 28.2742 53.2902 30.1272 55.4251 32.168L56.0172 32.7408L56.025 32.7486L56.6084 33.3303C58.687 35.4278 63.7445 42.1126 65.4251 44.2944C66.3402 42.6128 63.9233 36.4608 64.495 34.9079C65.4829 32.2244 65.9027 29.8955 65.8279 28.0421C65.7537 26.2071 65.2091 24.9866 64.4135 24.2089L64.4056 24.2002C63.6137 23.4186 62.3827 22.8961 60.5466 22.855ZM49.6582 44.4371C49.6837 47.2903 47.392 49.6236 44.5388 49.6494C41.6856 49.6751 39.3514 47.3833 39.3256 44.53C39.3 41.6767 41.5926 39.3425 44.4459 39.3168C47.2992 39.2913 49.6325 41.5839 49.6582 44.4371Z" fill="url(#paint7_linear_117_800)"/>
</g>
</g>
</g>
<defs>
<filter id="filter0_d_117_800" x="-2.13834" y="1.85288" width="93.2614" height="93.2614" filterUnits="userSpaceOnUse" color-interpolation-filters="sRGB">
<feFlood flood-opacity="0" result="BackgroundImageFix"/>
<feColorMatrix in="SourceAlpha" type="matrix" values="0 0 0 0 0 0 0 0 0 0 0 0 0 0 0 0 0 0 127 0" result="hardAlpha"/>
<feOffset dy="4"/>
<feGaussianBlur stdDeviation="10"/>
<feComposite in2="hardAlpha" operator="out"/>
<feColorMatrix type="matrix" values="0 0 0 0 0.207843 0 0 0 0 0.192157 0 0 0 0 0.635294 0 0 0 1 0"/>
<feBlend mode="normal" in2="BackgroundImageFix" result="effect1_dropShadow_117_800"/>
<feBlend mode="normal" in="SourceGraphic" in2="effect1_dropShadow_117_800" result="shape"/>
</filter>
<linearGradient id="paint0_linear_117_800" x1="166.128" y1="18.9883" x2="166.128" y2="78.9204" gradientUnits="userSpaceOnUse">
<stop stop-color="#0A0A0A"/>
<stop offset="1" stop-color="#16136C"/>
</linearGradient>
<linearGradient id="paint1_linear_117_800" x1="166.128" y1="18.9883" x2="166.128" y2="78.9204" gradientUnits="userSpaceOnUse">
<stop stop-color="#0A0A0A"/>
<stop offset="1" stop-color="#16136C"/>
</linearGradient>
<linearGradient id="paint2_linear_117_800" x1="166.128" y1="18.9883" x2="166.128" y2="78.9204" gradientUnits="userSpaceOnUse">
<stop stop-color="#0A0A0A"/>
<stop offset="1" stop-color="#16136C"/>
</linearGradient>
<linearGradient id="paint3_linear_117_800" x1="166.128" y1="18.9883" x2="166.128" y2="78.9204" gradientUnits="userSpaceOnUse">
<stop stop-color="#0A0A0A"/>
<stop offset="1" stop-color="#16136C"/>
</linearGradient>
<linearGradient id="paint4_linear_117_800" x1="166.128" y1="18.9883" x2="166.128" y2="78.9204" gradientUnits="userSpaceOnUse">
<stop stop-color="#0A0A0A"/>
<stop offset="1" stop-color="#16136C"/>
</linearGradient>
<linearGradient id="paint5_linear_117_800" x1="166.128" y1="18.9883" x2="166.128" y2="78.9204" gradientUnits="userSpaceOnUse">
<stop stop-color="#0A0A0A"/>
<stop offset="1" stop-color="#16136C"/>
</linearGradient>
<linearGradient id="paint6_linear_117_800" x1="43.6044" y1="0.00175739" x2="44.3956" y2="87.9982" gradientUnits="userSpaceOnUse">
<stop stop-color="#6B66FF"/>
<stop offset="1" stop-color="#3A33FF"/>
</linearGradient>
<linearGradient id="paint7_linear_117_800" x1="44.3475" y1="71.2168" x2="43.8712" y2="18.2443" gradientUnits="userSpaceOnUse">
<stop stop-color="#9ACDFF"/>
<stop offset="1" stop-color="#BADAFF"/>
</linearGradient>
<clipPath id="clip0_117_800">
<rect width="334" height="88" fill="white"/>
</clipPath>
<clipPath id="clip1_117_800">
<rect width="88" height="88" fill="white" transform="translate(-0.393799 0.397339) rotate(-0.515124)"/>
</clipPath>
</defs>
</svg>
