<svg width="168" height="64" viewBox="0 0 168 64" fill="none" xmlns="http://www.w3.org/2000/svg">
<g opacity="0.75" clip-path="url(#clip0_118_805)">
<path d="M50.6259 56.6368C49.6004 56.4338 48.6113 56.4599 47.6691 56.9854C47.4088 57.1311 47.0912 57.0791 46.7997 57.0739C46.175 57.1728 44.9048 57.2352 44.8267 57.0323C44.7486 56.72 44.733 56.413 44.8944 56.1164C45.3421 55.7053 45.9251 55.5752 46.4665 55.3619C46.8518 55.2578 47.2162 55.1069 47.5545 54.8936C48.1428 54.5189 48.5697 54.0297 48.6425 53.3064C48.7571 53.1503 48.8195 52.9734 48.8612 52.7861C49.3713 50.5745 49.7878 48.3577 49.741 46.0681C49.7149 44.736 49.8399 43.4038 50.0325 42.0821C50.147 41.312 50.2095 40.5314 50.2251 39.7509C50.2667 37.8099 50.3136 35.8689 50.3552 33.9279C50.3761 33.0797 50.3969 32.2315 50.4125 31.3834C50.4229 30.7485 50.4489 30.8526 49.9075 30.8266C49.6733 30.8162 49.4338 30.8266 49.2152 30.6809C48.9341 30.4935 48.7831 30.2594 48.7571 29.9211C48.7102 29.2967 48.705 28.6722 48.7883 28.053C48.8664 27.465 48.8456 26.877 48.8143 26.289C48.7935 25.8935 48.7675 25.4928 48.7727 25.0921C48.7779 24.7122 48.8456 24.348 49.0538 24.0097C49.3297 23.557 49.439 23.0575 49.4598 22.5267C49.5119 21.4027 49.7514 20.3099 50.0012 19.2172C50.2043 18.3377 50.3292 17.4531 50.2719 16.5477C50.2199 15.8035 50.2095 15.0594 50.2928 14.3153C50.324 14.0395 50.4177 13.8418 50.5843 13.6388C51.0476 13.0664 51.6098 12.6085 52.1929 12.1714C52.703 11.7863 53.2288 11.4169 53.765 11.063C53.9889 10.9173 54.1086 10.7612 54.1086 10.4802C54.1086 9.84014 54.1242 9.20009 54.1554 8.56004C54.1711 8.21659 54.0982 7.90437 53.8847 7.63378C53.3277 6.94169 53.0206 6.13512 52.8592 5.28692C52.7395 4.66248 52.7655 4.01202 52.8228 3.37197C52.9165 2.36766 53.5776 1.79526 54.3689 1.32172C54.5927 1.18122 55.1393 1.01991 55.5558 1.06154C55.9722 1.10837 56.1857 1.18643 56.4616 1.28009C56.6178 1.35815 56.7791 1.4258 56.9197 1.51946C57.5183 1.90974 57.5392 2.47174 56.9822 2.95568C56.9093 3.00251 56.826 3.05975 56.6698 2.97129C56.498 2.87242 56.4095 2.71631 56.3262 2.53938C56.0868 2.03463 55.3475 1.72241 54.8166 1.88372C54.499 1.98259 54.3585 2.43011 54.5407 2.78396C54.676 3.04414 54.9051 3.16903 55.1862 3.24708C55.8473 3.43962 56.4147 3.77265 56.7427 4.41271C56.7843 4.49076 56.8885 4.78217 56.9145 4.86543C56.9145 4.86543 56.9665 5.16204 56.852 5.24529C56.7375 5.32855 56.5032 5.1048 56.3939 5.05276C56.2794 5.00072 56.2273 5.05276 56.1649 5.1152C55.8525 5.45865 55.8681 5.86453 55.9774 6.27562C56.0347 6.48897 56.1232 6.69712 56.2169 6.89486C56.2794 7.03015 56.2898 7.16545 56.2533 7.29554C56.1701 7.60776 56.0087 7.67541 55.7119 7.5193C55.5766 7.44645 55.4569 7.33717 55.3215 7.25912C55.0456 7.10821 54.8947 7.18627 54.8894 7.49328C54.8738 8.27383 54.8894 9.27814 55.0144 10.0483C55.7328 10.0639 56.2846 9.83494 56.3783 9.59036C56.498 9.27294 56.8364 8.57565 56.9769 8.26863C57.1071 7.98763 57.206 7.95641 57.3778 8.19057C57.7578 8.72655 58.3044 8.80981 58.8875 8.84103C59.6319 8.88266 60.3815 8.85664 61.1103 8.69013C61.6882 8.56004 62.2139 8.68492 62.6877 8.99714C63.5206 9.54353 64.1296 10.2877 64.5617 11.1775C65.1864 12.4524 65.3374 13.847 65.5092 15.2311C65.6237 16.1366 65.681 17.0524 65.8736 17.9475C66.0089 18.5927 65.9829 19.2588 66.0141 19.9145C66.1182 22.0271 66.0089 24.1398 65.9204 26.2525C65.9152 26.4086 65.8788 26.5595 65.8632 26.7157C65.8163 27.0747 65.8111 27.4182 66.2484 27.5899C66.113 27.8657 65.8423 27.8657 65.6133 27.9906C65.8267 28.3288 66.0141 28.6774 66.2432 28.9897C66.4931 29.3799 66.3942 29.7598 66.3942 29.7598C66.3942 29.7598 66.2588 30.3686 66.1026 30.6496L68.7107 32.5282C68.7107 32.5282 68.9866 37.2635 68.9502 37.2687C68.8357 36.2176 68.4713 32.7155 68.4713 32.7155L63.2499 29.8014L63.8485 39.5219C63.8485 39.5219 68.9033 38.6529 68.9918 38.6373L69.0491 39.1264L63.6611 41.057C63.9735 43.5912 64.062 46.1566 64.291 48.7064C64.3171 49.0186 64.4056 49.3048 64.5669 49.5806C65.0146 50.3299 65.2697 51.1469 65.3114 52.0315C65.3634 53.0202 65.5092 53.9985 65.6601 54.9716C65.6966 55.1954 65.7486 55.4087 65.6289 55.6273C65.5196 55.8198 65.6081 55.9811 65.7799 56.0592C66.0766 56.1945 66.1651 56.4599 66.2015 56.7304C66.2952 57.4694 66.3213 58.1979 65.53 58.6298C65.4051 58.6974 65.4259 58.8379 65.3946 58.9524C65.1968 59.6601 64.9938 60.3626 64.6815 61.0287C64.645 61.0807 64.2129 61.8717 63.8173 62.1006C63.6715 62.2047 63.5414 62.2724 63.3332 62.3504C63.1093 62.4233 62.4013 62.4805 62.0838 62.3504C61.9641 62.2776 61.8079 62.0278 61.7975 61.9445C61.7923 61.8613 61.9745 61.1067 62.1567 60.7165C62.2712 60.4667 62.4066 60.2273 62.4846 59.9619C62.646 59.4051 62.6616 58.8535 62.2243 58.3904C62.1567 58.328 62.1306 58.1771 61.9849 58.2707L62.0161 58.2811L62.0317 58.2499C62.0109 57.7712 62.0161 57.2872 61.8391 56.8241C61.7662 56.6316 61.6673 56.5223 61.4487 56.4703C60.9125 56.3298 60.8292 56.2101 60.8656 55.6637C60.8865 55.2838 60.9437 54.904 61.001 54.5293C61.0426 54.2899 60.9593 54.1807 60.7251 54.1338C60.3242 54.0506 60.2358 53.9673 60.2253 53.551C60.1941 52.4218 59.8922 51.3342 59.6891 50.2363C59.3768 48.5815 58.9812 46.9371 58.674 45.2772C58.3929 43.7733 58.0702 42.2746 57.7162 40.7864C57.3049 39.0692 56.9041 37.352 56.498 35.6348C56.4095 35.2549 56.3106 34.875 56.0711 34.5524C56.0555 34.4951 56.0295 34.4483 55.9566 34.4847C55.6182 34.516 55.6963 34.8178 55.6651 34.9999C55.561 35.6139 55.5193 36.2384 55.4256 36.8524C55.3163 37.5809 55.3476 38.3303 55.0456 39.038C54.9779 39.1993 54.9155 39.4126 54.9155 39.6312C54.9051 40.2192 54.8634 40.8072 54.7957 41.39C54.7385 41.8688 54.6812 42.3579 54.5198 42.8054C54.2075 43.6744 54.0669 44.5695 54.0617 45.4853C54.0617 45.9224 53.9993 46.3439 53.9212 46.7706C53.7494 47.7125 53.4162 48.6179 53.3017 49.5702C53.0726 51.4331 53.0778 53.3012 53.1403 55.1693C53.057 55.2266 52.9737 55.2994 52.88 55.3359C52.6978 55.4035 52.6301 55.5128 52.6145 55.7157C52.5729 56.3454 52.3542 56.5639 51.7243 56.6108C51.3443 56.6368 50.9851 56.6316 50.6259 56.6368ZM54.6968 11.5782C54.6968 11.5782 54.5875 11.5834 54.4834 11.6146C53.7806 11.8748 53.4266 12.4368 53.2496 13.1133C53.1924 13.3266 53.0987 13.4463 52.9425 13.5556C52.6978 13.7325 52.4532 13.9146 52.1668 14.1228C52.5364 14.1436 52.6562 14.1332 52.9008 14.2529C52.7863 14.6691 52.7343 15.1011 52.828 15.5278C53.0987 16.6986 53.8743 19.3212 54.0461 19.4565C54.0045 18.957 54.0045 17.3699 54.093 16.5685C54.2023 15.5902 54.3376 14.6171 54.6135 13.67C54.6916 13.3995 54.6968 13.1965 54.5042 12.9571C54.2127 12.5877 54.1554 12.1714 54.4782 11.7655C54.5875 11.651 54.6968 11.5782 54.6968 11.5782ZM58.0285 29.6401C58.0285 29.6401 58.143 31.4406 58.1274 32.2732C58.1222 32.5542 58.1899 32.7675 58.4033 32.9601C58.7365 33.2619 58.8979 33.6417 58.9083 34.1101C58.9239 34.7501 58.9812 35.3902 59.0749 36.025C59.1425 36.4777 59.2519 36.9357 59.4289 37.3572C59.5538 37.6486 59.6475 37.9348 59.6943 38.2418C59.8245 39.0692 59.8037 39.9018 59.7204 40.7292C59.6996 40.9269 59.6475 41.1142 59.8193 41.312C60.2045 41.7595 60.3659 42.3007 60.4336 42.8835C60.496 43.4559 60.5117 44.0231 60.5012 44.5955C60.4856 45.3604 60.4596 46.1202 60.444 46.8851C60.4388 47.0152 60.3815 47.2181 60.5585 47.2389C60.9437 47.2858 60.9073 47.5616 60.9177 47.8114C60.9593 48.6439 60.9906 49.4765 61.0426 50.3039C61.0739 50.8399 61.1155 51.3759 61.2717 51.8806C61.6569 51.9118 61.7662 51.5632 61.9849 51.3707C62.1254 51.2458 62.292 51.1573 62.4482 51.2614C62.6304 51.3811 62.6304 51.5944 62.5315 51.7766C62.4326 51.9587 62.2972 52.12 62.1827 52.2969C61.9849 52.6195 61.7142 52.9214 61.6934 53.3116C61.6465 54.2275 61.6829 55.1381 62.1515 55.9759C62.4274 56.4703 62.8178 56.6316 63.3592 56.4234C63.6195 56.3246 63.7913 56.158 63.7861 55.8458C63.7809 55.4816 63.8381 55.1173 63.8225 54.7531C63.7861 53.8528 64.0307 53.0358 64.4108 52.2293C64.7283 51.558 64.8168 50.8399 64.4784 50.127C64.2546 49.6482 64.062 49.6222 63.7496 50.0385C63.5935 50.2467 63.4581 50.4704 63.2863 50.663C63.1406 50.8243 62.9792 50.7931 62.9375 50.5953C62.849 50.1686 62.8022 49.7055 63.0521 49.336C63.4425 48.748 63.5778 48.0767 63.7444 47.4211C63.9266 46.6926 63.8746 45.938 63.859 45.1939C63.8433 44.6059 63.682 44.0751 63.3228 43.612C63.151 43.3882 63.0885 43.1332 63.0208 42.8679C62.8803 42.3319 62.7605 41.8271 62.6616 41.2859C62.6096 40.9997 62.6356 40.8384 62.5159 40.8332C62.1567 40.8072 60.6991 40.5991 60.6991 40.5991L59.7933 29.6974L58.0285 29.6401ZM62.4482 17.6509C62.7709 19.1339 63.0312 20.6274 62.9219 22.152C62.8959 22.5527 62.9375 22.9482 63.0312 23.3333C63.2186 24.1034 63.3332 24.8892 63.3176 25.6853C63.3124 26.2213 63.3488 26.7573 63.4477 27.2829C63.4321 27.3505 63.4581 27.3817 63.531 27.3609C63.6351 27.3817 63.7288 27.3661 63.8329 27.3401C64.2858 27.2308 64.6919 26.9602 65.1604 26.929C65.4467 26.9082 65.5144 26.7729 65.53 26.5023C65.6445 24.4416 65.5977 22.3758 65.6081 20.3151C65.6081 19.9873 65.5873 19.6543 65.4103 19.3629C65.1864 18.9882 65.1656 18.5823 65.202 18.1712C65.2541 17.5936 65.202 17.0316 65.1031 16.4644C65.0719 16.2771 65.025 16.095 65.0042 15.9076C64.9209 15.2416 64.8064 14.5807 64.6086 13.9354C64.291 12.8791 63.9735 11.8175 63.6195 10.7716C63.2186 9.57475 62.4222 9.11683 61.3654 9.13244C60.6522 9.14285 59.9546 9.16366 59.2519 9.04398C58.9655 8.99194 58.6949 9.03877 58.4502 9.18448C57.9556 9.47068 57.4715 9.7777 56.9769 10.0587C56.6594 10.2408 56.5136 10.4906 56.5293 10.8653C56.5449 11.1411 56.5032 11.4169 56.4772 11.6926C56.4095 12.442 56.5657 13.0976 57.2268 13.5556C57.2529 13.5764 57.2789 13.6024 57.2997 13.6284C57.5236 13.8782 57.534 14.1228 57.2789 14.3517C57.0394 14.5703 56.826 14.8149 56.5449 14.997C56.2065 15.2103 55.8629 15.4029 55.5089 15.5902C55.0144 15.8556 54.9259 16.2563 55.3371 16.6309C55.8057 17.0576 55.915 17.552 55.8265 18.1348C55.7848 18.395 55.8681 18.5251 56.1128 18.6448C56.5657 18.8685 56.6854 19.2536 56.5345 19.7375C56.446 20.0185 56.3158 20.2787 56.1649 20.5285C55.6391 21.4027 55.6339 21.4756 56.2794 22.2665C56.7583 22.8545 57.0967 23.5102 57.2581 24.2387C57.3986 24.8736 57.4923 25.524 57.5183 26.1797C57.5496 27.0279 57.5912 28.2143 57.5756 29.0625C57.5756 29.0989 57.5548 29.0729 57.789 29.125C58.445 29.2707 59.1009 29.4216 59.7568 29.5725L59.736 29.0573L61.9693 28.641C61.5997 28.3496 61.2405 28.027 60.9073 27.7304C60.4232 27.3037 60.2722 26.8145 60.4856 26.1953C60.673 25.6593 60.8188 25.1077 60.9802 24.5665C61.0374 24.3844 61.1051 24.1763 61.0062 24.0097C60.673 23.4477 60.7459 22.8441 60.7667 22.2405C60.7772 21.8606 60.8136 21.4808 60.8344 21.1009C60.8709 20.4452 60.9802 19.8052 61.1207 19.1651C61.2769 18.473 61.381 17.7653 61.4227 17.0576C61.4487 16.5633 61.3966 16.0898 60.9593 15.7463C60.798 15.6162 60.6678 15.4341 60.6314 15.2259C60.4908 14.4402 60.3451 13.6544 60.3503 12.8583C60.3555 12.0673 60.6314 11.3232 60.8448 10.553C60.8761 11.0318 61.1624 11.8592 61.2925 11.9528C61.4747 12.0933 61.5632 11.8123 61.5632 11.8696C61.5632 12.1974 61.8079 12.8479 62.1619 12.4992C62.115 12.6397 62.0994 12.8062 61.8704 12.9884C61.6725 13.0664 61.8235 13.8314 61.8235 13.8314C61.8235 13.8314 62.0005 15.3821 62.0474 15.637C62.089 15.892 62.3649 17.2814 62.4482 17.6509ZM54.1763 4.2566C54.1919 4.63126 54.4313 5.01113 54.5875 5.06837C54.8166 5.15683 55.1393 4.94348 55.1393 4.94348C55.1393 4.94348 55.3267 4.84982 55.384 4.80819C55.7588 4.548 55.7328 4.17334 55.3319 3.95999C55.1601 3.86632 55.1601 3.89234 54.8009 3.77786C54.447 3.66858 54.1763 3.84551 54.1763 4.2566ZM64.7075 29.4944C64.5826 29.0313 64.3951 28.667 64.2286 28.2976C64.2077 28.2559 64.1557 28.2247 64.0984 28.2455C64.0412 28.2611 64.0203 28.3028 64.0203 28.3548C64.0099 28.5734 64.0255 28.7867 64.0047 29.0053C63.9839 29.229 64.3535 29.2603 64.5149 29.4268C64.5357 29.4476 64.5773 29.4528 64.7075 29.4944Z" fill="#F18800"/>
<path d="M48.6425 53.3064C48.5696 54.035 48.1428 54.5241 47.5545 54.8936C47.2161 55.1069 46.8517 55.2578 46.4665 55.3619C46.4405 55.1642 46.2739 55.1329 46.1334 55.0809C44.1916 54.4096 42.2499 53.7436 40.3081 53.0775C40.204 53.0411 40.1051 52.9318 39.9697 53.0619C40.1936 53.4053 40.5476 53.5979 40.8651 53.8216C42.026 54.6386 43.2702 55.3151 44.504 56.0019C44.6289 56.0696 44.759 56.1112 44.8996 56.106C44.733 56.3974 44.7486 56.7097 44.8319 57.0219C44.4415 57.0739 44.0771 56.9646 43.7127 56.8606C42.5778 56.5327 41.5002 56.0592 40.4278 55.5857C38.6423 54.7947 36.8983 53.8997 35.0867 53.1711C34.915 53.1035 34.764 53.0723 34.587 53.1399C33.8894 53.4157 33.1866 53.3221 32.4995 53.1243C31.5 52.8381 30.5525 52.4062 29.6311 51.9275C29.1886 51.6985 28.7253 51.5008 28.2724 51.277C27.6217 50.9596 27.6217 50.9492 27.9965 50.3091C27.7206 50.0333 27.3302 49.9553 26.9866 49.82C25.7841 49.3412 24.5867 48.8417 23.3998 48.3109C22.8064 48.0455 22.1765 47.9363 21.557 47.7958C20.3024 47.52 19.0999 47.0829 17.9286 46.5677C16.1378 45.7819 14.347 45.0066 12.5667 44.1896C11.4006 43.6536 10.2241 43.1541 9.03196 42.6909C8.8862 42.6337 8.74565 42.5609 8.6155 42.4776C8.45933 42.3787 8.46974 42.233 8.64674 42.181C8.94347 42.0925 9.2454 42.0145 9.56295 42.0405C9.64624 42.0457 9.73474 42.0353 9.81803 42.0301C9.83365 41.8271 9.67227 41.8584 9.57336 41.8167C8.08452 41.2495 6.54882 40.8332 5.03915 40.3285C4.11774 40.0215 3.20152 39.704 2.34257 39.2513C2.20202 39.1785 2.06667 39.1056 1.90009 39.1316C1.90009 39.0276 1.90009 38.9235 1.90009 38.8194C3.5451 38.7726 5.06518 39.3034 6.57485 39.8601C8.00123 40.3857 9.35993 41.0882 10.8123 41.5618C11.6713 41.8428 12.5563 41.9885 13.436 42.1446C15.2841 42.4672 17.1581 42.6649 18.9854 43.1333C20.4742 43.5131 21.9526 43.9398 23.4207 44.403C26.2266 45.2928 28.9752 46.3335 31.7134 47.4107C32.0674 47.5512 32.437 47.6553 32.7858 47.8062C33.1502 47.9623 33.5042 47.9987 33.8894 47.8738C34.6703 47.6136 35.4251 47.8374 36.18 48.0403C36.5339 48.134 36.8723 48.2693 37.1951 48.441C37.825 48.774 38.4757 49.0498 39.1368 49.3152C39.5949 49.4974 39.5273 49.6222 39.2045 49.7992C39.116 49.8512 39.0379 49.9241 38.9859 50.0906C39.4388 50.2571 39.9021 50.4288 40.3602 50.6005C41.9687 51.1938 43.6242 51.6361 45.2588 52.1356C46.201 52.4218 47.1172 52.7913 48.0439 53.1295C48.2365 53.2232 48.4239 53.3221 48.6425 53.3064Z" fill="#DADADA"/>
<path d="M62.2191 58.3956C62.6564 58.864 62.6408 59.4104 62.4794 59.9671C62.4065 60.2273 62.266 60.4719 62.1515 60.7217C61.9693 61.112 61.8651 61.5282 61.7923 61.9497C61.3966 61.7208 61.1936 61.3149 61.0218 60.935C60.6678 60.1441 60.0588 59.7122 59.2675 59.452C57.1539 58.7547 55.0404 58.073 52.9061 57.433C52.1356 57.1988 51.3495 56.9854 50.6207 56.6316C50.9799 56.6212 51.3391 56.6316 51.6983 56.6056C52.3282 56.5587 52.5469 56.3402 52.5885 55.7105C52.6041 55.5076 52.6666 55.3983 52.854 55.3307C52.9477 55.2942 53.0258 55.2214 53.1143 55.1642C53.3277 55.1537 53.5151 55.2526 53.7129 55.3099C54.3064 55.492 54.8946 55.6897 55.4881 55.8666C57.4715 56.4703 59.4549 57.0583 61.2925 58.047C61.5164 58.1667 61.7454 58.2968 62.0213 58.2499L62.0057 58.2812L61.9745 58.2707C62.0213 58.3956 62.1202 58.3956 62.2191 58.3956Z" fill="#DADADA"/>
<path d="M87.9199 25.0349H84.7392C84.7392 24.348 84.7653 23.6819 84.8173 23.0211C84.3384 22.943 83.8907 22.8598 83.4378 22.8598C79.065 22.8598 76.5506 26.4607 76.5506 30.249C76.5506 32.2108 77.5865 33.9019 80.4185 33.9019C81.1056 33.9019 81.798 33.8239 82.4591 33.6366L83.0161 30.7485C82.2457 30.6965 81.4804 30.5612 80.8714 30.4051L81.4023 27.8084H88.8726L88.3676 30.4831L87.0402 30.7225L85.9522 36.4986C84.0729 37.2427 81.7407 37.6382 79.7001 37.6382C74.3746 37.6382 72.1465 34.8282 72.1465 30.8318C72.1465 24.2908 76.889 19.2016 83.8074 19.2016C85.6346 19.2016 87.3317 19.4149 88.9194 19.8364L87.9199 25.0349Z" fill="#162B45"/>
<path d="M103.605 37.1386C101.7 37.352 99.711 37.456 97.7484 37.378C97.9618 36.3997 98.2534 35.3381 98.7531 33.9332H98.7011C97.535 35.8377 95.8379 37.6694 93.563 37.6694C91.4963 37.6694 90.3823 36.3164 90.3823 33.4856C90.3823 28.4277 93.1621 23.8953 98.9405 23.8953C100.612 23.8953 102.335 24.0254 103.974 24.348L102.069 34.2818C102.652 34.4119 103.365 34.5212 104.084 34.5472L103.605 37.1386ZM98.2534 27.0747C95.765 27.0747 94.4896 30.2802 94.4896 32.7155C94.4896 33.7198 94.7291 34.1725 95.2601 34.1725C96.7437 34.1725 98.8364 30.4623 99.3414 27.9489L99.4715 27.236C99.1279 27.1528 98.7271 27.0747 98.2534 27.0747Z" fill="#162B45"/>
<path d="M116.749 27.8136C114.469 27.1268 112.486 30.0668 111.611 34.568L111.106 37.3468H107.134L109.097 27.2568C108.54 27.1528 107.769 27.0435 107.082 26.9915L107.613 24.3688C109.467 24.1555 111.481 24.0774 113.392 24.1555C113.204 25.1077 112.939 26.1433 112.413 27.5743H112.465C113.819 25.0297 115.302 23.4946 117.686 23.9473L116.749 27.8136Z" fill="#162B45"/>
<path d="M130.05 34.2766C130.633 34.4067 131.346 34.516 132.065 34.542L131.56 37.1386C129.654 37.352 127.692 37.456 125.755 37.378C125.917 36.4257 126.234 35.3381 126.734 33.9332H126.682C125.516 35.8377 123.819 37.6694 121.544 37.6694C119.477 37.6694 118.363 36.3164 118.363 33.4856C118.363 28.4277 121.143 23.8953 126.921 23.8953C127.265 23.8953 127.583 23.9213 128.061 23.9993L128.618 21.0853C128.009 20.9812 127.161 20.8719 126.39 20.8199L126.869 18.2233C128.806 18.0099 130.977 17.9058 133.174 17.9839L130.05 34.2766ZM126.234 27.0747C123.746 27.0747 122.471 30.2802 122.471 32.7155C122.471 33.7198 122.71 34.1725 123.241 34.1725C124.725 34.1725 126.817 30.4623 127.322 27.9489L127.452 27.236C127.109 27.1528 126.708 27.0747 126.234 27.0747Z" fill="#162B45"/>
<path d="M141.175 37.1386C139.186 37.378 137.093 37.43 135.079 37.378L137.067 27.2048C136.458 27.1007 135.823 27.0435 135.053 26.9915L135.584 24.3688C137.572 24.1815 139.613 24.0774 141.596 24.1555L139.66 34.2974C140.243 34.4015 141.17 34.5108 141.649 34.5368L141.175 37.1386ZM140.196 22.6516C138.817 22.6516 137.89 21.59 137.89 20.4244C137.89 18.9674 139.134 17.8798 140.488 17.8798C141.867 17.8798 142.794 18.9414 142.794 20.0758C142.794 21.59 141.55 22.6516 140.196 22.6516ZM147.51 38.0909C146.849 41.5878 145.048 43.841 141.071 43.841C140.436 43.841 139.774 43.7369 139.243 43.5756L140.092 40.1568C140.514 40.3441 141.045 40.4482 141.419 40.4482C142.664 40.4482 143.221 39.7613 143.616 37.7995L145.631 27.2568C145.022 27.1528 144.303 27.0435 143.59 26.9915L144.121 24.3948C145.948 24.1815 147.989 24.0774 150.165 24.1555L147.51 38.0909ZM148.78 22.6516C147.401 22.6516 146.474 21.59 146.474 20.4244C146.474 18.9674 147.718 17.8798 149.098 17.8798C150.451 17.8798 151.404 18.9414 151.404 20.0758C151.404 21.59 150.134 22.6516 148.78 22.6516Z" fill="#162B45"/>
<path d="M166.428 37.1647C164.523 37.404 162.586 37.4561 160.384 37.378L161.946 29.1926C162.211 27.8657 161.998 27.3661 161.389 27.3661C160.061 27.3661 157.89 30.837 157.333 33.699L156.646 37.352H152.669L154.606 27.2621C154.023 27.158 153.361 27.0487 152.617 26.9967L153.148 24.374C155.053 24.1607 156.99 24.0826 158.978 24.1607C158.817 24.9048 158.583 25.9872 157.974 27.5535H158.026C159.218 25.5136 160.863 23.8693 163.221 23.8693C165.819 23.8693 166.558 25.7218 166.084 28.1883L164.918 34.3026C165.501 34.4327 166.246 34.542 166.907 34.568L166.428 37.1647Z" fill="#162B45"/>
<path d="M27.148 35.1248C27.7571 35.2549 28.5275 35.3642 29.2667 35.3902L28.9231 37.1386C27.4395 37.2999 25.6643 37.404 24.0766 37.326C24.264 36.2384 24.7117 34.6773 25.4301 32.5074L25.378 32.4813C24.3733 34.4691 22.4628 37.6174 19.5216 37.6174C17.559 37.6174 16.5022 36.3477 16.5022 33.5377C16.5022 28.6358 19.0999 23.9473 24.8731 23.9473C25.4301 23.9473 25.909 23.9733 26.5181 24.0514L27.2313 20.1851C26.6482 20.081 25.7997 19.9717 25.0345 19.9197L25.378 18.1712C26.8617 18.0099 28.7722 17.9059 30.438 17.9839L27.148 35.1248ZM24.3629 26.1485C20.8386 26.1485 19.355 29.9888 19.355 33.0329C19.355 34.542 19.8079 35.1768 20.5471 35.1768C22.7752 35.1768 25.3156 30.3322 25.8986 27.3349L26.06 26.3826C25.5863 26.2525 25.0553 26.1485 24.3629 26.1485Z" fill="#162B45"/>
<path d="M45.7481 37.1386C44.3165 37.3 42.4633 37.404 40.9016 37.326C41.0317 36.5038 41.3805 35.0988 42.1978 32.6375L42.1457 32.6114C40.9276 35.2081 38.965 37.6174 36.3153 37.6174C33.827 37.6174 33.0044 35.8429 33.5354 33.1682L34.8317 26.3618C34.2226 26.2578 33.4521 26.1485 32.765 26.0964L33.1086 24.348C34.5662 24.1867 36.4194 24.0826 38.0124 24.1607L36.4246 32.5022C36.055 34.3807 36.3986 35.1769 37.4033 35.1769C39.5481 35.1769 42.1197 30.4623 42.7288 27.2829L42.8902 26.3306C42.3592 26.2526 41.62 26.1433 40.9536 26.0912L41.2712 24.3428C42.6767 24.1815 44.53 24.0774 46.0657 24.1555L43.973 35.1248C44.556 35.2289 45.4045 35.3382 46.0657 35.3902L45.7481 37.1386Z" fill="#162B45"/>
</g>
<defs>
<clipPath id="clip0_118_805">
<rect width="168" height="64" fill="white"/>
</clipPath>
</defs>
</svg>
