<svg viewBox="0 0 500 409" fill="none" xmlns="http://www.w3.org/2000/svg"><path d="M53.33 78.74c43.31-50 130-79.94 180.74-44a83.504 83.504 0 0127.23 32.87c-5-20.54-16-39.11-33.92-51.84-50.78-36-137.43-6-180.74 44-50.11 57.81-57.71 124-33 183.88-16-54.65-5.23-113.14 39.65-164.91m194.33 111.17a4.362 4.362 0 005.65 6.46 15.341 15.341 0 003.8-3.12l1.14-1.32c36.45-42 124-66.33 174.77-30.34 16.51 11.71 26.4 28.43 30.79 47.36a75.17 75.17 0 00-24.11-28.4c-49.36-35-133.95-12.53-172.08 27.37a22.007 22.007 0 01-38.637-12.666 22.008 22.008 0 015.247-16.004l2.29-2.77c23.55-27.18 34-71.29 24.82-108.81 18.12 38.28 10.53 89.74-13.69 122.24" fill="#ce0e2d"/><path d="M61.32 398.47a.998.998 0 01-1-1V366.6a1.047 1.047 0 01.28-.8 1 1 0 01.76-.29H72.8a13.672 13.672 0 015.72 1.11 8.46 8.46 0 013.76 3.27 11.359 11.359 0 010 10.74 8.46 8.46 0 01-3.76 3.27 13.672 13.672 0 01-5.72 1.11h-9.51v12.42a1.002 1.002 0 01-.29.76 1.042 1.042 0 01-.8.28h-.88zm1.93-16.29h9.27c2.733 0 4.767-.597 6.1-1.79a7.58 7.58 0 000-10.26c-1.34-1.2-3.37-1.79-6.1-1.79h-9.27v13.84zm32.58 16.76a9.239 9.239 0 01-4.17-.94 8.422 8.422 0 01-3.08-2.52 5.768 5.768 0 01-1.18-3.55 6.09 6.09 0 012.59-5.14 14.398 14.398 0 016.73-2.49l7.44-1v-1.64a5.143 5.143 0 00-1.53-3.94c-1.04-.98-2.663-1.47-4.87-1.47a7.28 7.28 0 00-4 1 5.05 5.05 0 00-2.07 2.52.902.902 0 01-.89.71h-.73a.993.993 0 01-.8-.31 1.14 1.14 0 01-.23-.73 3.799 3.799 0 01.49-1.64 7 7 0 011.53-2 8.63 8.63 0 012.69-1.62 10.737 10.737 0 014-.66 12.112 12.112 0 014.59.75 7.068 7.068 0 012.82 2 6.995 6.995 0 011.44 2.66c.275.932.416 1.898.42 2.87v15.67a.997.997 0 01-1 1h-.8a.997.997 0 01-1-1v-2.22a8.067 8.067 0 01-1.6 1.7 9.135 9.135 0 01-2.66 1.43 11.874 11.874 0 01-4.13.56zm.47-2.73a8.318 8.318 0 004-.94 6.816 6.816 0 002.85-2.9 10.174 10.174 0 001.06-4.92v-1.6l-6.07.85a14.592 14.592 0 00-5.84 1.79 3.73 3.73 0 00-2 3.2 3.62 3.62 0 00.9 2.54 5.434 5.434 0 002.28 1.49 8.361 8.361 0 002.82.53v-.04zm25.23 2.73a9.25 9.25 0 01-4.16-.94 8.542 8.542 0 01-3.09-2.52 5.816 5.816 0 01-1.17-3.55 6.094 6.094 0 012.59-5.14 14.395 14.395 0 016.73-2.49l7.44-1v-1.64a5.137 5.137 0 00-1.53-3.94c-1.02-.953-2.647-1.43-4.88-1.43a7.235 7.235 0 00-3.95 1 5 5 0 00-2.07 2.52.912.912 0 01-.9.71h-.75a.935.935 0 01-.8-.31 1.139 1.139 0 01-.24-.73 3.844 3.844 0 01.5-1.64 6.996 6.996 0 011.53-2 8.574 8.574 0 012.68-1.62 10.78 10.78 0 014-.66 11.994 11.994 0 014.61.69 7.185 7.185 0 012.83 2 7.27 7.27 0 011.44 2.66c.275.932.416 1.898.42 2.87v15.67c.011.28-.09.554-.28.76a.993.993 0 01-.76.28h-.8a.997.997 0 01-1-1v-2.24a8.067 8.067 0 01-1.6 1.7 9.135 9.135 0 01-2.66 1.43 11.921 11.921 0 01-4.13.56zm.47-2.73a8.33 8.33 0 004-.94 6.878 6.878 0 002.85-2.9 10.297 10.297 0 001.06-4.92v-1.6l-6.08.85a14.545 14.545 0 00-5.83 1.79 3.733 3.733 0 00-2 3.2 3.661 3.661 0 00.89 2.54 5.532 5.532 0 002.29 1.49 8.357 8.357 0 002.82.53v-.04zm19.68 2.26a.997.997 0 01-1-1v-22.4c-.01-.286.09-.565.28-.78a1.008 1.008 0 01.75-.3h.76a1 1 0 011.08 1.08v2.18a5.43 5.43 0 012.45-2.45 8.815 8.815 0 013.95-.8h1.75a.997.997 0 011 1v.66a.997.997 0 01-1 1h-2a5.694 5.694 0 00-6.12 6.12v14.59a1.007 1.007 0 01-.31.76 1.074 1.074 0 01-.77.28l-.82.06zm24.2.47a9.93 9.93 0 01-4.63-1 8.614 8.614 0 01-3.09-2.63 11.391 11.391 0 01-1.72-3.68 18.926 18.926 0 01-.63-4.09c0-.47-.05-.91-.05-1.32 0-.41 0-.85.05-1.32.061-1.385.273-2.76.63-4.1a11.456 11.456 0 011.72-3.67 8.614 8.614 0 013.09-2.63 9.93 9.93 0 014.63-1 9.694 9.694 0 014.83 1.08 9.859 9.859 0 013.08 2.64v-11.14a1 1 0 01.635-.974 1 1 0 01.405-.066h.8a.997.997 0 011 1v31.35a.994.994 0 01-.29.76.995.995 0 01-.75.28h-.8a1.01 1.01 0 01-.75-.28.996.996 0 01-.29-.76v-2.14a9.305 9.305 0 01-3.08 2.66 9.814 9.814 0 01-4.79 1.03zm.29-2.73a6.884 6.884 0 004.33-1.27 7.81 7.81 0 002.45-3.18c.518-1.216.803-2.519.84-3.84v-3.67a9.606 9.606 0 00-.87-3.72 7.717 7.717 0 00-2.47-3.06 8.257 8.257 0 00-8.64 0 6.828 6.828 0 00-2.33 3.2 14.265 14.265 0 00-.8 4.24v2.64c.05 1.446.32 2.876.8 4.24a6.828 6.828 0 002.33 3.2 7.121 7.121 0 004.36 1.26v-.04zm27.73 2.73a9.237 9.237 0 01-7.25-3 12.824 12.824 0 01-3.06-7.84v-3.76a14.41 14.41 0 011.5-5.65 9.474 9.474 0 013.51-3.82 10.004 10.004 0 015.3-1.36 10.222 10.222 0 015.6 1.46 9.492 9.492 0 013.56 4.19 15.53 15.53 0 011.24 6.49v.71a.997.997 0 01-.3.75 1.12 1.12 0 01-.78.29h-16.76v.47a10.36 10.36 0 001 4 7.886 7.886 0 002.54 3.11 6.46 6.46 0 003.91 1.2 7.994 7.994 0 003.36-.61 8.567 8.567 0 002.15-1.34 6.314 6.314 0 001-1.11c.165-.288.39-.537.66-.73.238-.094.494-.135.75-.12h.76c.267-.003.525.089.73.26a.736.736 0 01.26.68 3.51 3.51 0 01-.73 1.63 9.197 9.197 0 01-1.93 1.91 11.246 11.246 0 01-3 1.55 12.262 12.262 0 01-4.02.64zm-7.44-14.17h15v-.19a9.87 9.87 0 00-.89-4.24 7.59 7.59 0 00-10.67-3 7.131 7.131 0 00-2.54 3 10.001 10.001 0 00-.87 4.24l-.03.19zm25.61 13.7a.997.997 0 01-1-1v-22.45a.997.997 0 011-1h.8a.997.997 0 011 1v2.23a10.437 10.437 0 013.08-2.69 9.726 9.726 0 014.83-1 9.583 9.583 0 015.34 1.39 8.524 8.524 0 013.21 3.76 13.265 13.265 0 011.05 5.39v13.37a.997.997 0 01-1 1h-.8a.992.992 0 01-.75-.28.996.996 0 01-.29-.76V384.3a8.816 8.816 0 00-1.83-5.91 6.682 6.682 0 00-5.37-2.14 7.089 7.089 0 00-2.923.495 7.086 7.086 0 00-2.467 1.645 8.192 8.192 0 00-2 5.91v13.13a.997.997 0 01-1 1l-.88.04zm34.94 0a1.78 1.78 0 01-1.16-.33 2.27 2.27 0 01-.63-.85l-8.67-21.84a1.706 1.706 0 01-.09-.52.999.999 0 01.94-.94h1a.995.995 0 01.73.26c.135.122.24.272.31.44l7.95 20.34 8-20.34c.089-.161.2-.309.33-.44a.917.917 0 01.7-.26h1a.902.902 0 01.66.28.908.908 0 01.29.66 1.775 1.775 0 01-.1.52l-8.72 21.8a1.71 1.71 0 01-1.79 1.18l-.75.04zm25.51.47a9.238 9.238 0 01-7.25-3 12.824 12.824 0 01-3.06-7.84v-3.76c.112-1.967.626-3.89 1.51-5.65a9.474 9.474 0 013.51-3.82 9.94 9.94 0 015.29-1.36c1.972-.064 3.92.443 5.61 1.46a9.47 9.47 0 013.55 4.19 15.518 15.518 0 011.25 6.49v.71a1 1 0 01-.31.75 1.08 1.08 0 01-.77.29h-16.78v.47a10.514 10.514 0 001 4 7.999 7.999 0 002.55 3.11 6.428 6.428 0 003.9 1.2 8.09 8.09 0 003.37-.61 8.497 8.497 0 002.18-1.32c.375-.33.71-.703 1-1.11.165-.288.39-.537.66-.73.238-.095.494-.136.75-.12h.75c.267-.006.527.087.73.26a.716.716 0 01.26.68 3.405 3.405 0 01-.73 1.63 8.986 8.986 0 01-1.93 1.91 10.988 10.988 0 01-3 1.55c-1.303.43-2.668.64-4.04.62zm-7.45-14.17h15v-.19a9.726 9.726 0 00-.9-4.24 7.172 7.172 0 00-2.59-3 7.297 7.297 0 00-4.05-1.1 7.146 7.146 0 00-4 1.1 7.06 7.06 0 00-2.54 3 9.86 9.86 0 00-.87 4.24l-.05.19zm25.53 13.7a.997.997 0 01-1-1v-22.4c-.01-.286.09-.565.28-.78a1.008 1.008 0 01.75-.3h.76a1 1 0 011.08 1.08v2.18a5.383 5.383 0 012.45-2.45 8.788 8.788 0 013.95-.8h1.74a.997.997 0 011 1v.66a.997.997 0 01-1 1h-2a5.694 5.694 0 00-6.12 6.12v14.59a1.007 1.007 0 01-.31.76 1.074 1.074 0 01-.77.28l-.81.06zm15.02 0a.997.997 0 01-1-1v-.79a1.53 1.53 0 01.21-.76c.134-.241.281-.475.44-.7l13.8-18.5h-13a.997.997 0 01-1-1v-.66a.997.997 0 011-1h15.82a.995.995 0 01.75.28.989.989 0 01.29.75v.8c0 .258-.073.511-.21.73l-.45.73-13.75 18.46h14.31a.997.997 0 011 1v.65a.997.997 0 01-1 1l-17.21.01zm33.15.47a9.237 9.237 0 01-7.25-3 12.824 12.824 0 01-3.06-7.84c0-.47-.05-1.09-.05-1.88 0-.79 0-1.41.05-1.88a14.41 14.41 0 011.5-5.65 9.474 9.474 0 013.51-3.82 10.004 10.004 0 015.3-1.36 10.222 10.222 0 015.6 1.46 9.405 9.405 0 013.55 4.19 15.375 15.375 0 011.25 6.49v.71a.997.997 0 01-.3.75 1.12 1.12 0 01-.78.29h-16.76v.47a10.36 10.36 0 001 4 7.886 7.886 0 002.54 3.11 6.46 6.46 0 003.91 1.2 7.994 7.994 0 003.36-.61 8.567 8.567 0 002.15-1.34 6.757 6.757 0 001-1.11c.165-.288.39-.537.66-.73.238-.094.494-.135.75-.12h.76c.267-.003.525.089.73.26a.736.736 0 01.26.68 3.612 3.612 0 01-.73 1.63 9.197 9.197 0 01-1.93 1.91 11.246 11.246 0 01-3 1.55 12.262 12.262 0 01-4.02.64zm-7.44-14.17h15v-.19a9.87 9.87 0 00-.89-4.24 7.59 7.59 0 00-10.67-3 7.131 7.131 0 00-2.54 3 10.001 10.001 0 00-.87 4.24l-.03.19zm25.56 13.7a.997.997 0 01-1-1v-31.39a.995.995 0 01.28-.75.989.989 0 01.75-.29h.8a.994.994 0 01.76.29.995.995 0 01.28.75v16.67l10.5-8a5.494 5.494 0 011-.66 2.739 2.739 0 011-.14h.81a.913.913 0 01.366.061.917.917 0 01.314.199.895.895 0 01.26.68 1.085 1.085 0 01-.12.45c-.109.21-.28.381-.49.49l-11.91 9 13.09 11.68c.318.222.537.559.61.94a.92.92 0 01-.26.68.895.895 0 01-.68.26h-.76a2.991 2.991 0 01-1-.12 3.828 3.828 0 01-1-.68l-11.82-10.5v10.26a.997.997 0 01-1 1l-.78.12zm30.32.47a9.238 9.238 0 01-7.25-3 12.824 12.824 0 01-3.06-7.84c0-.47-.05-1.09-.05-1.88 0-.79 0-1.41.05-1.88.112-1.967.626-3.89 1.51-5.65a9.474 9.474 0 013.51-3.82 9.94 9.94 0 015.29-1.36c1.972-.064 3.92.443 5.61 1.46a9.47 9.47 0 013.55 4.19 15.518 15.518 0 011.25 6.49v.71a.994.994 0 01-.31.75 1.08 1.08 0 01-.77.29h-16.77v.47a10.71 10.71 0 001 4 7.999 7.999 0 002.55 3.11 6.428 6.428 0 003.9 1.2 8.106 8.106 0 003.37-.61 8.464 8.464 0 002.14-1.34c.375-.33.71-.703 1-1.11.165-.288.39-.537.66-.73.238-.096.494-.137.75-.12h.75c.267-.006.527.087.73.26a.716.716 0 01.26.68 3.405 3.405 0 01-.73 1.63 8.986 8.986 0 01-1.93 1.91 10.988 10.988 0 01-3 1.55c-1.292.434-2.647.65-4.01.64zm-7.44-14.17h15v-.19a9.726 9.726 0 00-.9-4.24 7.172 7.172 0 00-2.59-3 7.297 7.297 0 00-4.05-1.1 7.146 7.146 0 00-4 1.1 7.06 7.06 0 00-2.54 3 9.867 9.867 0 00-.88 4.24l-.04.19zm25.52 13.7a.997.997 0 01-1-1v-22.4c-.01-.286.09-.565.28-.78a1.008 1.008 0 01.75-.3h.75a1 1 0 011.08 1.08v2.18a5.383 5.383 0 012.45-2.45 8.788 8.788 0 013.95-.8h1.74a.997.997 0 011 1v.66a.997.997 0 01-1 1h-2a5.694 5.694 0 00-6.12 6.12v14.59a1.007 1.007 0 01-.31.76 1.074 1.074 0 01-.77.28l-.8.06zm16.34-29.52a.995.995 0 01-.75-.28.996.996 0 01-.29-.76v-1.78a1.09 1.09 0 01.29-.78.935.935 0 01.75-.31h1.79a1.057 1.057 0 011.006.67c.053.134.078.277.074.42v1.78a1.007 1.007 0 01-.31.76 1.074 1.074 0 01-.77.28h-1.79zm.52 29.52a.989.989 0 01-.76-.28 1.061 1.061 0 01-.28-.76v-22.41a1.05 1.05 0 01.28-.75 1.002 1.002 0 01.76-.28h.8a.997.997 0 011 1v22.41a.997.997 0 01-1 1l-.8.07zm10.97 0a.989.989 0 01-.76-.28 1.061 1.061 0 01-.28-.76v-22.41a1.05 1.05 0 01.28-.75 1.002 1.002 0 01.76-.28h.8a.997.997 0 011 1v2.26a10.358 10.358 0 013.15-2.7 11.352 11.352 0 0110.17.36 8.574 8.574 0 013.2 3.76 13.251 13.251 0 011.06 5.39v13.37a.994.994 0 01-.29.76.995.995 0 01-.75.28h-.8a.997.997 0 01-1-1V384.3a8.819 8.819 0 00-1.84-5.91 6.676 6.676 0 00-5.37-2.14 7.124 7.124 0 00-2.923.495 7.123 7.123 0 00-2.467 1.645 8.232 8.232 0 00-2 5.91v13.13a.997.997 0 01-1 1l-.94.04zm36.34 10.36a12.895 12.895 0 01-4.92-.8 8.343 8.343 0 01-3-2 7.005 7.005 0 01-1.49-2.3 7.197 7.197 0 01-.47-1.86.905.905 0 01.29-.78c.202-.193.471-.301.75-.3h.66c.23-.007.458.049.66.16.25.208.416.499.47.82.246.62.554 1.213.92 1.77a5.402 5.402 0 002 1.77 8.184 8.184 0 003.84.75c1.471.04 2.938-.183 4.33-.66a4.999 4.999 0 002.66-2.33 9.76 9.76 0 00.92-4.64v-3.18a9.35 9.35 0 01-3.09 2.66 9.792 9.792 0 01-4.82 1.06 9.996 9.996 0 01-4.64-1 8.502 8.502 0 01-3.08-2.63 11.44 11.44 0 01-1.74-3.68 16.27 16.27 0 01-.62-4.09v-2.64c.033-1.387.242-2.765.62-4.1.357-1.317.947-2.56 1.74-3.67a8.502 8.502 0 013.08-2.63 9.996 9.996 0 014.64-1 9.697 9.697 0 014.82 1.08 9.907 9.907 0 013.09 2.64v-2.17c-.01-.286.09-.565.28-.78a1.008 1.008 0 01.75-.3h.76a1 1 0 011.08 1.08v22.93a16.002 16.002 0 01-.89 5.46 7.698 7.698 0 01-3.18 3.91 12.085 12.085 0 01-6.42 1.45zm.05-12.62a6.883 6.883 0 004.33-1.27 7.595 7.595 0 002.43-3.18c.499-1.223.793-2.521.87-3.84v-3.39a12.016 12.016 0 00-.87-3.83 7.589 7.589 0 00-2.43-3.18 6.883 6.883 0 00-4.33-1.27 7.081 7.081 0 00-4.35 1.22 6.857 6.857 0 00-2.34 3.2 14.568 14.568 0 00-.8 4.24v2.64c.055 1.445.324 2.874.8 4.24a6.857 6.857 0 002.34 3.2 7.077 7.077 0 004.35 1.26v-.04zM81.37 84.92c.88-.78-.69-1.17-.25-2.09 3.32-.64 3.23 4 6.35 4.67 3.52 1.26 5.91 7.3 10.3 4.42.68 1 2.49 1 3.51.92 1 1.46 3.17.1 4.2 1.41 1.31-.44 2.77-1.95 4.24-.69l.93 1.42 2.78-1.67c-.15-.05 0 1.13.49 1.85 2.09.25 3.9 2.39 6.54 2.14-.34.49.53 1.42 1 2.1.78-.1 1.21.58 1.85 1.17 1.66-1 2.1.82 3.51 1.16.59 1.8 2.39 1.65 3.76 1.6-.34 1.18.78 1.76 1.18 2.59 1-1 1.9.92 3 .92.49 1.27-1.85.44-.68 1.66 1.17-1.37 1.61 1.8 2.78.48.64 1.07 3-.39 2.59 1.61l-.93.49 1.42 1.17c-.15.14-.34.24-.25.43a.741.741 0 001.18.25c-.1 1.22 1.51 2.19.93 4 1-.2 1.17 1.56 2.34.92.49 1.41 2 2.68 1.42 4.19.39.39.73.93 1.41.73a5.619 5.619 0 012.11 5.36 2.267 2.267 0 002.1.93l.25 2.83c1.07.24.2 1.8.49 2.82l1.37.19c-1.37 1.18.73 2.35 0 3.52l1.17.48 1.67 8.68c2.88.44 1.23 3.56 2.35 5.12 1.13 2.49 3.28 4.53 4.94 6.77 4.65-1.87 6.47-3.8 13.79-5.69 6.54-1.69 12 .53 16.86 3.94a30.397 30.397 0 013.74 3.12 45.881 45.881 0 016.05 6.72 39.816 39.816 0 013.26 11c1.15 12.29 1.14 28.37-1.48 36.38a198.378 198.378 0 01-7.72 19.91c-1.16 8.4-.13 16.83-3.92 24.1.05 3.27-2 6.93-1 10.78.44-.39.19-1.07.24-1.65.54 1-1.06 3.65.5 4 1.22 3.66 1.37 7.81 2.6 11.46-.63 2.44.5 5.71.45 8.68-.24 3.12-2.77 3.47-5.11 5.13-1 0-.49-1.12-1-1.61-.1 1.13-.59 1-1.36 1.62l-.49-.93-1.17 2.1c-1 5.66-.18 11.7.27 17.36a8.636 8.636 0 01-1.66 2.34c.15 2.64-.43 5.56 1.43 7.46-.24 2.74.59 5.9-.67 8.2-1.46 1.09-2.44 1.74-6.34 2.07a7.058 7.058 0 01-3.27-.64 12.672 12.672 0 01-3.52-4.19c-.54-1.51 1.17-2.1 1.41-3.32.2-2.44 2.19-4.2 2.09-6.78-2.25-6.24.08-12 .66-18.24.77-.89.53-2.49.24-3.52-.89-.29-.15-1.22-.69-1.65-.58.29-.49.88-.49 1.41-.82.2-.78-.78-1.17-1.16l-.68 1.41c-.73.29-1.17-3.61-2.83-1.17-.73.78-.93-1.41-1.85-.73a19.677 19.677 0 00-.5-2.34 5.932 5.932 0 00-.48 1.66c-.78-.09-.44-1.85-1.37-1.41.24-2.58.53-5.76-.25-8.19l.92-1.86c-.25-2.53.57-6.05-.69-8.43-1-1.81 1.89-3.62.18-5.62 1.32-1.65.48-4.24.72-6.34l.44 1.42c.88-.49.34-1.56.49-2.34l-.25-.25c-.09.15-.29.25-.24.49-.78-3.71.47-8.15.71-12.19.63-2.59-.44-5.9.92-8.2.78-1.95.63-3.76.92-5.61-.68-1.17-1.51.2-2.34.25-1.56.49-4.54-.34-4.44 2.35-.48 4.24-1.74 7.9-2.32 12.39-.14.68.34 1.32-.24 2.1.73.87.34 2.38-.24 3.31.44 3.76-2.62 6.4-1.84 10.05-1 2.68-.62 6.54-1.4 9.61l.49.68c.06 7.76-1.24 15.76.28 23.17-2.19 4.59-.72 9.46-.22 14.29-.39 2.25-2 4-2.58 6.1a47.364 47.364 0 012.12 14.1c-3.17 2.54-7.16 4.64-11.46 3.08l-2.78-.72c-.54-2.49 1.75-5.86 1.6-8.49-1.56-.44-3.56.15-4.68-1.41.18-2.73 2.34-4.76 2.32-7.46a8.222 8.222 0 00.92-2.6 11.501 11.501 0 012.34-4.43c-.79-4.39-1.62-8.73.71-12.64-.34-2.09.78-3.9-.93-5.41.38-5.22-.65-11.36-1-16.63.53-5.95 1.78-12.15 1.63-18.73-.69-1.07-.64-2.49-.94-3.71-1.46-4.68-.45-10.58-5.43-13.59-1.52-2-3.52-3.76-6-3.75-1.9 1.85-4.93 1.91-5.85 4.93-2.38 7.32-2.9 15-2.79 23.17-1.5 5.86.84 11.27.71 17.12 0 8.49-3.88 14.74-1.14 23.56.4 6.15-4.81 11.22-.9 17.07.2 2 2.49 3.41 1.67 5.61-.34 1.17.48 3.1-.92 4.44-5.34 5.09-13.55 2.36-14.37-2 .58-2.34 1.52-4.57 2.12-6.89a26.73 26.73 0 011.31-3.62c1.83-4.2-.85-9.76.8-14.56.09-3.66.86-7.61.23-11 1-7.9-3-13-.28-20.48.48-6.39 1.3-13.27-.71-19.22 0 .8-2.48-8.28-1.91-5.36-1-7.51-5.53-14.94-4.05-23.17a49.754 49.754 0 00-1.66-9.14 38.186 38.186 0 012.68-31.06 29.247 29.247 0 014.22-2.28c4-1.13 9.27.63 14.17-.85a53.547 53.547 0 0117.81-.71c2.24.44 3.69 1 6 .47 4.2-1 5-5.57 6.09-8.67 1.05-6.44-.17-4.82-.82-8.6-.93-1.46-1.64-3.1-3.27-4.09-1.48-.89-4.16-1.57-7.64-2.4-6.67-1.35-9.48-2.41-12.07-4.1-5-3.28-10.71-7.6-15.54-7.13-1.5.15-1-1-1.05-1.15-.44-4.64-3.28-6.75-3.95-8.93-.76-2.51-2.43-3.07-3.46-4.67a2.437 2.437 0 00-2.71-.92c-4.72-.55-4.12 7.13-4.52 6.57-2.29.53-3.07-2.92-5.89-3.86-1.35-.38-2.13-.86-3.64 0-3.16 4-9.11 1.77-13.11 3.05-5.46 2.79-12.09 4.65-15.45 10.56a9.798 9.798 0 01-7.7 3.08c-3.92-1.85-5.9.59-7.51-3.31-1.42-2.33 0-5-2.11-7a7.29 7.29 0 011.4-6.54c4.34-3.76 7.16-9.18 11.69-13.14 3.65-5.57 8.76-10.55 11.68-16.41 4.19-3.56 7.5-7.91 11.93-11 .63-5.95-5.47-9.06-7-14v-1.3c2.09-.54 1.9 1.95 3.27 2.77" fill="#111c4e"/><path d="M110.37 142.01c.8 2.86 3.12 6 3.95 9.79.31 1.41-.93 2.55.38 3.83 10.34-3.28 16.91 8.08 26.23 9.43l7.42 1.32c3.24 1 5.69 1.6 6.08 3.34a8.301 8.301 0 011.2 3.57 8.826 8.826 0 01-.37 4.55c-.38 2.12-1.49 4.51-3.4 5.2l-1 .07c-1.44-.15-4.78-1.76-8.66-1.55-8.73-1-15 2.57-25.26 1.21-7.89-1.11-15 12.12-22.7 18.17-5 3.47-.84 8.6.31 12.89 1.12 1.85.64 4.33.89 6.52 1.66 5.9.77 11.74.68 17.83 0 0 .25 20.41-3.64 29-1.16 6.1 4.21 10.34 1.64 16.14-1.2 13.9-1.38 30.29 4.74 42.62a6.52 6.52 0 01.22 2.76 19.89 19.89 0 011.14 5.49 6.893 6.893 0 01-.24 3 4.36 4.36 0 01-.86 1.41 5.148 5.148 0 01-3.94 1.17c-2.49-.43-4.25-2.58-5.43-4.67l-.25-3.27c-2.33 2.05-1.5 5.47-.67 7.95-.33 1.76-1.9 2.64-3.28 3.55-2.87 1.37-5.17.7-6.76-1.68-2.44-4.34-.5-10.39.17-15.22 3-8.78 1.29-18.29.69-27.36-2.14-10.33-4-14.18-1-21.31-.8-6.59.56-12.34-1.21-18.48-.63-5-2.74-9.27-4.26-13.85-1.85.44-1.17 2.78-2.09 4-3.45 9.76-1.92 20.39 2.39 29.26 1.72 13.41-7.14 24.74-2.77 38.63 3.08 5.9 1.19 13.27.76 19.42a3.91 3.91 0 01-.93 3.75c-1.31 1.37-3.46 1.37-5.17.94-.53-.39-4-1-4.68-3.27-1.46-6.32.27-13.65 2.07-19.9-.36-9.8 2.06-19.61-2.14-28.09-2.74-4.48-.89-9.85-1.15-15.07.49-2.44 1.06-3.32 1.22-4.88.57-5.79-4.59-11.41-3.64-17.94.33-4.24-5.1-9.74-4.81-13.94-.57-5.23-2.34-7.38-2.73-10.71-2-17.22-1.58-14.4-.15-23.86 1-3.59 5.63-15.45 10.62-16.6a23.62 23.62 0 0110.52-6.31c-.92-1.07.73-1.66 1-2.83 1.13.43.59-2 1.61-.44a2.427 2.427 0 001.66-2.15c-.64-.64 1.22-1.08.24-1.86.15-.39.88.15.93-.68l.68.68c.29-.63.29-1.41.92-1.85.4.58.78-.2 1.17-.25v-.73l.49.73c.15-.24.54-.39.49-.73l-.25-.2c1-.49.68-2.58 2.34-2.34.1-1.12 2.44-.64 1.85-2.35l.93-1 .49.49.48-.69c.59.88 1.36-.49 2.1-.73.19-1.71 2.34-.4 1.85-2.1l.24.24c.44-.34.15-.93.24-1.41 1.42 1.07 2.1-1 3.51-.69.15-.88.83-2.73 2.1-1.66.29.39.29 1.12.93 1.17a6.892 6.892 0 00-1.86-3.76c1.07.44 1.61 2.15 2.78.92-1.47-3-1.91-6.82-2.35-10 2.28-1.66 3.71 1.8 5.41 2.58 1.86 2 3.76-.4 5.61.23 2.58-3.61 1.38-4.66 1.4-8.58.6-1.57 1.41-1.93 2.85 1.17m280.73 99.68h-67.7a4.861 4.861 0 00-4.86 4.85v3.62a4.853 4.853 0 00.943 2.871 4.854 4.854 0 002.457 1.759l7.2 2.27v68.83l-7.2 2.28a4.854 4.854 0 00-2.457 1.759 4.853 4.853 0 00-.943 2.871v3.55a4.862 4.862 0 004.86 4.85h31.5a4.855 4.855 0 003.436-1.417 4.848 4.848 0 001.424-3.433v-3.55a4.853 4.853 0 00-.943-2.871 4.854 4.854 0 00-2.457-1.759l-7.26-2.28v-26.93h28.63a4.861 4.861 0 004.86-4.85v-5.67a4.876 4.876 0 00-1.426-3.434 4.876 4.876 0 00-3.434-1.426h-28.63v-26.52h29.39l2.55 8.09a4.848 4.848 0 004.63 3.4h5.43a4.862 4.862 0 004.85-4.86v-17.15c0-1.286-.511-2.52-1.421-3.429a4.847 4.847 0 00-3.429-1.421zm-96.09 72.31h-5.72a4.853 4.853 0 00-4.64 3.44l-2.55 8.45h-29.41v-26.93h28.15a4.855 4.855 0 003.436-1.417 4.848 4.848 0 001.424-3.433v-5.67a4.863 4.863 0 00-1.423-3.437 4.863 4.863 0 00-3.437-1.423h-28.15v-26.52h29.41l2.55 8.09c.31.985.926 1.846 1.759 2.457a4.853 4.853 0 002.871.943h5.43a4.876 4.876 0 003.434-1.426 4.876 4.876 0 001.426-3.434v-17.15a4.862 4.862 0 00-4.86-4.85h-67.7c-1.286 0-2.52.511-3.429 1.421a4.847 4.847 0 00-1.421 3.429v3.62a4.849 4.849 0 003.39 4.63l7.2 2.27v68.83l-7.2 2.28a4.848 4.848 0 00-3.39 4.63v3.55c0 1.286.511 2.52 1.421 3.429a4.847 4.847 0 003.429 1.421h68c1.286 0 2.52-.511 3.429-1.421a4.847 4.847 0 001.421-3.429v-17.5c0-1.286-.511-2.52-1.421-3.429a4.847 4.847 0 00-3.429-1.421zm192.51-58.36a41.738 41.738 0 00-14.35-10.3 45.413 45.413 0 00-18.45-3.65 44.76 44.76 0 00-18.32 3.65 41.253 41.253 0 00-14.22 10.3 46.928 46.928 0 00-9.16 15.58 57.317 57.317 0 00-3.21 19.5v1.5a57.52 57.52 0 003.21 19.57 46.129 46.129 0 009.2 15.55 41.738 41.738 0 0014.25 10.26 48.049 48.049 0 0036.74 0 42.168 42.168 0 0014.31-10.26 46.445 46.445 0 009.27-15.55 56.99 56.99 0 003.24-19.57v-1.46a56.839 56.839 0 00-3.24-19.5 46.827 46.827 0 00-9.27-15.62zm-7.42 36.58a51.33 51.33 0 01-2.83 17.81 25.743 25.743 0 01-8.45 11.89c-3.733 2.84-8.423 4.257-14.07 4.25-5.647-.007-10.283-1.423-13.91-4.25a25.277 25.277 0 01-8.34-11.89 52.093 52.093 0 01-2.73-17.81v-1.59a51.514 51.514 0 012.77-17.74 25.22 25.22 0 018.3-11.79c3.687-2.807 8.313-4.213 13.88-4.22 5.567-.007 10.233 1.41 14 4.25a25.83 25.83 0 018.51 11.86 49.65 49.65 0 012.87 17.59v1.64z" fill="#111c4e"/></svg>