<svg width="476" height="272" viewBox="0 0 476 272" fill="none" xmlns="http://www.w3.org/2000/svg">
<g clip-path="url(#clip0_343_9)">
<path d="M274.729 0.496094L275.172 0.286133L345.487 148.548L415.097 0.287109L415.232 0H476.308L475.984 0.708008L352.785 270.228L352.784 270.227C352.639 270.597 352.456 270.913 352.167 271.152C351.871 271.397 351.516 271.523 351.115 271.601L351.111 271.602C349.343 271.93 347.171 271.8 345.056 271.665C342.907 271.528 340.808 271.384 339.071 271.635L338.701 271.688L338.546 271.349L293.668 173.465L248.483 271.25L248.349 271.54H234.66L234.526 271.25L199.756 196.12L199.697 195.993L199.713 195.854L200.599 187.852V62.0928L201.552 64.0957L242.857 151.004L265.978 108.14L266.281 106.868L214.54 0.71875L214.19 0H274.729V0.496094ZM178.54 189.795L178.538 189.819C173.179 243.902 123.171 281.153 69.4939 269.438C29.1925 260.648 -0.64292 223.201 0.0105285 181.853L0.018341 181.36H55.2332L55.2303 181.862C55.0727 213.102 92.8565 228.561 114.583 205.041V205.04C116.397 203.078 118.832 199.618 120.813 195.966C121.802 194.142 122.672 192.281 123.294 190.546C123.918 188.804 124.28 187.22 124.28 185.94V49.9404H67.1707L67.1805 49.4307L68.1404 0.490234L68.1502 0H178.54V189.795Z" fill="black"/>
</g>
<defs>
<clipPath id="clip0_343_9">
<rect width="476" height="272" fill="white"/>
</clipPath>
</defs>
</svg>
