<svg width="1536" height="344" viewBox="0 0 1536 344" fill="none" xmlns="http://www.w3.org/2000/svg">
<line x1="1.24887e-10" y1="160.5" x2="366" y2="160.5" stroke="url(#paint0_linear_105_499)" stroke-width="3"/>
<path d="M605.722 162.504L651.412 162.504C662.458 162.504 671.413 171.459 671.413 182.504L671.412 266C671.412 277.046 680.367 286 691.413 286L975.721 286" stroke="#E5E7EB" stroke-width="2"/>
<path d="M604.722 162.365L651.413 162.365C662.458 162.365 671.413 153.411 671.413 142.365L671.413 58.8689C671.413 47.8232 680.367 38.8689 691.413 38.8689L974.721 38.8691" stroke="#E5E7EB" stroke-width="2"/>
<g filter="url(#filter0_d_105_499)">
<rect x="366" y="102" width="240" height="120" rx="16" fill="white"/>
<rect x="366.5" y="102.5" width="239" height="119" rx="15.5" stroke="#E5E7EB"/>
<g clip-path="url(#clip0_105_499)">
<path d="M461.909 173.03V150.514H466.155V173.03H461.909Z" fill="url(#paint1_linear_105_499)"/>
<path d="M471.311 173.03V156.095H475.1L475.264 160.852L474.774 160.662C474.948 159.478 475.307 158.526 475.851 157.808C476.396 157.089 477.06 156.56 477.844 156.222C478.628 155.884 479.488 155.715 480.424 155.715C481.709 155.715 482.787 155.989 483.658 156.539C484.551 157.089 485.226 157.85 485.683 158.822C486.14 159.774 486.369 160.884 486.369 162.152V173.03H482.188V163.452C482.188 162.501 482.09 161.698 481.894 161.042C481.698 160.387 481.371 159.89 480.914 159.552C480.479 159.192 479.891 159.013 479.15 159.013C478.04 159.013 477.147 159.393 476.472 160.154C475.819 160.915 475.492 162.015 475.492 163.452V173.03H471.311Z" fill="url(#paint2_linear_105_499)"/>
<path d="M497.601 173.41C495.881 173.41 494.433 173.167 493.257 172.681C492.103 172.194 491.21 171.518 490.579 170.651C489.947 169.784 489.588 168.801 489.501 167.702L493.78 167.512C493.932 168.4 494.313 169.087 494.923 169.573C495.533 170.059 496.436 170.302 497.634 170.302C498.614 170.302 499.376 170.154 499.92 169.858C500.487 169.541 500.77 169.055 500.77 168.4C500.77 168.019 500.672 167.702 500.476 167.448C500.28 167.194 499.91 166.972 499.365 166.782C498.821 166.592 498.015 166.402 496.948 166.211C495.163 165.915 493.758 165.556 492.735 165.133C491.711 164.689 490.982 164.139 490.546 163.484C490.132 162.829 489.926 162.015 489.926 161.042C489.926 159.457 490.546 158.178 491.787 157.205C493.05 156.211 494.89 155.715 497.307 155.715C498.875 155.715 500.193 155.968 501.26 156.476C502.327 156.962 503.154 157.638 503.742 158.505C504.352 159.351 504.733 160.323 504.885 161.423L500.672 161.613C500.563 161.042 500.367 160.545 500.084 160.123C499.801 159.7 499.42 159.383 498.941 159.171C498.461 158.939 497.895 158.822 497.242 158.822C496.262 158.822 495.522 159.013 495.021 159.393C494.52 159.774 494.27 160.281 494.27 160.915C494.27 161.359 494.379 161.729 494.596 162.025C494.836 162.321 495.217 162.564 495.74 162.755C496.262 162.924 496.959 163.082 497.83 163.23C499.659 163.505 501.096 163.865 502.142 164.309C503.209 164.731 503.96 165.281 504.395 165.958C504.853 166.613 505.081 167.406 505.081 168.336C505.081 169.414 504.765 170.334 504.134 171.095C503.524 171.856 502.653 172.438 501.521 172.839C500.41 173.22 499.104 173.41 497.601 173.41Z" fill="url(#paint3_linear_105_499)"/>
<path d="M508.979 177.786L509.887 174.647H511.2C511.767 174.647 512.18 174.562 512.442 174.393C512.725 174.224 512.942 173.939 513.095 173.537L513.585 172.364H512.376L506.138 156.095H510.482L514.859 168.558L519.039 156.095H523.384L516.557 174.805C516.165 175.863 515.61 176.624 514.891 177.089C514.194 177.554 513.215 177.786 511.952 177.786H508.979Z" fill="url(#paint4_linear_105_499)"/>
<path d="M525.633 173.03V156.095H529.421L529.585 160.852L529.095 160.662C529.269 159.478 529.628 158.526 530.173 157.808C530.717 157.089 531.381 156.56 532.165 156.222C532.949 155.884 533.809 155.715 534.745 155.715C536.03 155.715 537.108 155.989 537.979 156.539C538.872 157.089 539.547 157.85 540.004 158.822C540.461 159.774 540.69 160.884 540.69 162.152V173.03H536.509V163.452C536.509 162.501 536.411 161.698 536.215 161.042C536.019 160.387 535.693 159.89 535.235 159.552C534.8 159.192 534.212 159.013 533.472 159.013C532.361 159.013 531.468 159.393 530.793 160.154C530.14 160.915 529.813 162.015 529.813 163.452V173.03H525.633Z" fill="url(#paint5_linear_105_499)"/>
<path d="M552.413 173.41C550.671 173.41 549.157 173.051 547.872 172.332C546.588 171.592 545.586 170.556 544.867 169.224C544.171 167.892 543.822 166.338 543.822 164.562C543.822 162.786 544.171 161.243 544.867 159.932C545.586 158.6 546.588 157.564 547.872 156.824C549.157 156.084 550.671 155.715 552.413 155.715C553.893 155.715 555.211 155.968 556.365 156.476C557.519 156.983 558.455 157.712 559.174 158.664C559.914 159.594 560.371 160.736 560.546 162.089L556.234 162.311C556.06 161.232 555.624 160.419 554.928 159.869C554.253 159.298 553.414 159.013 552.413 159.013C551.062 159.013 550.017 159.509 549.277 160.503C548.537 161.476 548.166 162.829 548.166 164.562C548.166 166.317 548.537 167.681 549.277 168.653C550.017 169.626 551.062 170.112 552.413 170.112C553.436 170.112 554.285 169.827 554.96 169.256C555.657 168.685 556.082 167.797 556.234 166.592L560.546 166.782C560.371 168.135 559.925 169.309 559.206 170.302C558.488 171.296 557.551 172.068 556.397 172.617C555.243 173.146 553.915 173.41 552.413 173.41Z" fill="url(#paint6_linear_105_499)"/>
<g clip-path="url(#clip1_105_499)">
<path d="M409.994 151.271C409.949 146.251 413.982 142.144 419.003 142.099L440.82 141.903C445.84 141.858 449.947 145.891 449.992 150.912L450.188 172.729C450.233 177.749 446.2 181.856 441.179 181.901L419.362 182.097C414.342 182.142 410.235 178.109 410.19 173.089L409.994 151.271Z" fill="url(#paint7_linear_105_499)"/>
<g filter="url(#filter1_d_105_499)">
<path d="M437.663 150.117C438.904 150.145 440.081 150.512 440.963 151.382C441.846 152.248 442.234 153.416 442.284 154.655C442.334 155.887 442.055 157.253 441.54 158.652C441.128 159.772 440.551 160.945 439.83 162.134C440.572 163.309 441.17 164.472 441.602 165.584C442.142 166.974 442.446 168.335 442.418 169.568C442.39 170.808 442.022 171.982 441.155 172.863L441.156 172.864C440.29 173.749 439.12 174.139 437.88 174.189C436.647 174.239 435.281 173.96 433.882 173.445C432.762 173.033 431.588 172.456 430.4 171.735C429.225 172.477 428.062 173.075 426.95 173.507C425.56 174.048 424.199 174.351 422.966 174.323C421.726 174.295 420.551 173.928 419.67 173.06C418.785 172.195 418.396 171.025 418.346 169.785C418.296 168.553 418.574 167.186 419.089 165.787C419.501 164.667 420.077 163.493 420.799 162.305C420.056 161.13 419.459 159.967 419.027 158.855C418.487 157.465 418.184 156.104 418.212 154.871C418.239 153.63 418.607 152.453 419.477 151.572C420.343 150.689 421.511 150.301 422.749 150.251C423.982 150.201 425.348 150.479 426.747 150.994C427.867 151.407 429.04 151.983 430.229 152.704C431.404 151.961 432.567 151.364 433.679 150.932C435.069 150.392 436.43 150.089 437.663 150.117ZM420.799 162.305C420.383 163.069 421.482 165.866 421.222 166.572C420.773 167.792 420.582 168.85 420.616 169.693C420.648 170.475 420.868 171.012 421.193 171.367L421.259 171.436L421.263 171.439L421.333 171.505C421.694 171.823 422.235 172.033 423.017 172.051C423.86 172.069 424.915 171.86 426.126 171.389C426.827 171.116 427.564 170.762 428.32 170.332C427.222 169.517 426.13 168.588 425.076 167.557L425.072 167.554C424.023 166.518 421.634 163.389 420.799 162.305ZM438.428 164.214C437.613 165.312 436.683 166.404 435.652 167.458L435.648 167.462C434.613 168.512 431.484 170.9 430.4 171.735C431.164 172.151 433.961 171.052 434.667 171.312C435.887 171.761 436.945 171.952 437.788 171.918C438.622 171.884 439.177 171.637 439.531 171.275L439.534 171.271L439.6 171.201C439.918 170.84 440.128 170.3 440.146 169.517C440.164 168.674 439.955 167.619 439.484 166.408C439.211 165.707 438.857 164.97 438.428 164.214ZM430.253 155.429C429.032 156.307 427.794 157.361 426.598 158.573C425.409 159.79 424.379 161.045 423.524 162.28C424.401 163.5 425.454 164.737 426.665 165.932L426.918 166.176C428.056 167.264 429.224 168.213 430.375 169.01C431.596 168.132 432.834 167.079 434.031 165.866C435.22 164.649 436.25 163.394 437.105 162.158C436.228 160.939 435.175 159.702 433.965 158.507L433.712 158.263C432.573 157.175 431.405 156.226 430.253 155.429ZM430.39 162.219C430.39 162.177 430.356 162.144 430.314 162.144C430.272 162.144 430.238 162.179 430.239 162.221C430.239 162.262 430.274 162.296 430.315 162.295C430.357 162.295 430.391 162.261 430.39 162.219ZM422.841 152.521C422.007 152.555 421.452 152.803 421.099 153.164L421.095 153.168C420.74 153.528 420.502 154.087 420.484 154.922C420.465 155.765 420.675 156.82 421.145 158.031C421.418 158.732 421.772 159.469 422.201 160.226C423.016 159.127 423.946 158.035 424.977 156.981L424.981 156.977L425.245 156.712C426.199 155.767 429.237 153.468 430.229 152.704C429.464 152.288 426.668 153.387 425.962 153.127C424.742 152.678 423.684 152.487 422.841 152.521ZM437.612 152.389C436.769 152.37 435.714 152.58 434.503 153.051C433.802 153.323 433.065 153.676 432.309 154.106C433.314 154.852 434.314 155.694 435.284 156.622L435.553 156.882L435.557 156.886L435.822 157.15C436.767 158.104 439.066 161.142 439.83 162.134C440.246 161.369 439.147 158.573 439.407 157.867C439.856 156.647 440.047 155.589 440.013 154.746C439.979 153.912 439.731 153.358 439.37 153.004L439.366 153C439.006 152.645 438.447 152.407 437.612 152.389ZM432.663 162.199C432.674 163.496 431.633 164.556 430.336 164.568C429.039 164.58 427.978 163.538 427.966 162.241C427.955 160.944 428.997 159.883 430.294 159.871C431.591 159.86 432.651 160.902 432.663 162.199Z" fill="url(#paint8_linear_105_499)"/>
</g>
</g>
</g>
</g>
<g filter="url(#filter2_dd_105_499)">
<rect x="976" y="2" width="260" height="80" rx="16" fill="white"/>
<rect x="976.5" y="2.5" width="259" height="79" rx="15.5" stroke="#E5E7EB"/>
<path d="M1028 32.6667C1028 34.8759 1022.63 36.6667 1016 36.6667C1009.37 36.6667 1004 34.8759 1004 32.6667M1028 32.6667C1028 30.4576 1022.63 28.6667 1016 28.6667C1009.37 28.6667 1004 30.4576 1004 32.6667M1028 32.6667V51.3334C1028 52.3943 1026.74 53.4117 1024.49 54.1618C1022.23 54.912 1019.18 55.3334 1016 55.3334C1012.82 55.3334 1009.77 54.912 1007.51 54.1618C1005.26 53.4117 1004 52.3943 1004 51.3334V32.6667M1004 42.0001C1004 43.0609 1005.26 44.0784 1007.51 44.8285C1009.77 45.5787 1012.82 46.0001 1016 46.0001C1019.18 46.0001 1022.23 45.5787 1024.49 44.8285C1026.74 44.0784 1028 43.0609 1028 42.0001" stroke="#5B59F8" stroke-width="3" stroke-linecap="round" stroke-linejoin="round"/>
<path d="M1045.64 49V34.86H1051.02C1051.7 34.86 1052.32 34.92 1052.88 35.04C1053.45 35.1467 1053.95 35.34 1054.36 35.62C1054.77 35.8867 1055.09 36.2533 1055.3 36.72C1055.53 37.1733 1055.64 37.7467 1055.64 38.44C1055.64 39.12 1055.49 39.7333 1055.18 40.28C1054.87 40.8133 1054.41 41.2133 1053.78 41.48C1054.62 41.6667 1055.25 42.0467 1055.68 42.62C1056.12 43.1933 1056.34 43.9467 1056.34 44.88C1056.34 45.68 1056.19 46.3467 1055.9 46.88C1055.61 47.4133 1055.2 47.8333 1054.68 48.14C1054.16 48.4467 1053.56 48.6667 1052.88 48.8C1052.2 48.9333 1051.47 49 1050.7 49H1045.64ZM1047.76 47.06H1050.78C1051.18 47.06 1051.58 47.04 1051.98 47C1052.38 46.9467 1052.75 46.8467 1053.08 46.7C1053.43 46.5533 1053.7 46.3333 1053.9 46.04C1054.11 45.7467 1054.22 45.3533 1054.22 44.86C1054.22 44.4467 1054.14 44.1067 1053.98 43.84C1053.82 43.56 1053.61 43.34 1053.34 43.18C1053.07 43.02 1052.76 42.9067 1052.4 42.84C1052.05 42.7733 1051.69 42.74 1051.32 42.74H1047.76V47.06ZM1047.76 40.92H1050.44C1050.89 40.92 1051.31 40.88 1051.68 40.8C1052.07 40.72 1052.4 40.5867 1052.68 40.4C1052.96 40.2133 1053.17 39.98 1053.32 39.7C1053.48 39.4067 1053.56 39.0533 1053.56 38.64C1053.57 38.0933 1053.45 37.6933 1053.2 37.44C1052.96 37.1733 1052.63 37 1052.22 36.92C1051.81 36.8267 1051.35 36.78 1050.86 36.78H1047.76V40.92ZM1061.86 49.12C1061.38 49.12 1060.92 49.06 1060.46 48.94C1060.02 48.8067 1059.63 48.6133 1059.28 48.36C1058.94 48.0933 1058.66 47.7667 1058.44 47.38C1058.24 46.98 1058.14 46.5133 1058.14 45.98C1058.14 45.34 1058.26 44.8133 1058.5 44.4C1058.76 43.9733 1059.09 43.6467 1059.5 43.42C1059.92 43.18 1060.39 43.0133 1060.92 42.92C1061.47 42.8133 1062.04 42.76 1062.62 42.76H1065.2C1065.2 42.24 1065.12 41.7867 1064.96 41.4C1064.8 41 1064.55 40.6933 1064.2 40.48C1063.87 40.2533 1063.42 40.14 1062.86 40.14C1062.53 40.14 1062.21 40.18 1061.9 40.26C1061.61 40.3267 1061.36 40.44 1061.14 40.6C1060.93 40.76 1060.78 40.9733 1060.7 41.24H1058.54C1058.62 40.7333 1058.8 40.3 1059.08 39.94C1059.36 39.5667 1059.71 39.26 1060.12 39.02C1060.54 38.78 1060.98 38.6067 1061.44 38.5C1061.92 38.38 1062.41 38.32 1062.9 38.32C1064.42 38.32 1065.52 38.7667 1066.18 39.66C1066.86 40.54 1067.2 41.7533 1067.2 43.3V49H1065.42L1065.34 47.66C1065.04 48.0733 1064.67 48.3867 1064.24 48.6C1063.83 48.8133 1063.42 48.9533 1063 49.02C1062.59 49.0867 1062.21 49.12 1061.86 49.12ZM1062.18 47.38C1062.78 47.38 1063.31 47.28 1063.76 47.08C1064.22 46.8667 1064.57 46.5667 1064.82 46.18C1065.08 45.78 1065.2 45.3133 1065.2 44.78V44.34H1063.32C1062.94 44.34 1062.56 44.3533 1062.18 44.38C1061.82 44.3933 1061.49 44.4467 1061.18 44.54C1060.89 44.62 1060.65 44.76 1060.46 44.96C1060.29 45.16 1060.2 45.4467 1060.2 45.82C1060.2 46.18 1060.3 46.4733 1060.48 46.7C1060.67 46.9267 1060.92 47.1 1061.22 47.22C1061.53 47.3267 1061.85 47.38 1062.18 47.38ZM1074.25 49.12C1073.15 49.12 1072.22 48.8933 1071.47 48.44C1070.74 47.9867 1070.19 47.36 1069.81 46.56C1069.45 45.7467 1069.27 44.8133 1069.27 43.76C1069.27 42.72 1069.46 41.7933 1069.83 40.98C1070.22 40.1533 1070.79 39.5067 1071.55 39.04C1072.33 38.56 1073.28 38.32 1074.41 38.32C1075.19 38.32 1075.87 38.4533 1076.47 38.72C1077.07 38.9733 1077.56 39.3533 1077.93 39.86C1078.32 40.3533 1078.57 40.9733 1078.69 41.72H1076.63C1076.46 41.1733 1076.17 40.78 1075.75 40.54C1075.35 40.3 1074.88 40.18 1074.33 40.18C1073.6 40.18 1073.01 40.3533 1072.57 40.7C1072.15 41.0467 1071.83 41.4933 1071.63 42.04C1071.43 42.5867 1071.33 43.16 1071.33 43.76C1071.33 44.3867 1071.43 44.9667 1071.63 45.5C1071.85 46.0333 1072.17 46.4667 1072.59 46.8C1073.03 47.12 1073.61 47.28 1074.31 47.28C1074.85 47.28 1075.34 47.1667 1075.79 46.94C1076.25 46.7 1076.54 46.3 1076.67 45.74H1078.79C1078.67 46.5133 1078.39 47.1533 1077.95 47.66C1077.51 48.1533 1076.97 48.52 1076.31 48.76C1075.67 49 1074.99 49.12 1074.25 49.12ZM1080.79 49V34.86H1082.85V42.84H1084.55L1087.51 38.46H1089.83L1086.37 43.48L1090.13 49H1087.71L1084.71 44.66H1082.85V49H1080.79ZM1096.15 49.12C1095.06 49.12 1094.13 48.9 1093.37 48.46C1092.61 48.0067 1092.03 47.3733 1091.63 46.56C1091.24 45.7467 1091.05 44.8067 1091.05 43.74C1091.05 42.66 1091.25 41.72 1091.65 40.92C1092.05 40.1067 1092.63 39.4733 1093.39 39.02C1094.15 38.5533 1095.08 38.32 1096.17 38.32C1097.26 38.32 1098.19 38.5533 1098.95 39.02C1099.71 39.4733 1100.28 40.1067 1100.67 40.92C1101.06 41.7333 1101.25 42.68 1101.25 43.76C1101.25 44.8133 1101.05 45.7467 1100.65 46.56C1100.26 47.3733 1099.69 48.0067 1098.93 48.46C1098.18 48.9 1097.26 49.12 1096.15 49.12ZM1096.15 47.28C1096.87 47.28 1097.45 47.12 1097.89 46.8C1098.34 46.48 1098.68 46.0533 1098.89 45.52C1099.1 44.9733 1099.21 44.38 1099.21 43.74C1099.21 43.1 1099.1 42.5133 1098.89 41.98C1098.68 41.4467 1098.34 41.02 1097.89 40.7C1097.45 40.3667 1096.87 40.2 1096.15 40.2C1095.44 40.2 1094.86 40.3667 1094.41 40.7C1093.96 41.02 1093.62 41.4467 1093.41 41.98C1093.21 42.5133 1093.11 43.1 1093.11 43.74C1093.11 44.3933 1093.21 44.9867 1093.41 45.52C1093.62 46.0533 1093.96 46.48 1094.41 46.8C1094.86 47.12 1095.44 47.28 1096.15 47.28ZM1104.15 49V40.3H1102.47V38.46H1104.15V37.4C1104.15 36.6 1104.26 35.9533 1104.49 35.46C1104.73 34.9533 1105.1 34.58 1105.59 34.34C1106.1 34.1 1106.76 33.98 1107.57 33.98H1108.95V35.8H1107.81C1107.4 35.8 1107.07 35.8733 1106.83 36.02C1106.6 36.1533 1106.44 36.36 1106.35 36.64C1106.26 36.9067 1106.21 37.2333 1106.21 37.62V38.46H1108.95V40.3H1106.21V49H1104.15ZM1111.59 49V40.3H1109.91V38.46H1111.59V37.4C1111.59 36.6 1111.7 35.9533 1111.93 35.46C1112.17 34.9533 1112.54 34.58 1113.03 34.34C1113.54 34.1 1114.2 33.98 1115.01 33.98H1116.39V35.8H1115.25C1114.84 35.8 1114.51 35.8733 1114.27 36.02C1114.04 36.1533 1113.88 36.36 1113.79 36.64C1113.7 36.9067 1113.65 37.2333 1113.65 37.62V38.46H1116.39V40.3H1113.65V49H1111.59ZM1118.05 49V38.46H1120.11V49H1118.05ZM1119.07 37.06C1118.67 37.06 1118.35 36.94 1118.09 36.7C1117.85 36.4467 1117.73 36.1267 1117.73 35.74C1117.73 35.3533 1117.86 35.04 1118.11 34.8C1118.37 34.5467 1118.69 34.42 1119.07 34.42C1119.43 34.42 1119.75 34.5467 1120.01 34.8C1120.29 35.04 1120.43 35.3533 1120.43 35.74C1120.43 36.1267 1120.3 36.4467 1120.03 36.7C1119.78 36.94 1119.46 37.06 1119.07 37.06ZM1127.24 49.12C1126.14 49.12 1125.21 48.8933 1124.46 48.44C1123.73 47.9867 1123.18 47.36 1122.8 46.56C1122.44 45.7467 1122.26 44.8133 1122.26 43.76C1122.26 42.72 1122.45 41.7933 1122.82 40.98C1123.21 40.1533 1123.78 39.5067 1124.54 39.04C1125.32 38.56 1126.27 38.32 1127.4 38.32C1128.18 38.32 1128.86 38.4533 1129.46 38.72C1130.06 38.9733 1130.55 39.3533 1130.92 39.86C1131.31 40.3533 1131.56 40.9733 1131.68 41.72H1129.62C1129.45 41.1733 1129.16 40.78 1128.74 40.54C1128.34 40.3 1127.87 40.18 1127.32 40.18C1126.59 40.18 1126 40.3533 1125.56 40.7C1125.14 41.0467 1124.82 41.4933 1124.62 42.04C1124.42 42.5867 1124.32 43.16 1124.32 43.76C1124.32 44.3867 1124.42 44.9667 1124.62 45.5C1124.84 46.0333 1125.16 46.4667 1125.58 46.8C1126.02 47.12 1126.6 47.28 1127.3 47.28C1127.84 47.28 1128.33 47.1667 1128.78 46.94C1129.24 46.7 1129.53 46.3 1129.66 45.74H1131.78C1131.66 46.5133 1131.38 47.1533 1130.94 47.66C1130.5 48.1533 1129.96 48.52 1129.3 48.76C1128.66 49 1127.98 49.12 1127.24 49.12ZM1138.42 49.12C1137.31 49.12 1136.38 48.8933 1135.64 48.44C1134.89 47.9867 1134.32 47.36 1133.94 46.56C1133.56 45.7467 1133.38 44.8133 1133.38 43.76C1133.38 42.6933 1133.57 41.7533 1133.96 40.94C1134.36 40.1267 1134.93 39.4867 1135.68 39.02C1136.44 38.5533 1137.35 38.32 1138.42 38.32C1139.23 38.32 1139.94 38.4733 1140.54 38.78C1141.14 39.0733 1141.63 39.4733 1142.02 39.98C1142.42 40.4867 1142.71 41.0533 1142.9 41.68C1143.08 42.2933 1143.16 42.9333 1143.14 43.6C1143.14 43.7467 1143.13 43.8867 1143.12 44.02C1143.1 44.1533 1143.09 44.2933 1143.08 44.44H1135.46C1135.5 44.9733 1135.63 45.46 1135.86 45.9C1136.1 46.34 1136.43 46.6933 1136.86 46.96C1137.28 47.2133 1137.81 47.34 1138.44 47.34C1138.78 47.34 1139.12 47.3 1139.44 47.22C1139.77 47.1267 1140.06 46.9867 1140.32 46.8C1140.58 46.6 1140.77 46.3467 1140.88 46.04H1142.96C1142.78 46.7467 1142.47 47.3333 1142.02 47.8C1141.58 48.2533 1141.04 48.5867 1140.4 48.8C1139.77 49.0133 1139.11 49.12 1138.42 49.12ZM1135.5 42.8H1141.1C1141.08 42.28 1140.96 41.82 1140.74 41.42C1140.51 41.0067 1140.2 40.6867 1139.8 40.46C1139.4 40.22 1138.92 40.1 1138.36 40.1C1137.74 40.1 1137.23 40.2267 1136.82 40.48C1136.42 40.7333 1136.1 41.0667 1135.88 41.48C1135.66 41.88 1135.54 42.32 1135.5 42.8Z" fill="#030712"/>
</g>
<g filter="url(#filter3_dd_105_499)">
<rect x="976" y="122" width="260" height="80" rx="16" fill="white"/>
<rect x="976.5" y="122.5" width="259" height="79" rx="15.5" stroke="#E5E7EB"/>
<path d="M1019.6 154.4C1019.36 154.649 1019.22 154.984 1019.22 155.333C1019.22 155.682 1019.36 156.017 1019.6 156.267L1021.73 158.4C1021.98 158.644 1022.32 158.781 1022.67 158.781C1023.02 158.781 1023.35 158.644 1023.6 158.4L1028.63 153.373C1029.3 154.855 1029.5 156.506 1029.21 158.106C1028.92 159.705 1028.15 161.179 1027 162.328C1025.85 163.478 1024.37 164.25 1022.77 164.542C1021.17 164.833 1019.52 164.631 1018.04 163.96L1008.83 173.173C1008.3 173.704 1007.58 174.002 1006.83 174.002C1006.08 174.002 1005.36 173.704 1004.83 173.173C1004.3 172.643 1004 171.924 1004 171.173C1004 170.423 1004.3 169.704 1004.83 169.173L1014.04 159.96C1013.37 158.478 1013.17 156.828 1013.46 155.228C1013.75 153.628 1014.52 152.155 1015.67 151.005C1016.82 149.855 1018.29 149.083 1019.89 148.791C1021.49 148.5 1023.15 148.703 1024.63 149.373L1019.61 154.387L1019.6 154.4Z" stroke="#5B59F8" stroke-width="3" stroke-linecap="round" stroke-linejoin="round"/>
<path d="M1044.62 169L1049.96 154.86H1052.7L1058.02 169H1055.74L1054.7 166.16H1047.94L1046.9 169H1044.62ZM1048.64 164.26H1054L1051.32 156.88L1048.64 164.26ZM1063.36 169.12C1062.86 169.12 1062.37 169.073 1061.88 168.98C1061.38 168.887 1060.92 168.72 1060.5 168.48C1060.07 168.24 1059.71 167.92 1059.42 167.52C1059.12 167.107 1058.94 166.6 1058.86 166H1060.96C1061.06 166.32 1061.25 166.58 1061.52 166.78C1061.8 166.98 1062.1 167.127 1062.44 167.22C1062.78 167.313 1063.12 167.36 1063.46 167.36C1063.66 167.36 1063.88 167.347 1064.12 167.32C1064.37 167.293 1064.61 167.233 1064.84 167.14C1065.06 167.047 1065.25 166.913 1065.4 166.74C1065.54 166.553 1065.62 166.307 1065.62 166C1065.62 165.76 1065.55 165.56 1065.42 165.4C1065.3 165.24 1065.12 165.113 1064.9 165.02C1064.68 164.913 1064.42 164.833 1064.12 164.78C1063.52 164.647 1062.87 164.52 1062.18 164.4C1061.5 164.267 1060.9 164.04 1060.38 163.72C1060.19 163.6 1060.02 163.467 1059.88 163.32C1059.73 163.16 1059.6 162.98 1059.5 162.78C1059.39 162.58 1059.31 162.367 1059.26 162.14C1059.2 161.913 1059.18 161.667 1059.18 161.4C1059.18 160.853 1059.28 160.387 1059.5 160C1059.72 159.613 1060.03 159.3 1060.42 159.06C1060.8 158.807 1061.24 158.62 1061.74 158.5C1062.23 158.38 1062.75 158.32 1063.3 158.32C1064 158.32 1064.64 158.433 1065.22 158.66C1065.79 158.887 1066.26 159.22 1066.64 159.66C1067.01 160.1 1067.23 160.653 1067.3 161.32H1065.36C1065.28 160.96 1065.04 160.673 1064.66 160.46C1064.28 160.233 1063.81 160.12 1063.24 160.12C1063.04 160.12 1062.82 160.133 1062.58 160.16C1062.35 160.187 1062.13 160.247 1061.92 160.34C1061.7 160.433 1061.53 160.567 1061.4 160.74C1061.26 160.9 1061.2 161.113 1061.2 161.38C1061.2 161.633 1061.26 161.847 1061.38 162.02C1061.51 162.193 1061.7 162.333 1061.94 162.44C1062.19 162.547 1062.48 162.633 1062.8 162.7C1063.25 162.807 1063.74 162.907 1064.26 163C1064.79 163.093 1065.22 163.193 1065.56 163.3C1066 163.42 1066.37 163.593 1066.68 163.82C1067 164.047 1067.24 164.333 1067.4 164.68C1067.57 165.027 1067.66 165.447 1067.66 165.94C1067.66 166.58 1067.53 167.107 1067.28 167.52C1067.02 167.92 1066.68 168.24 1066.26 168.48C1065.84 168.72 1065.38 168.887 1064.86 168.98C1064.35 169.073 1063.85 169.12 1063.36 169.12ZM1073.55 169.12C1073.06 169.12 1072.56 169.073 1072.07 168.98C1071.58 168.887 1071.12 168.72 1070.69 168.48C1070.26 168.24 1069.9 167.92 1069.61 167.52C1069.32 167.107 1069.13 166.6 1069.05 166H1071.15C1071.26 166.32 1071.44 166.58 1071.71 166.78C1071.99 166.98 1072.3 167.127 1072.63 167.22C1072.98 167.313 1073.32 167.36 1073.65 167.36C1073.85 167.36 1074.07 167.347 1074.31 167.32C1074.56 167.293 1074.8 167.233 1075.03 167.14C1075.26 167.047 1075.44 166.913 1075.59 166.74C1075.74 166.553 1075.81 166.307 1075.81 166C1075.81 165.76 1075.74 165.56 1075.61 165.4C1075.49 165.24 1075.32 165.113 1075.09 165.02C1074.88 164.913 1074.62 164.833 1074.31 164.78C1073.71 164.647 1073.06 164.52 1072.37 164.4C1071.69 164.267 1071.09 164.04 1070.57 163.72C1070.38 163.6 1070.22 163.467 1070.07 163.32C1069.92 163.16 1069.8 162.98 1069.69 162.78C1069.58 162.58 1069.5 162.367 1069.45 162.14C1069.4 161.913 1069.37 161.667 1069.37 161.4C1069.37 160.853 1069.48 160.387 1069.69 160C1069.92 159.613 1070.22 159.3 1070.61 159.06C1071 158.807 1071.44 158.62 1071.93 158.5C1072.42 158.38 1072.94 158.32 1073.49 158.32C1074.2 158.32 1074.84 158.433 1075.41 158.66C1075.98 158.887 1076.46 159.22 1076.83 159.66C1077.2 160.1 1077.42 160.653 1077.49 161.32H1075.55C1075.47 160.96 1075.24 160.673 1074.85 160.46C1074.48 160.233 1074 160.12 1073.43 160.12C1073.23 160.12 1073.01 160.133 1072.77 160.16C1072.54 160.187 1072.32 160.247 1072.11 160.34C1071.9 160.433 1071.72 160.567 1071.59 160.74C1071.46 160.9 1071.39 161.113 1071.39 161.38C1071.39 161.633 1071.45 161.847 1071.57 162.02C1071.7 162.193 1071.89 162.333 1072.13 162.44C1072.38 162.547 1072.67 162.633 1072.99 162.7C1073.44 162.807 1073.93 162.907 1074.45 163C1074.98 163.093 1075.42 163.193 1075.75 163.3C1076.19 163.42 1076.56 163.593 1076.87 163.82C1077.19 164.047 1077.43 164.333 1077.59 164.68C1077.76 165.027 1077.85 165.447 1077.85 165.94C1077.85 166.58 1077.72 167.107 1077.47 167.52C1077.22 167.92 1076.88 168.24 1076.45 168.48C1076.04 168.72 1075.57 168.887 1075.05 168.98C1074.54 169.073 1074.04 169.12 1073.55 169.12ZM1084.33 169.12C1082.85 169.12 1081.71 168.733 1080.93 167.96C1080.15 167.173 1079.77 165.98 1079.77 164.38V158.46H1081.83V164.26C1081.83 164.887 1081.91 165.427 1082.09 165.88C1082.27 166.333 1082.55 166.68 1082.93 166.92C1083.3 167.16 1083.77 167.28 1084.35 167.28C1084.95 167.28 1085.43 167.16 1085.79 166.92C1086.16 166.667 1086.43 166.313 1086.59 165.86C1086.76 165.407 1086.85 164.873 1086.85 164.26V158.46H1088.91V164.38C1088.91 166.007 1088.51 167.207 1087.71 167.98C1086.92 168.74 1085.79 169.12 1084.33 169.12ZM1091.39 169V158.46H1093.33L1093.43 159.98C1093.7 159.567 1094 159.24 1094.35 159C1094.7 158.76 1095.08 158.587 1095.49 158.48C1095.9 158.373 1096.34 158.32 1096.79 158.32C1096.91 158.32 1097.02 158.32 1097.13 158.32C1097.24 158.32 1097.34 158.32 1097.43 158.32V160.3H1096.79C1096.03 160.3 1095.4 160.453 1094.89 160.76C1094.4 161.067 1094.03 161.493 1093.79 162.04C1093.56 162.587 1093.45 163.213 1093.45 163.92V169H1091.39ZM1102.35 169.12C1101.87 169.12 1101.4 169.06 1100.95 168.94C1100.51 168.807 1100.11 168.613 1099.77 168.36C1099.42 168.093 1099.14 167.767 1098.93 167.38C1098.73 166.98 1098.63 166.513 1098.63 165.98C1098.63 165.34 1098.75 164.813 1098.99 164.4C1099.24 163.973 1099.57 163.647 1099.99 163.42C1100.4 163.18 1100.87 163.013 1101.41 162.92C1101.95 162.813 1102.52 162.76 1103.11 162.76H1105.69C1105.69 162.24 1105.61 161.787 1105.45 161.4C1105.29 161 1105.03 160.693 1104.69 160.48C1104.35 160.253 1103.91 160.14 1103.35 160.14C1103.01 160.14 1102.69 160.18 1102.39 160.26C1102.09 160.327 1101.84 160.44 1101.63 160.6C1101.41 160.76 1101.27 160.973 1101.19 161.24H1099.03C1099.11 160.733 1099.29 160.3 1099.57 159.94C1099.85 159.567 1100.19 159.26 1100.61 159.02C1101.02 158.78 1101.46 158.607 1101.93 158.5C1102.41 158.38 1102.89 158.32 1103.39 158.32C1104.91 158.32 1106 158.767 1106.67 159.66C1107.35 160.54 1107.69 161.753 1107.69 163.3V169H1105.91L1105.83 167.66C1105.52 168.073 1105.15 168.387 1104.73 168.6C1104.31 168.813 1103.9 168.953 1103.49 169.02C1103.07 169.087 1102.69 169.12 1102.35 169.12ZM1102.67 167.38C1103.27 167.38 1103.79 167.28 1104.25 167.08C1104.7 166.867 1105.05 166.567 1105.31 166.18C1105.56 165.78 1105.69 165.313 1105.69 164.78V164.34H1103.81C1103.42 164.34 1103.04 164.353 1102.67 164.38C1102.31 164.393 1101.97 164.447 1101.67 164.54C1101.37 164.62 1101.13 164.76 1100.95 164.96C1100.77 165.16 1100.69 165.447 1100.69 165.82C1100.69 166.18 1100.78 166.473 1100.97 166.7C1101.15 166.927 1101.4 167.1 1101.71 167.22C1102.01 167.327 1102.33 167.38 1102.67 167.38ZM1110.16 169V158.46H1112.12L1112.22 159.94C1112.49 159.553 1112.81 159.247 1113.18 159.02C1113.55 158.78 1113.95 158.607 1114.38 158.5C1114.81 158.38 1115.22 158.32 1115.62 158.32C1116.63 158.32 1117.43 158.54 1118 158.98C1118.59 159.407 1119 159.987 1119.24 160.72C1119.49 161.44 1119.62 162.26 1119.62 163.18V169H1117.54V163.6C1117.54 163.173 1117.51 162.753 1117.46 162.34C1117.41 161.927 1117.29 161.56 1117.12 161.24C1116.96 160.907 1116.73 160.647 1116.42 160.46C1116.11 160.26 1115.7 160.16 1115.18 160.16C1114.54 160.16 1114 160.333 1113.56 160.68C1113.12 161.027 1112.79 161.493 1112.56 162.08C1112.33 162.667 1112.22 163.327 1112.22 164.06V169H1110.16ZM1126.51 169C1125.69 169 1125.01 168.887 1124.49 168.66C1123.97 168.42 1123.59 168.047 1123.33 167.54C1123.09 167.033 1122.97 166.373 1122.97 165.56V160.3H1121.31V158.46H1122.97V155.42H1125.03V158.46H1127.69V160.3H1125.03V165.3C1125.03 165.927 1125.15 166.4 1125.37 166.72C1125.6 167.027 1126.07 167.18 1126.79 167.18H1127.61V169H1126.51ZM1129.46 169V158.46H1131.52V169H1129.46ZM1130.48 157.06C1130.08 157.06 1129.75 156.94 1129.5 156.7C1129.26 156.447 1129.14 156.127 1129.14 155.74C1129.14 155.353 1129.26 155.04 1129.52 154.8C1129.77 154.547 1130.09 154.42 1130.48 154.42C1130.84 154.42 1131.15 154.547 1131.42 154.8C1131.7 155.04 1131.84 155.353 1131.84 155.74C1131.84 156.127 1131.7 156.447 1131.44 156.7C1131.18 156.94 1130.86 157.06 1130.48 157.06ZM1138.7 169.12C1137.6 169.12 1136.67 168.893 1135.92 168.44C1135.18 167.987 1134.61 167.36 1134.22 166.56C1133.85 165.747 1133.66 164.813 1133.66 163.76C1133.66 162.693 1133.86 161.753 1134.24 160.94C1134.64 160.127 1135.22 159.487 1135.96 159.02C1136.72 158.553 1137.64 158.32 1138.7 158.32C1139.52 158.32 1140.22 158.473 1140.82 158.78C1141.42 159.073 1141.92 159.473 1142.3 159.98C1142.7 160.487 1143 161.053 1143.18 161.68C1143.37 162.293 1143.45 162.933 1143.42 163.6C1143.42 163.747 1143.42 163.887 1143.4 164.02C1143.39 164.153 1143.38 164.293 1143.36 164.44H1135.74C1135.78 164.973 1135.92 165.46 1136.14 165.9C1136.38 166.34 1136.72 166.693 1137.14 166.96C1137.57 167.213 1138.1 167.34 1138.72 167.34C1139.07 167.34 1139.4 167.3 1139.72 167.22C1140.06 167.127 1140.35 166.987 1140.6 166.8C1140.87 166.6 1141.06 166.347 1141.16 166.04H1143.24C1143.07 166.747 1142.76 167.333 1142.3 167.8C1141.86 168.253 1141.32 168.587 1140.68 168.8C1140.06 169.013 1139.4 169.12 1138.7 169.12ZM1135.78 162.8H1141.38C1141.37 162.28 1141.25 161.82 1141.02 161.42C1140.8 161.007 1140.48 160.687 1140.08 160.46C1139.68 160.22 1139.2 160.1 1138.64 160.1C1138.03 160.1 1137.52 160.227 1137.1 160.48C1136.7 160.733 1136.39 161.067 1136.16 161.48C1135.95 161.88 1135.82 162.32 1135.78 162.8ZM1155.12 169.12C1153.98 169.12 1153.17 168.813 1152.68 168.2C1152.2 167.573 1151.96 166.7 1151.96 165.58V160.3H1150.28V158.46H1151.96V155.4H1154.02V158.46H1157.24V160.3H1154.02V165.24C1154.02 165.613 1154.05 165.953 1154.12 166.26C1154.2 166.567 1154.34 166.807 1154.56 166.98C1154.77 167.153 1155.08 167.247 1155.48 167.26C1155.78 167.26 1156.05 167.207 1156.28 167.1C1156.52 166.993 1156.71 166.873 1156.86 166.74L1157.66 168.28C1157.4 168.48 1157.14 168.647 1156.86 168.78C1156.59 168.9 1156.31 168.987 1156.02 169.04C1155.72 169.093 1155.42 169.12 1155.12 169.12ZM1163.84 169.12C1162.75 169.12 1161.82 168.9 1161.06 168.46C1160.3 168.007 1159.72 167.373 1159.32 166.56C1158.94 165.747 1158.74 164.807 1158.74 163.74C1158.74 162.66 1158.94 161.72 1159.34 160.92C1159.74 160.107 1160.32 159.473 1161.08 159.02C1161.84 158.553 1162.77 158.32 1163.86 158.32C1164.96 158.32 1165.88 158.553 1166.64 159.02C1167.4 159.473 1167.98 160.107 1168.36 160.92C1168.75 161.733 1168.94 162.68 1168.94 163.76C1168.94 164.813 1168.74 165.747 1168.34 166.56C1167.96 167.373 1167.38 168.007 1166.62 168.46C1165.88 168.9 1164.95 169.12 1163.84 169.12ZM1163.84 167.28C1164.56 167.28 1165.14 167.12 1165.58 166.8C1166.04 166.48 1166.37 166.053 1166.58 165.52C1166.8 164.973 1166.9 164.38 1166.9 163.74C1166.9 163.1 1166.8 162.513 1166.58 161.98C1166.37 161.447 1166.04 161.02 1165.58 160.7C1165.14 160.367 1164.56 160.2 1163.84 160.2C1163.14 160.2 1162.56 160.367 1162.1 160.7C1161.65 161.02 1161.32 161.447 1161.1 161.98C1160.9 162.513 1160.8 163.1 1160.8 163.74C1160.8 164.393 1160.9 164.987 1161.1 165.52C1161.32 166.053 1161.65 166.48 1162.1 166.8C1162.56 167.12 1163.14 167.28 1163.84 167.28ZM1175.76 169.12C1174.66 169.12 1173.74 168.9 1172.98 168.46C1172.22 168.007 1171.64 167.373 1171.24 166.56C1170.85 165.747 1170.66 164.807 1170.66 163.74C1170.66 162.66 1170.86 161.72 1171.26 160.92C1171.66 160.107 1172.24 159.473 1173 159.02C1173.76 158.553 1174.68 158.32 1175.78 158.32C1176.87 158.32 1177.8 158.553 1178.56 159.02C1179.32 159.473 1179.89 160.107 1180.28 160.92C1180.66 161.733 1180.86 162.68 1180.86 163.76C1180.86 164.813 1180.66 165.747 1180.26 166.56C1179.87 167.373 1179.3 168.007 1178.54 168.46C1177.79 168.9 1176.86 169.12 1175.76 169.12ZM1175.76 167.28C1176.48 167.28 1177.06 167.12 1177.5 166.8C1177.95 166.48 1178.28 166.053 1178.5 165.52C1178.71 164.973 1178.82 164.38 1178.82 163.74C1178.82 163.1 1178.71 162.513 1178.5 161.98C1178.28 161.447 1177.95 161.02 1177.5 160.7C1177.06 160.367 1176.48 160.2 1175.76 160.2C1175.05 160.2 1174.47 160.367 1174.02 160.7C1173.56 161.02 1173.23 161.447 1173.02 161.98C1172.82 162.513 1172.72 163.1 1172.72 163.74C1172.72 164.393 1172.82 164.987 1173.02 165.52C1173.23 166.053 1173.56 166.48 1174.02 166.8C1174.47 167.12 1175.05 167.28 1175.76 167.28ZM1182.97 169V154.86H1185.03V169H1182.97ZM1191.52 169.12C1191.03 169.12 1190.53 169.073 1190.04 168.98C1189.55 168.887 1189.09 168.72 1188.66 168.48C1188.23 168.24 1187.87 167.92 1187.58 167.52C1187.29 167.107 1187.1 166.6 1187.02 166H1189.12C1189.23 166.32 1189.41 166.58 1189.68 166.78C1189.96 166.98 1190.27 167.127 1190.6 167.22C1190.95 167.313 1191.29 167.36 1191.62 167.36C1191.82 167.36 1192.04 167.347 1192.28 167.32C1192.53 167.293 1192.77 167.233 1193 167.14C1193.23 167.047 1193.41 166.913 1193.56 166.74C1193.71 166.553 1193.78 166.307 1193.78 166C1193.78 165.76 1193.71 165.56 1193.58 165.4C1193.46 165.24 1193.29 165.113 1193.06 165.02C1192.85 164.913 1192.59 164.833 1192.28 164.78C1191.68 164.647 1191.03 164.52 1190.34 164.4C1189.66 164.267 1189.06 164.04 1188.54 163.72C1188.35 163.6 1188.19 163.467 1188.04 163.32C1187.89 163.16 1187.77 162.98 1187.66 162.78C1187.55 162.58 1187.47 162.367 1187.42 162.14C1187.37 161.913 1187.34 161.667 1187.34 161.4C1187.34 160.853 1187.45 160.387 1187.66 160C1187.89 159.613 1188.19 159.3 1188.58 159.06C1188.97 158.807 1189.41 158.62 1189.9 158.5C1190.39 158.38 1190.91 158.32 1191.46 158.32C1192.17 158.32 1192.81 158.433 1193.38 158.66C1193.95 158.887 1194.43 159.22 1194.8 159.66C1195.17 160.1 1195.39 160.653 1195.46 161.32H1193.52C1193.44 160.96 1193.21 160.673 1192.82 160.46C1192.45 160.233 1191.97 160.12 1191.4 160.12C1191.2 160.12 1190.98 160.133 1190.74 160.16C1190.51 160.187 1190.29 160.247 1190.08 160.34C1189.87 160.433 1189.69 160.567 1189.56 160.74C1189.43 160.9 1189.36 161.113 1189.36 161.38C1189.36 161.633 1189.42 161.847 1189.54 162.02C1189.67 162.193 1189.86 162.333 1190.1 162.44C1190.35 162.547 1190.64 162.633 1190.96 162.7C1191.41 162.807 1191.9 162.907 1192.42 163C1192.95 163.093 1193.39 163.193 1193.72 163.3C1194.16 163.42 1194.53 163.593 1194.84 163.82C1195.16 164.047 1195.4 164.333 1195.56 164.68C1195.73 165.027 1195.82 165.447 1195.82 165.94C1195.82 166.58 1195.69 167.107 1195.44 167.52C1195.19 167.92 1194.85 168.24 1194.42 168.48C1194.01 168.72 1193.54 168.887 1193.02 168.98C1192.51 169.073 1192.01 169.12 1191.52 169.12Z" fill="#030712"/>
</g>
<g filter="url(#filter4_dd_105_499)">
<rect x="976" y="242" width="260" height="80" rx="16" fill="white"/>
<rect x="976.5" y="242.5" width="259" height="79" rx="15.5" stroke="#E5E7EB"/>
<path d="M1015.47 288.4C1015.33 288.908 1015.09 289.383 1014.76 289.798C1014.44 290.214 1014.04 290.562 1013.58 290.822C1013.12 291.082 1012.62 291.249 1012.09 291.314C1011.57 291.379 1011.04 291.34 1010.53 291.2C1010.03 291.06 1009.55 290.821 1009.13 290.497C1008.72 290.174 1008.37 289.771 1008.11 289.313C1007.85 288.855 1007.68 288.35 1007.62 287.828C1007.55 287.305 1007.59 286.774 1007.73 286.267M1004 280.667L1028 274V290L1004 284.667V280.667Z" stroke="#5B59F8" stroke-width="3" stroke-linecap="round" stroke-linejoin="round"/>
<path d="M1046.06 289V274.86H1049.08L1053.18 282.32L1057.2 274.86H1060.14V289H1058.04V277.36L1053.58 285.48H1052.66L1048.18 277.36V289H1046.06ZM1066.43 289.12C1065.95 289.12 1065.48 289.06 1065.03 288.94C1064.59 288.807 1064.19 288.613 1063.85 288.36C1063.5 288.093 1063.22 287.767 1063.01 287.38C1062.81 286.98 1062.71 286.513 1062.71 285.98C1062.71 285.34 1062.83 284.813 1063.07 284.4C1063.32 283.973 1063.65 283.647 1064.07 283.42C1064.48 283.18 1064.95 283.013 1065.49 282.92C1066.03 282.813 1066.6 282.76 1067.19 282.76H1069.77C1069.77 282.24 1069.69 281.787 1069.53 281.4C1069.37 281 1069.11 280.693 1068.77 280.48C1068.43 280.253 1067.99 280.14 1067.43 280.14C1067.09 280.14 1066.77 280.18 1066.47 280.26C1066.17 280.327 1065.92 280.44 1065.71 280.6C1065.49 280.76 1065.35 280.973 1065.27 281.24H1063.11C1063.19 280.733 1063.37 280.3 1063.65 279.94C1063.93 279.567 1064.27 279.26 1064.69 279.02C1065.1 278.78 1065.54 278.607 1066.01 278.5C1066.49 278.38 1066.97 278.32 1067.47 278.32C1068.99 278.32 1070.08 278.767 1070.75 279.66C1071.43 280.54 1071.77 281.753 1071.77 283.3V289H1069.99L1069.91 287.66C1069.6 288.073 1069.23 288.387 1068.81 288.6C1068.39 288.813 1067.98 288.953 1067.57 289.02C1067.15 289.087 1066.77 289.12 1066.43 289.12ZM1066.75 287.38C1067.35 287.38 1067.87 287.28 1068.33 287.08C1068.78 286.867 1069.13 286.567 1069.39 286.18C1069.64 285.78 1069.77 285.313 1069.77 284.78V284.34H1067.89C1067.5 284.34 1067.12 284.353 1066.75 284.38C1066.39 284.393 1066.05 284.447 1065.75 284.54C1065.45 284.62 1065.21 284.76 1065.03 284.96C1064.85 285.16 1064.77 285.447 1064.77 285.82C1064.77 286.18 1064.86 286.473 1065.05 286.7C1065.23 286.927 1065.48 287.1 1065.79 287.22C1066.09 287.327 1066.41 287.38 1066.75 287.38ZM1074.24 289V278.46H1076.18L1076.28 279.98C1076.55 279.567 1076.85 279.24 1077.2 279C1077.55 278.76 1077.93 278.587 1078.34 278.48C1078.75 278.373 1079.19 278.32 1079.64 278.32C1079.76 278.32 1079.87 278.32 1079.98 278.32C1080.09 278.32 1080.19 278.32 1080.28 278.32V280.3H1079.64C1078.88 280.3 1078.25 280.453 1077.74 280.76C1077.25 281.067 1076.88 281.493 1076.64 282.04C1076.41 282.587 1076.3 283.213 1076.3 283.92V289H1074.24ZM1081.84 289V274.86H1083.9V282.84H1085.6L1088.56 278.46H1090.88L1087.42 283.48L1091.18 289H1088.76L1085.76 284.66H1083.9V289H1081.84ZM1097.14 289.12C1096.03 289.12 1095.11 288.893 1094.36 288.44C1093.61 287.987 1093.05 287.36 1092.66 286.56C1092.29 285.747 1092.1 284.813 1092.1 283.76C1092.1 282.693 1092.29 281.753 1092.68 280.94C1093.08 280.127 1093.65 279.487 1094.4 279.02C1095.16 278.553 1096.07 278.32 1097.14 278.32C1097.95 278.32 1098.66 278.473 1099.26 278.78C1099.86 279.073 1100.35 279.473 1100.74 279.98C1101.14 280.487 1101.43 281.053 1101.62 281.68C1101.81 282.293 1101.89 282.933 1101.86 283.6C1101.86 283.747 1101.85 283.887 1101.84 284.02C1101.83 284.153 1101.81 284.293 1101.8 284.44H1094.18C1094.22 284.973 1094.35 285.46 1094.58 285.9C1094.82 286.34 1095.15 286.693 1095.58 286.96C1096.01 287.213 1096.53 287.34 1097.16 287.34C1097.51 287.34 1097.84 287.3 1098.16 287.22C1098.49 287.127 1098.79 286.987 1099.04 286.8C1099.31 286.6 1099.49 286.347 1099.6 286.04H1101.68C1101.51 286.747 1101.19 287.333 1100.74 287.8C1100.3 288.253 1099.76 288.587 1099.12 288.8C1098.49 289.013 1097.83 289.12 1097.14 289.12ZM1094.22 282.8H1099.82C1099.81 282.28 1099.69 281.82 1099.46 281.42C1099.23 281.007 1098.92 280.687 1098.52 280.46C1098.12 280.22 1097.64 280.1 1097.08 280.1C1096.47 280.1 1095.95 280.227 1095.54 280.48C1095.14 280.733 1094.83 281.067 1094.6 281.48C1094.39 281.88 1094.26 282.32 1094.22 282.8ZM1108.42 289C1107.6 289 1106.92 288.887 1106.4 288.66C1105.88 288.42 1105.5 288.047 1105.24 287.54C1105 287.033 1104.88 286.373 1104.88 285.56V280.3H1103.22V278.46H1104.88V275.42H1106.94V278.46H1109.6V280.3H1106.94V285.3C1106.94 285.927 1107.06 286.4 1107.28 286.72C1107.51 287.027 1107.98 287.18 1108.7 287.18H1109.52V289H1108.42ZM1111.37 289V278.46H1113.43V289H1111.37ZM1112.39 277.06C1111.99 277.06 1111.66 276.94 1111.41 276.7C1111.17 276.447 1111.05 276.127 1111.05 275.74C1111.05 275.353 1111.17 275.04 1111.43 274.8C1111.68 274.547 1112 274.42 1112.39 274.42C1112.75 274.42 1113.06 274.547 1113.33 274.8C1113.61 275.04 1113.75 275.353 1113.75 275.74C1113.75 276.127 1113.61 276.447 1113.35 276.7C1113.09 276.94 1112.77 277.06 1112.39 277.06ZM1115.98 289V278.46H1117.94L1118.04 279.94C1118.3 279.553 1118.62 279.247 1119 279.02C1119.37 278.78 1119.77 278.607 1120.2 278.5C1120.62 278.38 1121.04 278.32 1121.44 278.32C1122.45 278.32 1123.24 278.54 1123.82 278.98C1124.4 279.407 1124.82 279.987 1125.06 280.72C1125.31 281.44 1125.44 282.26 1125.44 283.18V289H1123.36V283.6C1123.36 283.173 1123.33 282.753 1123.28 282.34C1123.22 281.927 1123.11 281.56 1122.94 281.24C1122.78 280.907 1122.54 280.647 1122.24 280.46C1121.93 280.26 1121.52 280.16 1121 280.16C1120.36 280.16 1119.82 280.333 1119.38 280.68C1118.94 281.027 1118.6 281.493 1118.38 282.08C1118.15 282.667 1118.04 283.327 1118.04 284.06V289H1115.98ZM1132.63 293.78C1131.88 293.78 1131.19 293.66 1130.55 293.42C1129.91 293.193 1129.36 292.827 1128.91 292.32C1128.47 291.827 1128.17 291.193 1128.01 290.42H1130.15C1130.24 290.78 1130.42 291.067 1130.69 291.28C1130.96 291.507 1131.27 291.667 1131.63 291.76C1131.99 291.853 1132.35 291.9 1132.71 291.9C1133.39 291.9 1133.94 291.76 1134.35 291.48C1134.76 291.2 1135.06 290.82 1135.23 290.34C1135.42 289.873 1135.51 289.34 1135.51 288.74V287.52C1135.28 287.907 1134.98 288.22 1134.61 288.46C1134.24 288.7 1133.84 288.873 1133.41 288.98C1133 289.073 1132.57 289.12 1132.13 289.12C1131.05 289.12 1130.17 288.88 1129.49 288.4C1128.81 287.92 1128.3 287.28 1127.97 286.48C1127.65 285.667 1127.49 284.767 1127.49 283.78C1127.49 282.767 1127.66 281.847 1127.99 281.02C1128.34 280.193 1128.86 279.54 1129.57 279.06C1130.28 278.567 1131.17 278.32 1132.25 278.32C1132.88 278.32 1133.48 278.433 1134.07 278.66C1134.66 278.873 1135.14 279.22 1135.53 279.7L1135.65 278.46H1137.59V288.5C1137.59 289.58 1137.42 290.513 1137.07 291.3C1136.72 292.1 1136.18 292.713 1135.45 293.14C1134.72 293.567 1133.78 293.78 1132.63 293.78ZM1132.51 287.28C1133.18 287.28 1133.73 287.12 1134.17 286.8C1134.62 286.467 1134.96 286.027 1135.19 285.48C1135.42 284.933 1135.53 284.333 1135.53 283.68C1135.53 283.013 1135.42 282.42 1135.19 281.9C1134.96 281.367 1134.63 280.947 1134.19 280.64C1133.75 280.333 1133.18 280.18 1132.49 280.18C1131.77 280.18 1131.2 280.347 1130.77 280.68C1130.34 281 1130.03 281.433 1129.83 281.98C1129.64 282.513 1129.55 283.107 1129.55 283.76C1129.55 284.427 1129.65 285.027 1129.85 285.56C1130.05 286.093 1130.36 286.513 1130.79 286.82C1131.23 287.127 1131.8 287.28 1132.51 287.28ZM1144.2 289.12C1143.06 289.12 1142.25 288.813 1141.76 288.2C1141.28 287.573 1141.04 286.7 1141.04 285.58V280.3H1139.36V278.46H1141.04V275.4H1143.1V278.46H1146.32V280.3H1143.1V285.24C1143.1 285.613 1143.13 285.953 1143.2 286.26C1143.28 286.567 1143.42 286.807 1143.64 286.98C1143.85 287.153 1144.16 287.247 1144.56 287.26C1144.86 287.26 1145.13 287.207 1145.36 287.1C1145.6 286.993 1145.79 286.873 1145.94 286.74L1146.74 288.28C1146.48 288.48 1146.22 288.647 1145.94 288.78C1145.67 288.9 1145.39 288.987 1145.1 289.04C1144.8 289.093 1144.5 289.12 1144.2 289.12ZM1152.92 289.12C1151.83 289.12 1150.9 288.9 1150.14 288.46C1149.38 288.007 1148.8 287.373 1148.4 286.56C1148.02 285.747 1147.82 284.807 1147.82 283.74C1147.82 282.66 1148.02 281.72 1148.42 280.92C1148.82 280.107 1149.4 279.473 1150.16 279.02C1150.92 278.553 1151.85 278.32 1152.94 278.32C1154.04 278.32 1154.96 278.553 1155.72 279.02C1156.48 279.473 1157.06 280.107 1157.44 280.92C1157.83 281.733 1158.02 282.68 1158.02 283.76C1158.02 284.813 1157.82 285.747 1157.42 286.56C1157.04 287.373 1156.46 288.007 1155.7 288.46C1154.96 288.9 1154.03 289.12 1152.92 289.12ZM1152.92 287.28C1153.64 287.28 1154.22 287.12 1154.66 286.8C1155.12 286.48 1155.45 286.053 1155.66 285.52C1155.88 284.973 1155.98 284.38 1155.98 283.74C1155.98 283.1 1155.88 282.513 1155.66 281.98C1155.45 281.447 1155.12 281.02 1154.66 280.7C1154.22 280.367 1153.64 280.2 1152.92 280.2C1152.22 280.2 1151.64 280.367 1151.18 280.7C1150.73 281.02 1150.4 281.447 1150.18 281.98C1149.98 282.513 1149.88 283.1 1149.88 283.74C1149.88 284.393 1149.98 284.987 1150.18 285.52C1150.4 286.053 1150.73 286.48 1151.18 286.8C1151.64 287.12 1152.22 287.28 1152.92 287.28ZM1164.84 289.12C1163.74 289.12 1162.82 288.9 1162.06 288.46C1161.3 288.007 1160.72 287.373 1160.32 286.56C1159.93 285.747 1159.74 284.807 1159.74 283.74C1159.74 282.66 1159.94 281.72 1160.34 280.92C1160.74 280.107 1161.32 279.473 1162.08 279.02C1162.84 278.553 1163.76 278.32 1164.86 278.32C1165.95 278.32 1166.88 278.553 1167.64 279.02C1168.4 279.473 1168.97 280.107 1169.36 280.92C1169.74 281.733 1169.94 282.68 1169.94 283.76C1169.94 284.813 1169.74 285.747 1169.34 286.56C1168.95 287.373 1168.38 288.007 1167.62 288.46C1166.87 288.9 1165.94 289.12 1164.84 289.12ZM1164.84 287.28C1165.56 287.28 1166.14 287.12 1166.58 286.8C1167.03 286.48 1167.36 286.053 1167.58 285.52C1167.79 284.973 1167.9 284.38 1167.9 283.74C1167.9 283.1 1167.79 282.513 1167.58 281.98C1167.36 281.447 1167.03 281.02 1166.58 280.7C1166.14 280.367 1165.56 280.2 1164.84 280.2C1164.13 280.2 1163.55 280.367 1163.1 280.7C1162.64 281.02 1162.31 281.447 1162.1 281.98C1161.9 282.513 1161.8 283.1 1161.8 283.74C1161.8 284.393 1161.9 284.987 1162.1 285.52C1162.31 286.053 1162.64 286.48 1163.1 286.8C1163.55 287.12 1164.13 287.28 1164.84 287.28ZM1172.05 289V274.86H1174.11V289H1172.05ZM1180.6 289.12C1180.11 289.12 1179.61 289.073 1179.12 288.98C1178.63 288.887 1178.17 288.72 1177.74 288.48C1177.31 288.24 1176.95 287.92 1176.66 287.52C1176.37 287.107 1176.18 286.6 1176.1 286H1178.2C1178.31 286.32 1178.49 286.58 1178.76 286.78C1179.04 286.98 1179.35 287.127 1179.68 287.22C1180.03 287.313 1180.37 287.36 1180.7 287.36C1180.9 287.36 1181.12 287.347 1181.36 287.32C1181.61 287.293 1181.85 287.233 1182.08 287.14C1182.31 287.047 1182.49 286.913 1182.64 286.74C1182.79 286.553 1182.86 286.307 1182.86 286C1182.86 285.76 1182.79 285.56 1182.66 285.4C1182.54 285.24 1182.37 285.113 1182.14 285.02C1181.93 284.913 1181.67 284.833 1181.36 284.78C1180.76 284.647 1180.11 284.52 1179.42 284.4C1178.74 284.267 1178.14 284.04 1177.62 283.72C1177.43 283.6 1177.27 283.467 1177.12 283.32C1176.97 283.16 1176.85 282.98 1176.74 282.78C1176.63 282.58 1176.55 282.367 1176.5 282.14C1176.45 281.913 1176.42 281.667 1176.42 281.4C1176.42 280.853 1176.53 280.387 1176.74 280C1176.97 279.613 1177.27 279.3 1177.66 279.06C1178.05 278.807 1178.49 278.62 1178.98 278.5C1179.47 278.38 1179.99 278.32 1180.54 278.32C1181.25 278.32 1181.89 278.433 1182.46 278.66C1183.03 278.887 1183.51 279.22 1183.88 279.66C1184.25 280.1 1184.47 280.653 1184.54 281.32H1182.6C1182.52 280.96 1182.29 280.673 1181.9 280.46C1181.53 280.233 1181.05 280.12 1180.48 280.12C1180.28 280.12 1180.06 280.133 1179.82 280.16C1179.59 280.187 1179.37 280.247 1179.16 280.34C1178.95 280.433 1178.77 280.567 1178.64 280.74C1178.51 280.9 1178.44 281.113 1178.44 281.38C1178.44 281.633 1178.5 281.847 1178.62 282.02C1178.75 282.193 1178.94 282.333 1179.18 282.44C1179.43 282.547 1179.72 282.633 1180.04 282.7C1180.49 282.807 1180.98 282.907 1181.5 283C1182.03 283.093 1182.47 283.193 1182.8 283.3C1183.24 283.42 1183.61 283.593 1183.92 283.82C1184.24 284.047 1184.48 284.333 1184.64 284.68C1184.81 285.027 1184.9 285.447 1184.9 285.94C1184.9 286.58 1184.77 287.107 1184.52 287.52C1184.27 287.92 1183.93 288.24 1183.5 288.48C1183.09 288.72 1182.62 288.887 1182.1 288.98C1181.59 289.073 1181.09 289.12 1180.6 289.12Z" fill="#030712"/>
</g>
<line x1="606" y1="162" x2="976" y2="162" stroke="#E5E7EB" stroke-width="2"/>
<defs>
<filter id="filter0_d_105_499" x="328" y="64" width="316" height="196" filterUnits="userSpaceOnUse" color-interpolation-filters="sRGB">
<feFlood flood-opacity="0" result="BackgroundImageFix"/>
<feColorMatrix in="SourceAlpha" type="matrix" values="0 0 0 0 0 0 0 0 0 0 0 0 0 0 0 0 0 0 127 0" result="hardAlpha"/>
<feMorphology radius="12" operator="erode" in="SourceAlpha" result="effect1_dropShadow_105_499"/>
<feOffset/>
<feGaussianBlur stdDeviation="25"/>
<feComposite in2="hardAlpha" operator="out"/>
<feColorMatrix type="matrix" values="0 0 0 0 0.357627 0 0 0 0 0.3472 0 0 0 0 0.9728 0 0 0 0.25 0"/>
<feBlend mode="normal" in2="BackgroundImageFix" result="effect1_dropShadow_105_499"/>
<feBlend mode="normal" in="SourceGraphic" in2="effect1_dropShadow_105_499" result="shape"/>
</filter>
<filter id="filter1_d_105_499" x="409.119" y="142.842" width="42.3915" height="42.3915" filterUnits="userSpaceOnUse" color-interpolation-filters="sRGB">
<feFlood flood-opacity="0" result="BackgroundImageFix"/>
<feColorMatrix in="SourceAlpha" type="matrix" values="0 0 0 0 0 0 0 0 0 0 0 0 0 0 0 0 0 0 127 0" result="hardAlpha"/>
<feOffset dy="1.81818"/>
<feGaussianBlur stdDeviation="4.54545"/>
<feComposite in2="hardAlpha" operator="out"/>
<feColorMatrix type="matrix" values="0 0 0 0 0.207843 0 0 0 0 0.192157 0 0 0 0 0.635294 0 0 0 1 0"/>
<feBlend mode="normal" in2="BackgroundImageFix" result="effect1_dropShadow_105_499"/>
<feBlend mode="normal" in="SourceGraphic" in2="effect1_dropShadow_105_499" result="shape"/>
</filter>
<filter id="filter2_dd_105_499" x="964" y="0" width="284" height="104" filterUnits="userSpaceOnUse" color-interpolation-filters="sRGB">
<feFlood flood-opacity="0" result="BackgroundImageFix"/>
<feColorMatrix in="SourceAlpha" type="matrix" values="0 0 0 0 0 0 0 0 0 0 0 0 0 0 0 0 0 0 127 0" result="hardAlpha"/>
<feMorphology radius="4" operator="erode" in="SourceAlpha" result="effect1_dropShadow_105_499"/>
<feOffset dy="4"/>
<feGaussianBlur stdDeviation="3"/>
<feComposite in2="hardAlpha" operator="out"/>
<feColorMatrix type="matrix" values="0 0 0 0 0 0 0 0 0 0 0 0 0 0 0 0 0 0 0.1 0"/>
<feBlend mode="normal" in2="BackgroundImageFix" result="effect1_dropShadow_105_499"/>
<feColorMatrix in="SourceAlpha" type="matrix" values="0 0 0 0 0 0 0 0 0 0 0 0 0 0 0 0 0 0 127 0" result="hardAlpha"/>
<feMorphology radius="3" operator="erode" in="SourceAlpha" result="effect2_dropShadow_105_499"/>
<feOffset dy="10"/>
<feGaussianBlur stdDeviation="7.5"/>
<feComposite in2="hardAlpha" operator="out"/>
<feColorMatrix type="matrix" values="0 0 0 0 0 0 0 0 0 0 0 0 0 0 0 0 0 0 0.1 0"/>
<feBlend mode="normal" in2="effect1_dropShadow_105_499" result="effect2_dropShadow_105_499"/>
<feBlend mode="normal" in="SourceGraphic" in2="effect2_dropShadow_105_499" result="shape"/>
</filter>
<filter id="filter3_dd_105_499" x="964" y="120" width="284" height="104" filterUnits="userSpaceOnUse" color-interpolation-filters="sRGB">
<feFlood flood-opacity="0" result="BackgroundImageFix"/>
<feColorMatrix in="SourceAlpha" type="matrix" values="0 0 0 0 0 0 0 0 0 0 0 0 0 0 0 0 0 0 127 0" result="hardAlpha"/>
<feMorphology radius="4" operator="erode" in="SourceAlpha" result="effect1_dropShadow_105_499"/>
<feOffset dy="4"/>
<feGaussianBlur stdDeviation="3"/>
<feComposite in2="hardAlpha" operator="out"/>
<feColorMatrix type="matrix" values="0 0 0 0 0 0 0 0 0 0 0 0 0 0 0 0 0 0 0.1 0"/>
<feBlend mode="normal" in2="BackgroundImageFix" result="effect1_dropShadow_105_499"/>
<feColorMatrix in="SourceAlpha" type="matrix" values="0 0 0 0 0 0 0 0 0 0 0 0 0 0 0 0 0 0 127 0" result="hardAlpha"/>
<feMorphology radius="3" operator="erode" in="SourceAlpha" result="effect2_dropShadow_105_499"/>
<feOffset dy="10"/>
<feGaussianBlur stdDeviation="7.5"/>
<feComposite in2="hardAlpha" operator="out"/>
<feColorMatrix type="matrix" values="0 0 0 0 0 0 0 0 0 0 0 0 0 0 0 0 0 0 0.1 0"/>
<feBlend mode="normal" in2="effect1_dropShadow_105_499" result="effect2_dropShadow_105_499"/>
<feBlend mode="normal" in="SourceGraphic" in2="effect2_dropShadow_105_499" result="shape"/>
</filter>
<filter id="filter4_dd_105_499" x="964" y="240" width="284" height="104" filterUnits="userSpaceOnUse" color-interpolation-filters="sRGB">
<feFlood flood-opacity="0" result="BackgroundImageFix"/>
<feColorMatrix in="SourceAlpha" type="matrix" values="0 0 0 0 0 0 0 0 0 0 0 0 0 0 0 0 0 0 127 0" result="hardAlpha"/>
<feMorphology radius="4" operator="erode" in="SourceAlpha" result="effect1_dropShadow_105_499"/>
<feOffset dy="4"/>
<feGaussianBlur stdDeviation="3"/>
<feComposite in2="hardAlpha" operator="out"/>
<feColorMatrix type="matrix" values="0 0 0 0 0 0 0 0 0 0 0 0 0 0 0 0 0 0 0.1 0"/>
<feBlend mode="normal" in2="BackgroundImageFix" result="effect1_dropShadow_105_499"/>
<feColorMatrix in="SourceAlpha" type="matrix" values="0 0 0 0 0 0 0 0 0 0 0 0 0 0 0 0 0 0 127 0" result="hardAlpha"/>
<feMorphology radius="3" operator="erode" in="SourceAlpha" result="effect2_dropShadow_105_499"/>
<feOffset dy="10"/>
<feGaussianBlur stdDeviation="7.5"/>
<feComposite in2="hardAlpha" operator="out"/>
<feColorMatrix type="matrix" values="0 0 0 0 0 0 0 0 0 0 0 0 0 0 0 0 0 0 0.1 0"/>
<feBlend mode="normal" in2="effect1_dropShadow_105_499" result="effect2_dropShadow_105_499"/>
<feBlend mode="normal" in="SourceGraphic" in2="effect2_dropShadow_105_499" result="shape"/>
</filter>
<linearGradient id="paint0_linear_105_499" x1="0" y1="162.5" x2="366" y2="162.5" gradientUnits="userSpaceOnUse">
<stop stop-color="#E8EBED" stop-opacity="0"/>
<stop offset="1" stop-color="#E5E7EB"/>
</linearGradient>
<linearGradient id="paint1_linear_105_499" x1="485.604" y1="150.631" x2="485.604" y2="177.873" gradientUnits="userSpaceOnUse">
<stop stop-color="#0A0A0A"/>
<stop offset="1" stop-color="#16136C"/>
</linearGradient>
<linearGradient id="paint2_linear_105_499" x1="485.604" y1="150.631" x2="485.604" y2="177.873" gradientUnits="userSpaceOnUse">
<stop stop-color="#0A0A0A"/>
<stop offset="1" stop-color="#16136C"/>
</linearGradient>
<linearGradient id="paint3_linear_105_499" x1="485.604" y1="150.631" x2="485.604" y2="177.873" gradientUnits="userSpaceOnUse">
<stop stop-color="#0A0A0A"/>
<stop offset="1" stop-color="#16136C"/>
</linearGradient>
<linearGradient id="paint4_linear_105_499" x1="485.604" y1="150.631" x2="485.604" y2="177.873" gradientUnits="userSpaceOnUse">
<stop stop-color="#0A0A0A"/>
<stop offset="1" stop-color="#16136C"/>
</linearGradient>
<linearGradient id="paint5_linear_105_499" x1="485.604" y1="150.631" x2="485.604" y2="177.873" gradientUnits="userSpaceOnUse">
<stop stop-color="#0A0A0A"/>
<stop offset="1" stop-color="#16136C"/>
</linearGradient>
<linearGradient id="paint6_linear_105_499" x1="485.604" y1="150.631" x2="485.604" y2="177.873" gradientUnits="userSpaceOnUse">
<stop stop-color="#0A0A0A"/>
<stop offset="1" stop-color="#16136C"/>
</linearGradient>
<linearGradient id="paint7_linear_105_499" x1="429.911" y1="142.001" x2="430.271" y2="181.999" gradientUnits="userSpaceOnUse">
<stop stop-color="#6B66FF"/>
<stop offset="1" stop-color="#3A33FF"/>
</linearGradient>
<linearGradient id="paint8_linear_105_499" x1="430.249" y1="174.371" x2="430.032" y2="150.293" gradientUnits="userSpaceOnUse">
<stop stop-color="#9ACDFF"/>
<stop offset="1" stop-color="#BADAFF"/>
</linearGradient>
<clipPath id="clip0_105_499">
<rect width="151.818" height="40" fill="white" transform="translate(410.091 142)"/>
</clipPath>
<clipPath id="clip1_105_499">
<rect width="40" height="40" fill="white" transform="translate(409.912 142.181) rotate(-0.515124)"/>
</clipPath>
</defs>
</svg>
