<svg width="676" height="625" viewBox="0 0 676 625" fill="none" xmlns="http://www.w3.org/2000/svg">
<line x1="339.5" x2="339.5" y2="200" stroke="url(#paint0_linear_131_405)" stroke-width="3"/>
<path d="M338.874 319.175L338.874 366.175C338.874 377.221 329.92 386.175 318.874 386.175L133 386.175C121.954 386.175 113 395.129 113 406.175L113 501.5" stroke="#E5E7EB" stroke-width="2"/>
<path d="M339.126 319.175L339.126 366.175C339.126 377.221 348.08 386.175 359.126 386.175L543 386.175C554.046 386.175 563 395.129 563 406.175L563 502" stroke="#E5E7EB" stroke-width="2"/>
<g filter="url(#filter0_d_131_405)">
<rect x="218" y="200" width="240" height="120" rx="16" fill="white"/>
<rect x="218.5" y="200.5" width="239" height="119" rx="15.5" stroke="#E5E7EB"/>
<g clip-path="url(#clip0_131_405)">
<path d="M313.909 271.03V248.514H318.155V271.03H313.909Z" fill="url(#paint1_linear_131_405)"/>
<path d="M323.311 271.03V254.095H327.1L327.264 258.852L326.774 258.662C326.948 257.478 327.307 256.526 327.851 255.808C328.396 255.089 329.06 254.56 329.844 254.222C330.628 253.884 331.488 253.715 332.424 253.715C333.709 253.715 334.787 253.989 335.658 254.539C336.551 255.089 337.226 255.85 337.683 256.822C338.14 257.774 338.369 258.884 338.369 260.152V271.03H334.188V261.452C334.188 260.501 334.09 259.698 333.894 259.042C333.698 258.387 333.371 257.89 332.914 257.552C332.479 257.192 331.891 257.013 331.15 257.013C330.04 257.013 329.147 257.393 328.472 258.154C327.819 258.915 327.492 260.015 327.492 261.452V271.03H323.311Z" fill="url(#paint2_linear_131_405)"/>
<path d="M349.601 271.41C347.881 271.41 346.433 271.167 345.257 270.681C344.103 270.194 343.21 269.518 342.579 268.651C341.947 267.784 341.588 266.801 341.501 265.702L345.78 265.512C345.932 266.4 346.313 267.087 346.923 267.573C347.533 268.059 348.436 268.302 349.634 268.302C350.614 268.302 351.376 268.154 351.92 267.858C352.487 267.541 352.77 267.055 352.77 266.4C352.77 266.019 352.672 265.702 352.476 265.448C352.28 265.194 351.91 264.972 351.365 264.782C350.821 264.592 350.015 264.402 348.948 264.211C347.163 263.915 345.758 263.556 344.735 263.133C343.711 262.689 342.982 262.139 342.546 261.484C342.132 260.829 341.926 260.015 341.926 259.042C341.926 257.457 342.546 256.178 343.787 255.205C345.05 254.211 346.89 253.715 349.307 253.715C350.875 253.715 352.193 253.968 353.26 254.476C354.327 254.962 355.154 255.638 355.742 256.505C356.352 257.351 356.733 258.323 356.885 259.423L352.672 259.613C352.563 259.042 352.367 258.545 352.084 258.123C351.801 257.7 351.42 257.383 350.941 257.171C350.461 256.939 349.895 256.822 349.242 256.822C348.262 256.822 347.522 257.013 347.021 257.393C346.52 257.774 346.27 258.281 346.27 258.915C346.27 259.359 346.379 259.729 346.596 260.025C346.836 260.321 347.217 260.564 347.74 260.755C348.262 260.924 348.959 261.082 349.83 261.23C351.659 261.505 353.096 261.865 354.142 262.309C355.209 262.731 355.96 263.281 356.395 263.958C356.853 264.613 357.081 265.406 357.081 266.336C357.081 267.414 356.765 268.334 356.134 269.095C355.524 269.856 354.653 270.438 353.521 270.839C352.41 271.22 351.104 271.41 349.601 271.41Z" fill="url(#paint3_linear_131_405)"/>
<path d="M360.979 275.786L361.887 272.647H363.2C363.767 272.647 364.18 272.562 364.442 272.393C364.725 272.224 364.942 271.939 365.095 271.537L365.585 270.364H364.376L358.138 254.095H362.482L366.859 266.558L371.039 254.095H375.384L368.557 272.805C368.165 273.863 367.61 274.624 366.891 275.089C366.194 275.554 365.215 275.786 363.952 275.786H360.979Z" fill="url(#paint4_linear_131_405)"/>
<path d="M377.633 271.03V254.095H381.421L381.585 258.852L381.095 258.662C381.269 257.478 381.628 256.526 382.173 255.808C382.717 255.089 383.381 254.56 384.165 254.222C384.949 253.884 385.809 253.715 386.745 253.715C388.03 253.715 389.108 253.989 389.979 254.539C390.872 255.089 391.547 255.85 392.004 256.822C392.461 257.774 392.69 258.884 392.69 260.152V271.03H388.509V261.452C388.509 260.501 388.411 259.698 388.215 259.042C388.019 258.387 387.693 257.89 387.235 257.552C386.8 257.192 386.212 257.013 385.472 257.013C384.361 257.013 383.468 257.393 382.793 258.154C382.14 258.915 381.813 260.015 381.813 261.452V271.03H377.633Z" fill="url(#paint5_linear_131_405)"/>
<path d="M404.413 271.41C402.671 271.41 401.157 271.051 399.872 270.332C398.588 269.592 397.586 268.556 396.867 267.224C396.171 265.892 395.822 264.338 395.822 262.562C395.822 260.786 396.171 259.243 396.867 257.932C397.586 256.6 398.588 255.564 399.872 254.824C401.157 254.084 402.671 253.715 404.413 253.715C405.893 253.715 407.211 253.968 408.365 254.476C409.519 254.983 410.455 255.712 411.174 256.664C411.914 257.594 412.371 258.736 412.546 260.089L408.234 260.311C408.06 259.232 407.624 258.419 406.928 257.869C406.253 257.298 405.414 257.013 404.413 257.013C403.062 257.013 402.017 257.509 401.277 258.503C400.537 259.476 400.166 260.829 400.166 262.562C400.166 264.317 400.537 265.681 401.277 266.653C402.017 267.626 403.062 268.112 404.413 268.112C405.436 268.112 406.285 267.827 406.96 267.256C407.657 266.685 408.082 265.797 408.234 264.592L412.546 264.782C412.371 266.135 411.925 267.309 411.206 268.302C410.488 269.296 409.551 270.068 408.397 270.617C407.243 271.146 405.915 271.41 404.413 271.41Z" fill="url(#paint6_linear_131_405)"/>
<g clip-path="url(#clip1_131_405)">
<path d="M261.994 249.271C261.949 244.251 265.982 240.144 271.003 240.099L292.82 239.903C297.84 239.858 301.947 243.891 301.992 248.912L302.188 270.729C302.233 275.749 298.2 279.856 293.179 279.901L271.362 280.097C266.342 280.142 262.235 276.109 262.19 271.089L261.994 249.271Z" fill="url(#paint7_linear_131_405)"/>
<g filter="url(#filter1_d_131_405)">
<path d="M289.663 248.117C290.904 248.145 292.081 248.512 292.963 249.382C293.846 250.248 294.234 251.416 294.284 252.655C294.334 253.887 294.055 255.253 293.54 256.652C293.128 257.772 292.551 258.945 291.83 260.134C292.572 261.309 293.17 262.472 293.602 263.584C294.142 264.974 294.446 266.335 294.418 267.568C294.39 268.808 294.022 269.982 293.155 270.863L293.156 270.864C292.29 271.749 291.12 272.139 289.88 272.189C288.647 272.239 287.281 271.96 285.882 271.445C284.762 271.033 283.588 270.456 282.4 269.735C281.225 270.477 280.062 271.075 278.95 271.507C277.56 272.048 276.199 272.351 274.966 272.323C273.726 272.295 272.551 271.928 271.67 271.06C270.785 270.195 270.396 269.025 270.346 267.785C270.296 266.553 270.574 265.186 271.089 263.787C271.501 262.667 272.077 261.493 272.799 260.305C272.056 259.13 271.459 257.967 271.027 256.855C270.487 255.465 270.184 254.104 270.212 252.871C270.239 251.63 270.607 250.453 271.477 249.572C272.343 248.689 273.511 248.301 274.749 248.251C275.982 248.201 277.348 248.479 278.747 248.994C279.867 249.407 281.04 249.983 282.229 250.704C283.404 249.961 284.567 249.364 285.679 248.932C287.069 248.392 288.43 248.089 289.663 248.117ZM272.799 260.305C272.383 261.069 273.482 263.866 273.222 264.572C272.773 265.792 272.582 266.85 272.616 267.693C272.648 268.475 272.868 269.012 273.193 269.367L273.259 269.436L273.263 269.439L273.333 269.505C273.694 269.823 274.235 270.033 275.017 270.051C275.86 270.069 276.915 269.86 278.126 269.389C278.827 269.116 279.564 268.762 280.32 268.332C279.222 267.517 278.13 266.588 277.076 265.557L277.072 265.554C276.023 264.518 273.634 261.389 272.799 260.305ZM290.428 262.214C289.613 263.312 288.683 264.404 287.652 265.458L287.648 265.462C286.613 266.512 283.484 268.9 282.4 269.735C283.164 270.151 285.961 269.052 286.667 269.312C287.887 269.761 288.945 269.952 289.788 269.918C290.622 269.884 291.177 269.637 291.531 269.275L291.534 269.271L291.6 269.201C291.918 268.84 292.128 268.3 292.146 267.517C292.164 266.674 291.955 265.619 291.484 264.408C291.211 263.707 290.857 262.97 290.428 262.214ZM282.253 253.429C281.032 254.307 279.794 255.361 278.598 256.573C277.409 257.79 276.379 259.045 275.524 260.28C276.401 261.5 277.454 262.737 278.665 263.932L278.918 264.176C280.056 265.264 281.224 266.213 282.375 267.01C283.596 266.132 284.834 265.079 286.031 263.866C287.22 262.649 288.25 261.394 289.105 260.158C288.228 258.939 287.175 257.702 285.965 256.507L285.712 256.263C284.573 255.175 283.405 254.226 282.253 253.429ZM282.39 260.219C282.39 260.177 282.356 260.144 282.314 260.144C282.272 260.144 282.238 260.179 282.239 260.221C282.239 260.262 282.274 260.296 282.315 260.295C282.357 260.295 282.391 260.261 282.39 260.219ZM274.841 250.521C274.007 250.555 273.452 250.803 273.099 251.164L273.095 251.168C272.74 251.528 272.502 252.087 272.484 252.922C272.465 253.765 272.675 254.82 273.145 256.031C273.418 256.732 273.772 257.469 274.201 258.226C275.016 257.127 275.946 256.035 276.977 254.981L276.981 254.977L277.245 254.712C278.199 253.767 281.237 251.468 282.229 250.704C281.464 250.288 278.668 251.387 277.962 251.127C276.742 250.678 275.684 250.487 274.841 250.521ZM289.612 250.389C288.769 250.37 287.714 250.58 286.503 251.051C285.802 251.323 285.065 251.676 284.309 252.106C285.314 252.852 286.314 253.694 287.284 254.622L287.553 254.882L287.557 254.886L287.822 255.15C288.767 256.104 291.066 259.142 291.83 260.134C292.246 259.369 291.147 256.573 291.407 255.867C291.856 254.647 292.047 253.589 292.013 252.746C291.979 251.912 291.731 251.358 291.37 251.004L291.366 251C291.006 250.645 290.447 250.407 289.612 250.389ZM284.663 260.199C284.674 261.496 283.633 262.556 282.336 262.568C281.039 262.58 279.978 261.538 279.966 260.241C279.955 258.944 280.997 257.883 282.294 257.871C283.591 257.86 284.651 258.902 284.663 260.199Z" fill="url(#paint8_linear_131_405)"/>
</g>
</g>
</g>
</g>
<line x1="339" y1="320" x2="339" y2="523" stroke="#E5E7EB" stroke-width="2"/>
<g filter="url(#filter2_dd_131_405)">
<rect x="12.5" y="501" width="201" height="102" rx="16" fill="white"/>
<rect x="13" y="501.5" width="200" height="101" rx="15.5" stroke="#E5E7EB"/>
<path d="M125 523.667C125 525.876 119.627 527.667 113 527.667C106.373 527.667 101 525.876 101 523.667M125 523.667C125 521.457 119.627 519.667 113 519.667C106.373 519.667 101 521.457 101 523.667M125 523.667V542.333C125 543.394 123.736 544.411 121.485 545.162C119.235 545.912 116.183 546.333 113 546.333C109.817 546.333 106.765 545.912 104.515 545.162C102.264 544.411 101 543.394 101 542.333V523.667M101 533C101 534.061 102.264 535.078 104.515 535.828C106.765 536.578 109.817 537 113 537C116.183 537 119.235 536.578 121.485 535.828C123.736 535.078 125 534.061 125 533" stroke="#5B59F8" stroke-width="3" stroke-linecap="round" stroke-linejoin="round"/>
<path d="M64.64 579V564.86H70.02C70.7 564.86 71.32 564.92 71.88 565.04C72.4533 565.147 72.9467 565.34 73.36 565.62C73.7733 565.887 74.0867 566.253 74.3 566.72C74.5267 567.173 74.64 567.747 74.64 568.44C74.64 569.12 74.4867 569.733 74.18 570.28C73.8733 570.813 73.4067 571.213 72.78 571.48C73.62 571.667 74.2533 572.047 74.68 572.62C75.12 573.193 75.34 573.947 75.34 574.88C75.34 575.68 75.1933 576.347 74.9 576.88C74.6067 577.413 74.2 577.833 73.68 578.14C73.16 578.447 72.56 578.667 71.88 578.8C71.2 578.933 70.4733 579 69.7 579H64.64ZM66.76 577.06H69.78C70.18 577.06 70.58 577.04 70.98 577C71.38 576.947 71.7467 576.847 72.08 576.7C72.4267 576.553 72.7 576.333 72.9 576.04C73.1133 575.747 73.22 575.353 73.22 574.86C73.22 574.447 73.14 574.107 72.98 573.84C72.82 573.56 72.6067 573.34 72.34 573.18C72.0733 573.02 71.76 572.907 71.4 572.84C71.0533 572.773 70.6933 572.74 70.32 572.74H66.76V577.06ZM66.76 570.92H69.44C69.8933 570.92 70.3067 570.88 70.68 570.8C71.0667 570.72 71.4 570.587 71.68 570.4C71.96 570.213 72.1733 569.98 72.32 569.7C72.48 569.407 72.56 569.053 72.56 568.64C72.5733 568.093 72.4533 567.693 72.2 567.44C71.96 567.173 71.6333 567 71.22 566.92C70.8067 566.827 70.3533 566.78 69.86 566.78H66.76V570.92ZM80.8622 579.12C80.3822 579.12 79.9155 579.06 79.4622 578.94C79.0222 578.807 78.6289 578.613 78.2822 578.36C77.9355 578.093 77.6555 577.767 77.4422 577.38C77.2422 576.98 77.1422 576.513 77.1422 575.98C77.1422 575.34 77.2622 574.813 77.5022 574.4C77.7555 573.973 78.0889 573.647 78.5022 573.42C78.9155 573.18 79.3889 573.013 79.9222 572.92C80.4689 572.813 81.0355 572.76 81.6222 572.76H84.2022C84.2022 572.24 84.1222 571.787 83.9622 571.4C83.8022 571 83.5489 570.693 83.2022 570.48C82.8689 570.253 82.4222 570.14 81.8622 570.14C81.5289 570.14 81.2089 570.18 80.9022 570.26C80.6089 570.327 80.3555 570.44 80.1422 570.6C79.9289 570.76 79.7822 570.973 79.7022 571.24H77.5422C77.6222 570.733 77.8022 570.3 78.0822 569.94C78.3622 569.567 78.7089 569.26 79.1222 569.02C79.5355 568.78 79.9755 568.607 80.4422 568.5C80.9222 568.38 81.4089 568.32 81.9022 568.32C83.4222 568.32 84.5155 568.767 85.1822 569.66C85.8622 570.54 86.2022 571.753 86.2022 573.3V579H84.4222L84.3422 577.66C84.0355 578.073 83.6689 578.387 83.2422 578.6C82.8289 578.813 82.4155 578.953 82.0022 579.02C81.5889 579.087 81.2089 579.12 80.8622 579.12ZM81.1822 577.38C81.7822 577.38 82.3089 577.28 82.7622 577.08C83.2155 576.867 83.5689 576.567 83.8222 576.18C84.0755 575.78 84.2022 575.313 84.2022 574.78V574.34H82.3222C81.9355 574.34 81.5555 574.353 81.1822 574.38C80.8222 574.393 80.4889 574.447 80.1822 574.54C79.8889 574.62 79.6489 574.76 79.4622 574.96C79.2889 575.16 79.2022 575.447 79.2022 575.82C79.2022 576.18 79.2955 576.473 79.4822 576.7C79.6689 576.927 79.9155 577.1 80.2222 577.22C80.5289 577.327 80.8489 577.38 81.1822 577.38ZM93.2541 579.12C92.1474 579.12 91.2207 578.893 90.4741 578.44C89.7407 577.987 89.1874 577.36 88.8141 576.56C88.4541 575.747 88.2741 574.813 88.2741 573.76C88.2741 572.72 88.4607 571.793 88.8341 570.98C89.2207 570.153 89.7941 569.507 90.5541 569.04C91.3274 568.56 92.2807 568.32 93.4141 568.32C94.1874 568.32 94.8741 568.453 95.4741 568.72C96.0741 568.973 96.5607 569.353 96.9341 569.86C97.3207 570.353 97.5741 570.973 97.6941 571.72H95.6341C95.4607 571.173 95.1674 570.78 94.7541 570.54C94.3541 570.3 93.8807 570.18 93.3341 570.18C92.6007 570.18 92.0141 570.353 91.5741 570.7C91.1474 571.047 90.8341 571.493 90.6341 572.04C90.4341 572.587 90.3341 573.16 90.3341 573.76C90.3341 574.387 90.4341 574.967 90.6341 575.5C90.8474 576.033 91.1674 576.467 91.5941 576.8C92.0341 577.12 92.6074 577.28 93.3141 577.28C93.8474 577.28 94.3407 577.167 94.7941 576.94C95.2474 576.7 95.5407 576.3 95.6741 575.74H97.7941C97.6741 576.513 97.3941 577.153 96.9541 577.66C96.5141 578.153 95.9674 578.52 95.3141 578.76C94.6741 579 93.9874 579.12 93.2541 579.12ZM99.7873 579V564.86H101.847V572.84H103.547L106.507 568.46H108.827L105.367 573.48L109.127 579H106.707L103.707 574.66H101.847V579H99.7873ZM115.151 579.12C114.058 579.12 113.131 578.9 112.371 578.46C111.611 578.007 111.031 577.373 110.631 576.56C110.245 575.747 110.051 574.807 110.051 573.74C110.051 572.66 110.251 571.72 110.651 570.92C111.051 570.107 111.631 569.473 112.391 569.02C113.151 568.553 114.078 568.32 115.171 568.32C116.265 568.32 117.191 568.553 117.951 569.02C118.711 569.473 119.285 570.107 119.671 570.92C120.058 571.733 120.251 572.68 120.251 573.76C120.251 574.813 120.051 575.747 119.651 576.56C119.265 577.373 118.691 578.007 117.931 578.46C117.185 578.9 116.258 579.12 115.151 579.12ZM115.151 577.28C115.871 577.28 116.451 577.12 116.891 576.8C117.345 576.48 117.678 576.053 117.891 575.52C118.105 574.973 118.211 574.38 118.211 573.74C118.211 573.1 118.105 572.513 117.891 571.98C117.678 571.447 117.345 571.02 116.891 570.7C116.451 570.367 115.871 570.2 115.151 570.2C114.445 570.2 113.865 570.367 113.411 570.7C112.958 571.02 112.625 571.447 112.411 571.98C112.211 572.513 112.111 573.1 112.111 573.74C112.111 574.393 112.211 574.987 112.411 575.52C112.625 576.053 112.958 576.48 113.411 576.8C113.865 577.12 114.445 577.28 115.151 577.28ZM123.15 579V570.3H121.47V568.46H123.15V567.4C123.15 566.6 123.263 565.953 123.49 565.46C123.73 564.953 124.097 564.58 124.59 564.34C125.097 564.1 125.757 563.98 126.57 563.98H127.95V565.8H126.81C126.397 565.8 126.07 565.873 125.83 566.02C125.603 566.153 125.443 566.36 125.35 566.64C125.257 566.907 125.21 567.233 125.21 567.62V568.46H127.95V570.3H125.21V579H123.15ZM130.592 579V570.3H128.912V568.46H130.592V567.4C130.592 566.6 130.705 565.953 130.932 565.46C131.172 564.953 131.538 564.58 132.032 564.34C132.538 564.1 133.198 563.98 134.012 563.98H135.392V565.8H134.252C133.838 565.8 133.512 565.873 133.272 566.02C133.045 566.153 132.885 566.36 132.792 566.64C132.698 566.907 132.652 567.233 132.652 567.62V568.46H135.392V570.3H132.652V579H130.592ZM137.053 579V568.46H139.113V579H137.053ZM138.073 567.06C137.673 567.06 137.346 566.94 137.093 566.7C136.853 566.447 136.733 566.127 136.733 565.74C136.733 565.353 136.86 565.04 137.113 564.8C137.366 564.547 137.686 564.42 138.073 564.42C138.433 564.42 138.746 564.547 139.013 564.8C139.293 565.04 139.433 565.353 139.433 565.74C139.433 566.127 139.3 566.447 139.033 566.7C138.78 566.94 138.46 567.06 138.073 567.06ZM146.242 579.12C145.136 579.12 144.209 578.893 143.462 578.44C142.729 577.987 142.176 577.36 141.802 576.56C141.442 575.747 141.262 574.813 141.262 573.76C141.262 572.72 141.449 571.793 141.822 570.98C142.209 570.153 142.782 569.507 143.542 569.04C144.316 568.56 145.269 568.32 146.402 568.32C147.176 568.32 147.862 568.453 148.462 568.72C149.062 568.973 149.549 569.353 149.922 569.86C150.309 570.353 150.562 570.973 150.682 571.72H148.622C148.449 571.173 148.156 570.78 147.742 570.54C147.342 570.3 146.869 570.18 146.322 570.18C145.589 570.18 145.002 570.353 144.562 570.7C144.136 571.047 143.822 571.493 143.622 572.04C143.422 572.587 143.322 573.16 143.322 573.76C143.322 574.387 143.422 574.967 143.622 575.5C143.836 576.033 144.156 576.467 144.582 576.8C145.022 577.12 145.596 577.28 146.302 577.28C146.836 577.28 147.329 577.167 147.782 576.94C148.236 576.7 148.529 576.3 148.662 575.74H150.782C150.662 576.513 150.382 577.153 149.942 577.66C149.502 578.153 148.956 578.52 148.302 578.76C147.662 579 146.976 579.12 146.242 579.12ZM157.416 579.12C156.309 579.12 155.382 578.893 154.636 578.44C153.889 577.987 153.322 577.36 152.936 576.56C152.562 575.747 152.376 574.813 152.376 573.76C152.376 572.693 152.569 571.753 152.956 570.94C153.356 570.127 153.929 569.487 154.676 569.02C155.436 568.553 156.349 568.32 157.416 568.32C158.229 568.32 158.936 568.473 159.536 568.78C160.136 569.073 160.629 569.473 161.016 569.98C161.416 570.487 161.709 571.053 161.896 571.68C162.082 572.293 162.162 572.933 162.136 573.6C162.136 573.747 162.129 573.887 162.116 574.02C162.102 574.153 162.089 574.293 162.076 574.44H154.456C154.496 574.973 154.629 575.46 154.856 575.9C155.096 576.34 155.429 576.693 155.856 576.96C156.282 577.213 156.809 577.34 157.436 577.34C157.782 577.34 158.116 577.3 158.436 577.22C158.769 577.127 159.062 576.987 159.316 576.8C159.582 576.6 159.769 576.347 159.876 576.04H161.956C161.782 576.747 161.469 577.333 161.016 577.8C160.576 578.253 160.036 578.587 159.396 578.8C158.769 579.013 158.109 579.12 157.416 579.12ZM154.496 572.8H160.096C160.082 572.28 159.962 571.82 159.736 571.42C159.509 571.007 159.196 570.687 158.796 570.46C158.396 570.22 157.916 570.1 157.356 570.1C156.742 570.1 156.229 570.227 155.816 570.48C155.416 570.733 155.102 571.067 154.876 571.48C154.662 571.88 154.536 572.32 154.496 572.8Z" fill="#030712"/>
</g>
<g filter="url(#filter3_dd_131_405)">
<rect x="237.5" y="501" width="201" height="102" rx="16" fill="white"/>
<rect x="238" y="501.5" width="200" height="101" rx="15.5" stroke="#E5E7EB"/>
<path d="M341.6 525.4C341.356 525.649 341.219 525.984 341.219 526.333C341.219 526.682 341.356 527.017 341.6 527.266L343.733 529.4C343.983 529.644 344.318 529.781 344.667 529.781C345.016 529.781 345.351 529.644 345.6 529.4L350.627 524.373C351.297 525.855 351.5 527.505 351.209 529.105C350.917 530.705 350.145 532.178 348.995 533.328C347.845 534.478 346.372 535.25 344.772 535.542C343.172 535.833 341.522 535.63 340.04 534.96L330.827 544.173C330.296 544.704 329.577 545.002 328.827 545.002C328.077 545.002 327.357 544.704 326.827 544.173C326.296 543.643 325.998 542.923 325.998 542.173C325.998 541.423 326.296 540.704 326.827 540.173L336.04 530.96C335.37 529.478 335.167 527.827 335.458 526.228C335.75 524.628 336.522 523.155 337.672 522.005C338.822 520.855 340.295 520.083 341.894 519.791C343.494 519.5 345.145 519.703 346.627 520.373L341.613 525.386L341.6 525.4Z" stroke="#5B59F8" stroke-width="3" stroke-linecap="round" stroke-linejoin="round"/>
<path d="M262.124 579L267.464 564.86H270.204L275.524 579H273.244L272.204 576.16H265.444L264.404 579H262.124ZM266.144 574.26H271.504L268.824 566.88L266.144 574.26ZM280.856 579.12C280.363 579.12 279.87 579.073 279.376 578.98C278.883 578.887 278.423 578.72 277.996 578.48C277.57 578.24 277.21 577.92 276.916 577.52C276.623 577.107 276.436 576.6 276.356 576H278.456C278.563 576.32 278.75 576.58 279.016 576.78C279.296 576.98 279.603 577.127 279.936 577.22C280.283 577.313 280.623 577.36 280.956 577.36C281.156 577.36 281.376 577.347 281.616 577.32C281.87 577.293 282.11 577.233 282.336 577.14C282.563 577.047 282.75 576.913 282.896 576.74C283.043 576.553 283.116 576.307 283.116 576C283.116 575.76 283.05 575.56 282.916 575.4C282.796 575.24 282.623 575.113 282.396 575.02C282.183 574.913 281.923 574.833 281.616 574.78C281.016 574.647 280.37 574.52 279.676 574.4C278.996 574.267 278.396 574.04 277.876 573.72C277.69 573.6 277.523 573.467 277.376 573.32C277.23 573.16 277.103 572.98 276.996 572.78C276.89 572.58 276.81 572.367 276.756 572.14C276.703 571.913 276.676 571.667 276.676 571.4C276.676 570.853 276.783 570.387 276.996 570C277.223 569.613 277.53 569.3 277.916 569.06C278.303 568.807 278.743 568.62 279.236 568.5C279.73 568.38 280.25 568.32 280.796 568.32C281.503 568.32 282.143 568.433 282.716 568.66C283.29 568.887 283.763 569.22 284.136 569.66C284.51 570.1 284.73 570.653 284.796 571.32H282.856C282.776 570.96 282.543 570.673 282.156 570.46C281.783 570.233 281.31 570.12 280.736 570.12C280.536 570.12 280.316 570.133 280.076 570.16C279.85 570.187 279.63 570.247 279.416 570.34C279.203 570.433 279.03 570.567 278.896 570.74C278.763 570.9 278.696 571.113 278.696 571.38C278.696 571.633 278.756 571.847 278.876 572.02C279.01 572.193 279.196 572.333 279.436 572.44C279.69 572.547 279.976 572.633 280.296 572.7C280.75 572.807 281.236 572.907 281.756 573C282.29 573.093 282.723 573.193 283.056 573.3C283.496 573.42 283.87 573.593 284.176 573.82C284.496 574.047 284.736 574.333 284.896 574.68C285.07 575.027 285.156 575.447 285.156 575.94C285.156 576.58 285.03 577.107 284.776 577.52C284.523 577.92 284.183 578.24 283.756 578.48C283.343 578.72 282.876 578.887 282.356 578.98C281.85 579.073 281.35 579.12 280.856 579.12ZM291.052 579.12C290.558 579.12 290.065 579.073 289.572 578.98C289.078 578.887 288.618 578.72 288.192 578.48C287.765 578.24 287.405 577.92 287.112 577.52C286.818 577.107 286.632 576.6 286.552 576H288.652C288.758 576.32 288.945 576.58 289.212 576.78C289.492 576.98 289.798 577.127 290.132 577.22C290.478 577.313 290.818 577.36 291.152 577.36C291.352 577.36 291.572 577.347 291.812 577.32C292.065 577.293 292.305 577.233 292.532 577.14C292.758 577.047 292.945 576.913 293.092 576.74C293.238 576.553 293.312 576.307 293.312 576C293.312 575.76 293.245 575.56 293.112 575.4C292.992 575.24 292.818 575.113 292.592 575.02C292.378 574.913 292.118 574.833 291.812 574.78C291.212 574.647 290.565 574.52 289.872 574.4C289.192 574.267 288.592 574.04 288.072 573.72C287.885 573.6 287.718 573.467 287.572 573.32C287.425 573.16 287.298 572.98 287.192 572.78C287.085 572.58 287.005 572.367 286.952 572.14C286.898 571.913 286.872 571.667 286.872 571.4C286.872 570.853 286.978 570.387 287.192 570C287.418 569.613 287.725 569.3 288.112 569.06C288.498 568.807 288.938 568.62 289.432 568.5C289.925 568.38 290.445 568.32 290.992 568.32C291.698 568.32 292.338 568.433 292.912 568.66C293.485 568.887 293.958 569.22 294.332 569.66C294.705 570.1 294.925 570.653 294.992 571.32H293.052C292.972 570.96 292.738 570.673 292.352 570.46C291.978 570.233 291.505 570.12 290.932 570.12C290.732 570.12 290.512 570.133 290.272 570.16C290.045 570.187 289.825 570.247 289.612 570.34C289.398 570.433 289.225 570.567 289.092 570.74C288.958 570.9 288.892 571.113 288.892 571.38C288.892 571.633 288.952 571.847 289.072 572.02C289.205 572.193 289.392 572.333 289.632 572.44C289.885 572.547 290.172 572.633 290.492 572.7C290.945 572.807 291.432 572.907 291.952 573C292.485 573.093 292.918 573.193 293.252 573.3C293.692 573.42 294.065 573.593 294.372 573.82C294.692 574.047 294.932 574.333 295.092 574.68C295.265 575.027 295.352 575.447 295.352 575.94C295.352 576.58 295.225 577.107 294.972 577.52C294.718 577.92 294.378 578.24 293.952 578.48C293.538 578.72 293.072 578.887 292.552 578.98C292.045 579.073 291.545 579.12 291.052 579.12ZM301.827 579.12C300.347 579.12 299.214 578.733 298.427 577.96C297.654 577.173 297.267 575.98 297.267 574.38V568.46H299.327V574.26C299.327 574.887 299.414 575.427 299.587 575.88C299.774 576.333 300.054 576.68 300.427 576.92C300.8 577.16 301.274 577.28 301.847 577.28C302.447 577.28 302.927 577.16 303.287 576.92C303.66 576.667 303.927 576.313 304.087 575.86C304.26 575.407 304.347 574.873 304.347 574.26V568.46H306.407V574.38C306.407 576.007 306.007 577.207 305.207 577.98C304.42 578.74 303.294 579.12 301.827 579.12ZM308.889 579V568.46H310.829L310.929 569.98C311.196 569.567 311.502 569.24 311.849 569C312.196 568.76 312.576 568.587 312.989 568.48C313.402 568.373 313.836 568.32 314.289 568.32C314.409 568.32 314.522 568.32 314.629 568.32C314.736 568.32 314.836 568.32 314.929 568.32V570.3H314.289C313.529 570.3 312.896 570.453 312.389 570.76C311.896 571.067 311.529 571.493 311.289 572.04C311.062 572.587 310.949 573.213 310.949 573.92V579H308.889ZM319.847 579.12C319.367 579.12 318.9 579.06 318.447 578.94C318.007 578.807 317.613 578.613 317.267 578.36C316.92 578.093 316.64 577.767 316.427 577.38C316.227 576.98 316.127 576.513 316.127 575.98C316.127 575.34 316.247 574.813 316.487 574.4C316.74 573.973 317.073 573.647 317.487 573.42C317.9 573.18 318.373 573.013 318.907 572.92C319.453 572.813 320.02 572.76 320.607 572.76H323.187C323.187 572.24 323.107 571.787 322.947 571.4C322.787 571 322.533 570.693 322.187 570.48C321.853 570.253 321.407 570.14 320.847 570.14C320.513 570.14 320.193 570.18 319.887 570.26C319.593 570.327 319.34 570.44 319.127 570.6C318.913 570.76 318.767 570.973 318.687 571.24H316.527C316.607 570.733 316.787 570.3 317.067 569.94C317.347 569.567 317.693 569.26 318.107 569.02C318.52 568.78 318.96 568.607 319.427 568.5C319.907 568.38 320.393 568.32 320.887 568.32C322.407 568.32 323.5 568.767 324.167 569.66C324.847 570.54 325.187 571.753 325.187 573.3V579H323.407L323.327 577.66C323.02 578.073 322.653 578.387 322.227 578.6C321.813 578.813 321.4 578.953 320.987 579.02C320.573 579.087 320.193 579.12 319.847 579.12ZM320.167 577.38C320.767 577.38 321.293 577.28 321.747 577.08C322.2 576.867 322.553 576.567 322.807 576.18C323.06 575.78 323.187 575.313 323.187 574.78V574.34H321.307C320.92 574.34 320.54 574.353 320.167 574.38C319.807 574.393 319.473 574.447 319.167 574.54C318.873 574.62 318.633 574.76 318.447 574.96C318.273 575.16 318.187 575.447 318.187 575.82C318.187 576.18 318.28 576.473 318.467 576.7C318.653 576.927 318.9 577.1 319.207 577.22C319.513 577.327 319.833 577.38 320.167 577.38ZM327.658 579V568.46H329.618L329.718 569.94C329.985 569.553 330.305 569.247 330.678 569.02C331.052 568.78 331.452 568.607 331.878 568.5C332.305 568.38 332.718 568.32 333.118 568.32C334.132 568.32 334.925 568.54 335.498 568.98C336.085 569.407 336.498 569.987 336.738 570.72C336.992 571.44 337.118 572.26 337.118 573.18V579H335.038V573.6C335.038 573.173 335.012 572.753 334.958 572.34C334.905 571.927 334.792 571.56 334.618 571.24C334.458 570.907 334.225 570.647 333.918 570.46C333.612 570.26 333.198 570.16 332.678 570.16C332.038 570.16 331.498 570.333 331.058 570.68C330.618 571.027 330.285 571.493 330.058 572.08C329.832 572.667 329.718 573.327 329.718 574.06V579H327.658ZM344.013 579C343.186 579 342.513 578.887 341.993 578.66C341.473 578.42 341.086 578.047 340.833 577.54C340.593 577.033 340.473 576.373 340.473 575.56V570.3H338.813V568.46H340.473V565.42H342.533V568.46H345.193V570.3H342.533V575.3C342.533 575.927 342.646 576.4 342.873 576.72C343.099 577.027 343.573 577.18 344.293 577.18H345.113V579H344.013ZM346.955 579V568.46H349.015V579H346.955ZM347.975 567.06C347.575 567.06 347.249 566.94 346.995 566.7C346.755 566.447 346.635 566.127 346.635 565.74C346.635 565.353 346.762 565.04 347.015 564.8C347.269 564.547 347.589 564.42 347.975 564.42C348.335 564.42 348.649 564.547 348.915 564.8C349.195 565.04 349.335 565.353 349.335 565.74C349.335 566.127 349.202 566.447 348.935 566.7C348.682 566.94 348.362 567.06 347.975 567.06ZM356.205 579.12C355.098 579.12 354.171 578.893 353.425 578.44C352.678 577.987 352.111 577.36 351.725 576.56C351.351 575.747 351.165 574.813 351.165 573.76C351.165 572.693 351.358 571.753 351.745 570.94C352.145 570.127 352.718 569.487 353.465 569.02C354.225 568.553 355.138 568.32 356.205 568.32C357.018 568.32 357.725 568.473 358.325 568.78C358.925 569.073 359.418 569.473 359.805 569.98C360.205 570.487 360.498 571.053 360.685 571.68C360.871 572.293 360.951 572.933 360.925 573.6C360.925 573.747 360.918 573.887 360.905 574.02C360.891 574.153 360.878 574.293 360.865 574.44H353.245C353.285 574.973 353.418 575.46 353.645 575.9C353.885 576.34 354.218 576.693 354.645 576.96C355.071 577.213 355.598 577.34 356.225 577.34C356.571 577.34 356.905 577.3 357.225 577.22C357.558 577.127 357.851 576.987 358.105 576.8C358.371 576.6 358.558 576.347 358.665 576.04H360.745C360.571 576.747 360.258 577.333 359.805 577.8C359.365 578.253 358.825 578.587 358.185 578.8C357.558 579.013 356.898 579.12 356.205 579.12ZM353.285 572.8H358.885C358.871 572.28 358.751 571.82 358.525 571.42C358.298 571.007 357.985 570.687 357.585 570.46C357.185 570.22 356.705 570.1 356.145 570.1C355.531 570.1 355.018 570.227 354.605 570.48C354.205 570.733 353.891 571.067 353.665 571.48C353.451 571.88 353.325 572.32 353.285 572.8ZM372.617 579.12C371.484 579.12 370.671 578.813 370.177 578.2C369.697 577.573 369.457 576.7 369.457 575.58V570.3H367.777V568.46H369.457V565.4H371.517V568.46H374.737V570.3H371.517V575.24C371.517 575.613 371.551 575.953 371.617 576.26C371.697 576.567 371.844 576.807 372.057 576.98C372.271 577.153 372.577 577.247 372.977 577.26C373.284 577.26 373.551 577.207 373.777 577.1C374.017 576.993 374.211 576.873 374.357 576.74L375.157 578.28C374.904 578.48 374.637 578.647 374.357 578.78C374.091 578.9 373.811 578.987 373.517 579.04C373.224 579.093 372.924 579.12 372.617 579.12ZM381.343 579.12C380.249 579.12 379.323 578.9 378.563 578.46C377.803 578.007 377.223 577.373 376.823 576.56C376.436 575.747 376.243 574.807 376.243 573.74C376.243 572.66 376.443 571.72 376.843 570.92C377.243 570.107 377.823 569.473 378.583 569.02C379.343 568.553 380.269 568.32 381.363 568.32C382.456 568.32 383.383 568.553 384.143 569.02C384.903 569.473 385.476 570.107 385.863 570.92C386.249 571.733 386.443 572.68 386.443 573.76C386.443 574.813 386.243 575.747 385.843 576.56C385.456 577.373 384.883 578.007 384.123 578.46C383.376 578.9 382.449 579.12 381.343 579.12ZM381.343 577.28C382.063 577.28 382.643 577.12 383.083 576.8C383.536 576.48 383.869 576.053 384.083 575.52C384.296 574.973 384.403 574.38 384.403 573.74C384.403 573.1 384.296 572.513 384.083 571.98C383.869 571.447 383.536 571.02 383.083 570.7C382.643 570.367 382.063 570.2 381.343 570.2C380.636 570.2 380.056 570.367 379.603 570.7C379.149 571.02 378.816 571.447 378.603 571.98C378.403 572.513 378.303 573.1 378.303 573.74C378.303 574.393 378.403 574.987 378.603 575.52C378.816 576.053 379.149 576.48 379.603 576.8C380.056 577.12 380.636 577.28 381.343 577.28ZM393.257 579.12C392.164 579.12 391.237 578.9 390.477 578.46C389.717 578.007 389.137 577.373 388.737 576.56C388.35 575.747 388.157 574.807 388.157 573.74C388.157 572.66 388.357 571.72 388.757 570.92C389.157 570.107 389.737 569.473 390.497 569.02C391.257 568.553 392.184 568.32 393.277 568.32C394.37 568.32 395.297 568.553 396.057 569.02C396.817 569.473 397.39 570.107 397.777 570.92C398.164 571.733 398.357 572.68 398.357 573.76C398.357 574.813 398.157 575.747 397.757 576.56C397.37 577.373 396.797 578.007 396.037 578.46C395.29 578.9 394.364 579.12 393.257 579.12ZM393.257 577.28C393.977 577.28 394.557 577.12 394.997 576.8C395.45 576.48 395.784 576.053 395.997 575.52C396.21 574.973 396.317 574.38 396.317 573.74C396.317 573.1 396.21 572.513 395.997 571.98C395.784 571.447 395.45 571.02 394.997 570.7C394.557 570.367 393.977 570.2 393.257 570.2C392.55 570.2 391.97 570.367 391.517 570.7C391.064 571.02 390.73 571.447 390.517 571.98C390.317 572.513 390.217 573.1 390.217 573.74C390.217 574.393 390.317 574.987 390.517 575.52C390.73 576.053 391.064 576.48 391.517 576.8C391.97 577.12 392.55 577.28 393.257 577.28ZM400.471 579V564.86H402.531V579H400.471ZM409.02 579.12C408.527 579.12 408.034 579.073 407.54 578.98C407.047 578.887 406.587 578.72 406.16 578.48C405.734 578.24 405.374 577.92 405.08 577.52C404.787 577.107 404.6 576.6 404.52 576H406.62C406.727 576.32 406.914 576.58 407.18 576.78C407.46 576.98 407.767 577.127 408.1 577.22C408.447 577.313 408.787 577.36 409.12 577.36C409.32 577.36 409.54 577.347 409.78 577.32C410.034 577.293 410.274 577.233 410.5 577.14C410.727 577.047 410.914 576.913 411.06 576.74C411.207 576.553 411.28 576.307 411.28 576C411.28 575.76 411.214 575.56 411.08 575.4C410.96 575.24 410.787 575.113 410.56 575.02C410.347 574.913 410.087 574.833 409.78 574.78C409.18 574.647 408.534 574.52 407.84 574.4C407.16 574.267 406.56 574.04 406.04 573.72C405.854 573.6 405.687 573.467 405.54 573.32C405.394 573.16 405.267 572.98 405.16 572.78C405.054 572.58 404.974 572.367 404.92 572.14C404.867 571.913 404.84 571.667 404.84 571.4C404.84 570.853 404.947 570.387 405.16 570C405.387 569.613 405.694 569.3 406.08 569.06C406.467 568.807 406.907 568.62 407.4 568.5C407.894 568.38 408.414 568.32 408.96 568.32C409.667 568.32 410.307 568.433 410.88 568.66C411.454 568.887 411.927 569.22 412.3 569.66C412.674 570.1 412.894 570.653 412.96 571.32H411.02C410.94 570.96 410.707 570.673 410.32 570.46C409.947 570.233 409.474 570.12 408.9 570.12C408.7 570.12 408.48 570.133 408.24 570.16C408.014 570.187 407.794 570.247 407.58 570.34C407.367 570.433 407.194 570.567 407.06 570.74C406.927 570.9 406.86 571.113 406.86 571.38C406.86 571.633 406.92 571.847 407.04 572.02C407.174 572.193 407.36 572.333 407.6 572.44C407.854 572.547 408.14 572.633 408.46 572.7C408.914 572.807 409.4 572.907 409.92 573C410.454 573.093 410.887 573.193 411.22 573.3C411.66 573.42 412.034 573.593 412.34 573.82C412.66 574.047 412.9 574.333 413.06 574.68C413.234 575.027 413.32 575.447 413.32 575.94C413.32 576.58 413.194 577.107 412.94 577.52C412.687 577.92 412.347 578.24 411.92 578.48C411.507 578.72 411.04 578.887 410.52 578.98C410.014 579.073 409.514 579.12 409.02 579.12Z" fill="#030712"/>
</g>
<g filter="url(#filter4_dd_131_405)">
<rect x="462.5" y="501" width="201" height="102" rx="16" fill="white"/>
<rect x="463" y="501.5" width="200" height="101" rx="15.5" stroke="#E5E7EB"/>
<path d="M562.467 539.4C562.327 539.908 562.088 540.383 561.764 540.798C561.44 541.214 561.038 541.562 560.58 541.822C560.122 542.082 559.617 542.249 559.094 542.314C558.571 542.379 558.041 542.34 557.533 542.2C557.026 542.06 556.55 541.821 556.135 541.497C555.719 541.174 555.372 540.771 555.112 540.313C554.852 539.855 554.684 539.35 554.619 538.828C554.555 538.305 554.593 537.774 554.733 537.267M551 531.667L575 525V541L551 535.667V531.667Z" stroke="#5B59F8" stroke-width="3" stroke-linecap="round" stroke-linejoin="round"/>
<path d="M494.064 579V564.86H497.084L501.184 572.32L505.204 564.86H508.144V579H506.044V567.36L501.584 575.48H500.664L496.184 567.36V579H494.064ZM514.427 579.12C513.947 579.12 513.48 579.06 513.027 578.94C512.587 578.807 512.193 578.613 511.847 578.36C511.5 578.093 511.22 577.767 511.007 577.38C510.807 576.98 510.707 576.513 510.707 575.98C510.707 575.34 510.827 574.813 511.067 574.4C511.32 573.973 511.653 573.647 512.067 573.42C512.48 573.18 512.953 573.013 513.487 572.92C514.033 572.813 514.6 572.76 515.187 572.76H517.767C517.767 572.24 517.687 571.787 517.527 571.4C517.367 571 517.113 570.693 516.767 570.48C516.433 570.253 515.987 570.14 515.427 570.14C515.093 570.14 514.773 570.18 514.467 570.26C514.173 570.327 513.92 570.44 513.707 570.6C513.493 570.76 513.347 570.973 513.267 571.24H511.107C511.187 570.733 511.367 570.3 511.647 569.94C511.927 569.567 512.273 569.26 512.687 569.02C513.1 568.78 513.54 568.607 514.007 568.5C514.487 568.38 514.973 568.32 515.467 568.32C516.987 568.32 518.08 568.767 518.747 569.66C519.427 570.54 519.767 571.753 519.767 573.3V579H517.987L517.907 577.66C517.6 578.073 517.233 578.387 516.807 578.6C516.393 578.813 515.98 578.953 515.567 579.02C515.153 579.087 514.773 579.12 514.427 579.12ZM514.747 577.38C515.347 577.38 515.873 577.28 516.327 577.08C516.78 576.867 517.133 576.567 517.387 576.18C517.64 575.78 517.767 575.313 517.767 574.78V574.34H515.887C515.5 574.34 515.12 574.353 514.747 574.38C514.387 574.393 514.053 574.447 513.747 574.54C513.453 574.62 513.213 574.76 513.027 574.96C512.853 575.16 512.767 575.447 512.767 575.82C512.767 576.18 512.86 576.473 513.047 576.7C513.233 576.927 513.48 577.1 513.787 577.22C514.093 577.327 514.413 577.38 514.747 577.38ZM522.239 579V568.46H524.179L524.279 569.98C524.545 569.567 524.852 569.24 525.199 569C525.545 568.76 525.925 568.587 526.339 568.48C526.752 568.373 527.185 568.32 527.639 568.32C527.759 568.32 527.872 568.32 527.979 568.32C528.085 568.32 528.185 568.32 528.279 568.32V570.3H527.639C526.879 570.3 526.245 570.453 525.739 570.76C525.245 571.067 524.879 571.493 524.639 572.04C524.412 572.587 524.299 573.213 524.299 573.92V579H522.239ZM529.836 579V564.86H531.896V572.84H533.596L536.556 568.46H538.876L535.416 573.48L539.176 579H536.756L533.756 574.66H531.896V579H529.836ZM545.14 579.12C544.034 579.12 543.107 578.893 542.36 578.44C541.614 577.987 541.047 577.36 540.66 576.56C540.287 575.747 540.1 574.813 540.1 573.76C540.1 572.693 540.294 571.753 540.68 570.94C541.08 570.127 541.654 569.487 542.4 569.02C543.16 568.553 544.074 568.32 545.14 568.32C545.954 568.32 546.66 568.473 547.26 568.78C547.86 569.073 548.354 569.473 548.74 569.98C549.14 570.487 549.434 571.053 549.62 571.68C549.807 572.293 549.887 572.933 549.86 573.6C549.86 573.747 549.854 573.887 549.84 574.02C549.827 574.153 549.814 574.293 549.8 574.44H542.18C542.22 574.973 542.354 575.46 542.58 575.9C542.82 576.34 543.154 576.693 543.58 576.96C544.007 577.213 544.534 577.34 545.16 577.34C545.507 577.34 545.84 577.3 546.16 577.22C546.494 577.127 546.787 576.987 547.04 576.8C547.307 576.6 547.494 576.347 547.6 576.04H549.68C549.507 576.747 549.194 577.333 548.74 577.8C548.3 578.253 547.76 578.587 547.12 578.8C546.494 579.013 545.834 579.12 545.14 579.12ZM542.22 572.8H547.82C547.807 572.28 547.687 571.82 547.46 571.42C547.234 571.007 546.92 570.687 546.52 570.46C546.12 570.22 545.64 570.1 545.08 570.1C544.467 570.1 543.954 570.227 543.54 570.48C543.14 570.733 542.827 571.067 542.6 571.48C542.387 571.88 542.26 572.32 542.22 572.8ZM556.425 579C555.598 579 554.925 578.887 554.405 578.66C553.885 578.42 553.498 578.047 553.245 577.54C553.005 577.033 552.885 576.373 552.885 575.56V570.3H551.225V568.46H552.885V565.42H554.945V568.46H557.605V570.3H554.945V575.3C554.945 575.927 555.058 576.4 555.285 576.72C555.511 577.027 555.985 577.18 556.705 577.18H557.525V579H556.425ZM559.367 579V568.46H561.427V579H559.367ZM560.387 567.06C559.987 567.06 559.661 566.94 559.407 566.7C559.167 566.447 559.047 566.127 559.047 565.74C559.047 565.353 559.174 565.04 559.427 564.8C559.681 564.547 560.001 564.42 560.387 564.42C560.747 564.42 561.061 564.547 561.327 564.8C561.607 565.04 561.747 565.353 561.747 565.74C561.747 566.127 561.614 566.447 561.347 566.7C561.094 566.94 560.774 567.06 560.387 567.06ZM563.977 579V568.46H565.937L566.037 569.94C566.303 569.553 566.623 569.247 566.997 569.02C567.37 568.78 567.77 568.607 568.197 568.5C568.623 568.38 569.037 568.32 569.437 568.32C570.45 568.32 571.243 568.54 571.817 568.98C572.403 569.407 572.817 569.987 573.057 570.72C573.31 571.44 573.437 572.26 573.437 573.18V579H571.357V573.6C571.357 573.173 571.33 572.753 571.277 572.34C571.223 571.927 571.11 571.56 570.937 571.24C570.777 570.907 570.543 570.647 570.237 570.46C569.93 570.26 569.517 570.16 568.997 570.16C568.357 570.16 567.817 570.333 567.377 570.68C566.937 571.027 566.603 571.493 566.377 572.08C566.15 572.667 566.037 573.327 566.037 574.06V579H563.977ZM580.631 583.78C579.884 583.78 579.191 583.66 578.551 583.42C577.911 583.193 577.364 582.827 576.911 582.32C576.471 581.827 576.171 581.193 576.011 580.42H578.151C578.244 580.78 578.424 581.067 578.691 581.28C578.958 581.507 579.271 581.667 579.631 581.76C579.991 581.853 580.351 581.9 580.711 581.9C581.391 581.9 581.938 581.76 582.351 581.48C582.764 581.2 583.058 580.82 583.231 580.34C583.418 579.873 583.511 579.34 583.511 578.74V577.52C583.284 577.907 582.984 578.22 582.611 578.46C582.238 578.7 581.838 578.873 581.411 578.98C580.998 579.073 580.571 579.12 580.131 579.12C579.051 579.12 578.171 578.88 577.491 578.4C576.811 577.92 576.304 577.28 575.971 576.48C575.651 575.667 575.491 574.767 575.491 573.78C575.491 572.767 575.658 571.847 575.991 571.02C576.338 570.193 576.864 569.54 577.571 569.06C578.278 568.567 579.171 568.32 580.251 568.32C580.878 568.32 581.484 568.433 582.071 568.66C582.658 568.873 583.144 569.22 583.531 569.7L583.651 568.46H585.591V578.5C585.591 579.58 585.418 580.513 585.071 581.3C584.724 582.1 584.184 582.713 583.451 583.14C582.718 583.567 581.778 583.78 580.631 583.78ZM580.511 577.28C581.178 577.28 581.731 577.12 582.171 576.8C582.624 576.467 582.964 576.027 583.191 575.48C583.418 574.933 583.531 574.333 583.531 573.68C583.531 573.013 583.418 572.42 583.191 571.9C582.964 571.367 582.631 570.947 582.191 570.64C581.751 570.333 581.184 570.18 580.491 570.18C579.771 570.18 579.198 570.347 578.771 570.68C578.344 571 578.031 571.433 577.831 571.98C577.644 572.513 577.551 573.107 577.551 573.76C577.551 574.427 577.651 575.027 577.851 575.56C578.051 576.093 578.364 576.513 578.791 576.82C579.231 577.127 579.804 577.28 580.511 577.28ZM592.197 579.12C591.064 579.12 590.251 578.813 589.757 578.2C589.277 577.573 589.037 576.7 589.037 575.58V570.3H587.357V568.46H589.037V565.4H591.097V568.46H594.317V570.3H591.097V575.24C591.097 575.613 591.131 575.953 591.197 576.26C591.277 576.567 591.424 576.807 591.637 576.98C591.851 577.153 592.157 577.247 592.557 577.26C592.864 577.26 593.131 577.207 593.357 577.1C593.597 576.993 593.791 576.873 593.937 576.74L594.737 578.28C594.484 578.48 594.217 578.647 593.937 578.78C593.671 578.9 593.391 578.987 593.097 579.04C592.804 579.093 592.504 579.12 592.197 579.12ZM600.923 579.12C599.83 579.12 598.903 578.9 598.143 578.46C597.383 578.007 596.803 577.373 596.403 576.56C596.016 575.747 595.823 574.807 595.823 573.74C595.823 572.66 596.023 571.72 596.423 570.92C596.823 570.107 597.403 569.473 598.163 569.02C598.923 568.553 599.85 568.32 600.943 568.32C602.036 568.32 602.963 568.553 603.723 569.02C604.483 569.473 605.056 570.107 605.443 570.92C605.83 571.733 606.023 572.68 606.023 573.76C606.023 574.813 605.823 575.747 605.423 576.56C605.036 577.373 604.463 578.007 603.703 578.46C602.956 578.9 602.03 579.12 600.923 579.12ZM600.923 577.28C601.643 577.28 602.223 577.12 602.663 576.8C603.116 576.48 603.45 576.053 603.663 575.52C603.876 574.973 603.983 574.38 603.983 573.74C603.983 573.1 603.876 572.513 603.663 571.98C603.45 571.447 603.116 571.02 602.663 570.7C602.223 570.367 601.643 570.2 600.923 570.2C600.216 570.2 599.636 570.367 599.183 570.7C598.73 571.02 598.396 571.447 598.183 571.98C597.983 572.513 597.883 573.1 597.883 573.74C597.883 574.393 597.983 574.987 598.183 575.52C598.396 576.053 598.73 576.48 599.183 576.8C599.636 577.12 600.216 577.28 600.923 577.28ZM612.837 579.12C611.744 579.12 610.817 578.9 610.057 578.46C609.297 578.007 608.717 577.373 608.317 576.56C607.93 575.747 607.737 574.807 607.737 573.74C607.737 572.66 607.937 571.72 608.337 570.92C608.737 570.107 609.317 569.473 610.077 569.02C610.837 568.553 611.764 568.32 612.857 568.32C613.95 568.32 614.877 568.553 615.637 569.02C616.397 569.473 616.97 570.107 617.357 570.92C617.744 571.733 617.937 572.68 617.937 573.76C617.937 574.813 617.737 575.747 617.337 576.56C616.95 577.373 616.377 578.007 615.617 578.46C614.87 578.9 613.944 579.12 612.837 579.12ZM612.837 577.28C613.557 577.28 614.137 577.12 614.577 576.8C615.03 576.48 615.364 576.053 615.577 575.52C615.79 574.973 615.897 574.38 615.897 573.74C615.897 573.1 615.79 572.513 615.577 571.98C615.364 571.447 615.03 571.02 614.577 570.7C614.137 570.367 613.557 570.2 612.837 570.2C612.13 570.2 611.55 570.367 611.097 570.7C610.644 571.02 610.31 571.447 610.097 571.98C609.897 572.513 609.797 573.1 609.797 573.74C609.797 574.393 609.897 574.987 610.097 575.52C610.31 576.053 610.644 576.48 611.097 576.8C611.55 577.12 612.13 577.28 612.837 577.28ZM620.051 579V564.86H622.111V579H620.051ZM628.6 579.12C628.107 579.12 627.614 579.073 627.12 578.98C626.627 578.887 626.167 578.72 625.74 578.48C625.314 578.24 624.954 577.92 624.66 577.52C624.367 577.107 624.18 576.6 624.1 576H626.2C626.307 576.32 626.494 576.58 626.76 576.78C627.04 576.98 627.347 577.127 627.68 577.22C628.027 577.313 628.367 577.36 628.7 577.36C628.9 577.36 629.12 577.347 629.36 577.32C629.614 577.293 629.854 577.233 630.08 577.14C630.307 577.047 630.494 576.913 630.64 576.74C630.787 576.553 630.86 576.307 630.86 576C630.86 575.76 630.794 575.56 630.66 575.4C630.54 575.24 630.367 575.113 630.14 575.02C629.927 574.913 629.667 574.833 629.36 574.78C628.76 574.647 628.114 574.52 627.42 574.4C626.74 574.267 626.14 574.04 625.62 573.72C625.434 573.6 625.267 573.467 625.12 573.32C624.974 573.16 624.847 572.98 624.74 572.78C624.634 572.58 624.554 572.367 624.5 572.14C624.447 571.913 624.42 571.667 624.42 571.4C624.42 570.853 624.527 570.387 624.74 570C624.967 569.613 625.274 569.3 625.66 569.06C626.047 568.807 626.487 568.62 626.98 568.5C627.474 568.38 627.994 568.32 628.54 568.32C629.247 568.32 629.887 568.433 630.46 568.66C631.034 568.887 631.507 569.22 631.88 569.66C632.254 570.1 632.474 570.653 632.54 571.32H630.6C630.52 570.96 630.287 570.673 629.9 570.46C629.527 570.233 629.054 570.12 628.48 570.12C628.28 570.12 628.06 570.133 627.82 570.16C627.594 570.187 627.374 570.247 627.16 570.34C626.947 570.433 626.774 570.567 626.64 570.74C626.507 570.9 626.44 571.113 626.44 571.38C626.44 571.633 626.5 571.847 626.62 572.02C626.754 572.193 626.94 572.333 627.18 572.44C627.434 572.547 627.72 572.633 628.04 572.7C628.494 572.807 628.98 572.907 629.5 573C630.034 573.093 630.467 573.193 630.8 573.3C631.24 573.42 631.614 573.593 631.92 573.82C632.24 574.047 632.48 574.333 632.64 574.68C632.814 575.027 632.9 575.447 632.9 575.94C632.9 576.58 632.774 577.107 632.52 577.52C632.267 577.92 631.927 578.24 631.5 578.48C631.087 578.72 630.62 578.887 630.1 578.98C629.594 579.073 629.094 579.12 628.6 579.12Z" fill="#030712"/>
</g>
<defs>
<filter id="filter0_d_131_405" x="180" y="162" width="316" height="196" filterUnits="userSpaceOnUse" color-interpolation-filters="sRGB">
<feFlood flood-opacity="0" result="BackgroundImageFix"/>
<feColorMatrix in="SourceAlpha" type="matrix" values="0 0 0 0 0 0 0 0 0 0 0 0 0 0 0 0 0 0 127 0" result="hardAlpha"/>
<feMorphology radius="12" operator="erode" in="SourceAlpha" result="effect1_dropShadow_131_405"/>
<feOffset/>
<feGaussianBlur stdDeviation="25"/>
<feComposite in2="hardAlpha" operator="out"/>
<feColorMatrix type="matrix" values="0 0 0 0 0.357627 0 0 0 0 0.3472 0 0 0 0 0.9728 0 0 0 0.25 0"/>
<feBlend mode="normal" in2="BackgroundImageFix" result="effect1_dropShadow_131_405"/>
<feBlend mode="normal" in="SourceGraphic" in2="effect1_dropShadow_131_405" result="shape"/>
</filter>
<filter id="filter1_d_131_405" x="261.119" y="240.842" width="42.3915" height="42.3918" filterUnits="userSpaceOnUse" color-interpolation-filters="sRGB">
<feFlood flood-opacity="0" result="BackgroundImageFix"/>
<feColorMatrix in="SourceAlpha" type="matrix" values="0 0 0 0 0 0 0 0 0 0 0 0 0 0 0 0 0 0 127 0" result="hardAlpha"/>
<feOffset dy="1.81818"/>
<feGaussianBlur stdDeviation="4.54545"/>
<feComposite in2="hardAlpha" operator="out"/>
<feColorMatrix type="matrix" values="0 0 0 0 0.207843 0 0 0 0 0.192157 0 0 0 0 0.635294 0 0 0 1 0"/>
<feBlend mode="normal" in2="BackgroundImageFix" result="effect1_dropShadow_131_405"/>
<feBlend mode="normal" in="SourceGraphic" in2="effect1_dropShadow_131_405" result="shape"/>
</filter>
<filter id="filter2_dd_131_405" x="0.5" y="499" width="225" height="126" filterUnits="userSpaceOnUse" color-interpolation-filters="sRGB">
<feFlood flood-opacity="0" result="BackgroundImageFix"/>
<feColorMatrix in="SourceAlpha" type="matrix" values="0 0 0 0 0 0 0 0 0 0 0 0 0 0 0 0 0 0 127 0" result="hardAlpha"/>
<feMorphology radius="4" operator="erode" in="SourceAlpha" result="effect1_dropShadow_131_405"/>
<feOffset dy="4"/>
<feGaussianBlur stdDeviation="3"/>
<feComposite in2="hardAlpha" operator="out"/>
<feColorMatrix type="matrix" values="0 0 0 0 0 0 0 0 0 0 0 0 0 0 0 0 0 0 0.1 0"/>
<feBlend mode="normal" in2="BackgroundImageFix" result="effect1_dropShadow_131_405"/>
<feColorMatrix in="SourceAlpha" type="matrix" values="0 0 0 0 0 0 0 0 0 0 0 0 0 0 0 0 0 0 127 0" result="hardAlpha"/>
<feMorphology radius="3" operator="erode" in="SourceAlpha" result="effect2_dropShadow_131_405"/>
<feOffset dy="10"/>
<feGaussianBlur stdDeviation="7.5"/>
<feComposite in2="hardAlpha" operator="out"/>
<feColorMatrix type="matrix" values="0 0 0 0 0 0 0 0 0 0 0 0 0 0 0 0 0 0 0.1 0"/>
<feBlend mode="normal" in2="effect1_dropShadow_131_405" result="effect2_dropShadow_131_405"/>
<feBlend mode="normal" in="SourceGraphic" in2="effect2_dropShadow_131_405" result="shape"/>
</filter>
<filter id="filter3_dd_131_405" x="225.5" y="499" width="225" height="126" filterUnits="userSpaceOnUse" color-interpolation-filters="sRGB">
<feFlood flood-opacity="0" result="BackgroundImageFix"/>
<feColorMatrix in="SourceAlpha" type="matrix" values="0 0 0 0 0 0 0 0 0 0 0 0 0 0 0 0 0 0 127 0" result="hardAlpha"/>
<feMorphology radius="4" operator="erode" in="SourceAlpha" result="effect1_dropShadow_131_405"/>
<feOffset dy="4"/>
<feGaussianBlur stdDeviation="3"/>
<feComposite in2="hardAlpha" operator="out"/>
<feColorMatrix type="matrix" values="0 0 0 0 0 0 0 0 0 0 0 0 0 0 0 0 0 0 0.1 0"/>
<feBlend mode="normal" in2="BackgroundImageFix" result="effect1_dropShadow_131_405"/>
<feColorMatrix in="SourceAlpha" type="matrix" values="0 0 0 0 0 0 0 0 0 0 0 0 0 0 0 0 0 0 127 0" result="hardAlpha"/>
<feMorphology radius="3" operator="erode" in="SourceAlpha" result="effect2_dropShadow_131_405"/>
<feOffset dy="10"/>
<feGaussianBlur stdDeviation="7.5"/>
<feComposite in2="hardAlpha" operator="out"/>
<feColorMatrix type="matrix" values="0 0 0 0 0 0 0 0 0 0 0 0 0 0 0 0 0 0 0.1 0"/>
<feBlend mode="normal" in2="effect1_dropShadow_131_405" result="effect2_dropShadow_131_405"/>
<feBlend mode="normal" in="SourceGraphic" in2="effect2_dropShadow_131_405" result="shape"/>
</filter>
<filter id="filter4_dd_131_405" x="450.5" y="499" width="225" height="126" filterUnits="userSpaceOnUse" color-interpolation-filters="sRGB">
<feFlood flood-opacity="0" result="BackgroundImageFix"/>
<feColorMatrix in="SourceAlpha" type="matrix" values="0 0 0 0 0 0 0 0 0 0 0 0 0 0 0 0 0 0 127 0" result="hardAlpha"/>
<feMorphology radius="4" operator="erode" in="SourceAlpha" result="effect1_dropShadow_131_405"/>
<feOffset dy="4"/>
<feGaussianBlur stdDeviation="3"/>
<feComposite in2="hardAlpha" operator="out"/>
<feColorMatrix type="matrix" values="0 0 0 0 0 0 0 0 0 0 0 0 0 0 0 0 0 0 0.1 0"/>
<feBlend mode="normal" in2="BackgroundImageFix" result="effect1_dropShadow_131_405"/>
<feColorMatrix in="SourceAlpha" type="matrix" values="0 0 0 0 0 0 0 0 0 0 0 0 0 0 0 0 0 0 127 0" result="hardAlpha"/>
<feMorphology radius="3" operator="erode" in="SourceAlpha" result="effect2_dropShadow_131_405"/>
<feOffset dy="10"/>
<feGaussianBlur stdDeviation="7.5"/>
<feComposite in2="hardAlpha" operator="out"/>
<feColorMatrix type="matrix" values="0 0 0 0 0 0 0 0 0 0 0 0 0 0 0 0 0 0 0.1 0"/>
<feBlend mode="normal" in2="effect1_dropShadow_131_405" result="effect2_dropShadow_131_405"/>
<feBlend mode="normal" in="SourceGraphic" in2="effect2_dropShadow_131_405" result="shape"/>
</filter>
<linearGradient id="paint0_linear_131_405" x1="337.5" y1="0" x2="337.5" y2="200" gradientUnits="userSpaceOnUse">
<stop stop-color="#E8EBED" stop-opacity="0"/>
<stop offset="1" stop-color="#E5E7EB"/>
</linearGradient>
<linearGradient id="paint1_linear_131_405" x1="337.604" y1="248.631" x2="337.604" y2="275.873" gradientUnits="userSpaceOnUse">
<stop stop-color="#0A0A0A"/>
<stop offset="1" stop-color="#16136C"/>
</linearGradient>
<linearGradient id="paint2_linear_131_405" x1="337.604" y1="248.631" x2="337.604" y2="275.873" gradientUnits="userSpaceOnUse">
<stop stop-color="#0A0A0A"/>
<stop offset="1" stop-color="#16136C"/>
</linearGradient>
<linearGradient id="paint3_linear_131_405" x1="337.604" y1="248.631" x2="337.604" y2="275.873" gradientUnits="userSpaceOnUse">
<stop stop-color="#0A0A0A"/>
<stop offset="1" stop-color="#16136C"/>
</linearGradient>
<linearGradient id="paint4_linear_131_405" x1="337.604" y1="248.631" x2="337.604" y2="275.873" gradientUnits="userSpaceOnUse">
<stop stop-color="#0A0A0A"/>
<stop offset="1" stop-color="#16136C"/>
</linearGradient>
<linearGradient id="paint5_linear_131_405" x1="337.604" y1="248.631" x2="337.604" y2="275.873" gradientUnits="userSpaceOnUse">
<stop stop-color="#0A0A0A"/>
<stop offset="1" stop-color="#16136C"/>
</linearGradient>
<linearGradient id="paint6_linear_131_405" x1="337.604" y1="248.631" x2="337.604" y2="275.873" gradientUnits="userSpaceOnUse">
<stop stop-color="#0A0A0A"/>
<stop offset="1" stop-color="#16136C"/>
</linearGradient>
<linearGradient id="paint7_linear_131_405" x1="281.911" y1="240.001" x2="282.271" y2="279.999" gradientUnits="userSpaceOnUse">
<stop stop-color="#6B66FF"/>
<stop offset="1" stop-color="#3A33FF"/>
</linearGradient>
<linearGradient id="paint8_linear_131_405" x1="282.249" y1="272.371" x2="282.032" y2="248.293" gradientUnits="userSpaceOnUse">
<stop stop-color="#9ACDFF"/>
<stop offset="1" stop-color="#BADAFF"/>
</linearGradient>
<clipPath id="clip0_131_405">
<rect width="151.818" height="40" fill="white" transform="translate(262.091 240)"/>
</clipPath>
<clipPath id="clip1_131_405">
<rect width="40" height="40" fill="white" transform="translate(261.912 240.181) rotate(-0.515124)"/>
</clipPath>
</defs>
</svg>
